<?xml version="1.0" encoding="UTF-8" standalone="no"?><svg xmlns="http://www.w3.org/2000/svg" xmlns:xlink="http://www.w3.org/1999/xlink" contentStyleType="text/css" height="170px" preserveAspectRatio="none" style="width:515px;height:170px;background:#FFFFFF;" version="1.1" viewBox="0 0 515 170" width="515px" zoomAndPan="magnify"><defs/><g><!--MD5=[90d32ccc189f11441a6ce7cbb63ad387]
class Material--><g id="elem_Material"><rect fill="#F1F1F1" height="48" id="Material" rx="2.5" ry="2.5" style="stroke:#181818;stroke-width:0.5;" width="83" x="231" y="7"/><ellipse cx="246" cy="23" fill="#ADD1B2" rx="11" ry="11" style="stroke:#181818;stroke-width:1.0;"/><path d="M241,24.1563 C241,26.6563 243.1406,28.4688 246.0625,28.4688 C247.2969,28.4688 248.4688,28.1719 249.2188,27.6563 C249.8281,27.2344 250.1563,26.8125 250.1563,26.4063 C250.1563,25.9375 249.7344,25.5313 249.2344,25.5313 C249,25.5313 248.7813,25.6094 248.5781,25.8125 C248.1406,26.25 248.1406,26.25 247.9688,26.3438 C247.5156,26.5781 246.875,26.7188 246.1094,26.7188 C244.1094,26.7188 242.8281,25.7031 242.8281,24.125 L242.8281,23.0781 C242.8281,21.375 244.0469,20.1719 245.75,20.1719 C246.3281,20.1719 246.9063,20.3125 247.375,20.5625 C247.8438,20.8281 248.0156,21.0156 248.0781,21.375 C248.2031,22.0469 248.4531,22.2969 248.9844,22.2969 C249.2656,22.2969 249.5469,22.1563 249.7344,21.9375 C249.8594,21.7656 249.9063,21.5938 249.9063,21.1563 L249.9063,19.7969 C249.9063,19.375 249.8906,19.2344 249.7656,19.0625 C249.5938,18.8125 249.3125,18.6563 248.9844,18.6563 C248.6719,18.6563 248.4688,18.7656 248.25,19.0313 C247.0781,18.5313 246.6406,18.4219 245.6875,18.4219 C243.0156,18.4219 241,20.4375 241,23.0625 L241,24.1563 Z " fill="#000000"/><text fill="#000000" font-family="sans-serif" font-size="14" lengthAdjust="spacing" textLength="51" x="260" y="27.606">Material</text><line style="stroke:#181818;stroke-width:0.5;" x1="232" x2="313" y1="39" y2="39"/><line style="stroke:#181818;stroke-width:0.5;" x1="232" x2="313" y1="47" y2="47"/></g><!--MD5=[8672d404c1ffb6a61b01c50f9cfa0d55]
class UniaxialMaterial--><g id="elem_UniaxialMaterial"><rect fill="#F1F1F1" height="48" id="UniaxialMaterial" rx="2.5" ry="2.5" style="stroke:#181818;stroke-width:0.5;" width="133" x="7" y="115"/><ellipse cx="22" cy="131" fill="#ADD1B2" rx="11" ry="11" style="stroke:#181818;stroke-width:1.0;"/><path d="M17,132.1563 C17,134.6563 19.1406,136.4688 22.0625,136.4688 C23.2969,136.4688 24.4688,136.1719 25.2188,135.6563 C25.8281,135.2344 26.1563,134.8125 26.1563,134.4063 C26.1563,133.9375 25.7344,133.5313 25.2344,133.5313 C25,133.5313 24.7813,133.6094 24.5781,133.8125 C24.1406,134.25 24.1406,134.25 23.9688,134.3438 C23.5156,134.5781 22.875,134.7188 22.1094,134.7188 C20.1094,134.7188 18.8281,133.7031 18.8281,132.125 L18.8281,131.0781 C18.8281,129.375 20.0469,128.1719 21.75,128.1719 C22.3281,128.1719 22.9063,128.3125 23.375,128.5625 C23.8438,128.8281 24.0156,129.0156 24.0781,129.375 C24.2031,130.0469 24.4531,130.2969 24.9844,130.2969 C25.2656,130.2969 25.5469,130.1563 25.7344,129.9375 C25.8594,129.7656 25.9063,129.5938 25.9063,129.1563 L25.9063,127.7969 C25.9063,127.375 25.8906,127.2344 25.7656,127.0625 C25.5938,126.8125 25.3125,126.6563 24.9844,126.6563 C24.6719,126.6563 24.4688,126.7656 24.25,127.0313 C23.0781,126.5313 22.6406,126.4219 21.6875,126.4219 C19.0156,126.4219 17,128.4375 17,131.0625 L17,132.1563 Z " fill="#000000"/><text fill="#000000" font-family="sans-serif" font-size="14" lengthAdjust="spacing" textLength="101" x="36" y="135.606">UniaxialMaterial</text><line style="stroke:#181818;stroke-width:0.5;" x1="8" x2="139" y1="147" y2="147"/><line style="stroke:#181818;stroke-width:0.5;" x1="8" x2="139" y1="155" y2="155"/></g><!--MD5=[4a82dfaff562fb8caf9a99d9aeb89790]
class SectionForceDeformation--><g id="elem_SectionForceDeformation"><rect fill="#F1F1F1" height="48" id="SectionForceDeformation" rx="2.5" ry="2.5" style="stroke:#181818;stroke-width:0.5;" width="194" x="175.5" y="115"/><ellipse cx="190.5" cy="131" fill="#ADD1B2" rx="11" ry="11" style="stroke:#181818;stroke-width:1.0;"/><path d="M185.5,132.1563 C185.5,134.6563 187.6406,136.4688 190.5625,136.4688 C191.7969,136.4688 192.9688,136.1719 193.7188,135.6563 C194.3281,135.2344 194.6563,134.8125 194.6563,134.4063 C194.6563,133.9375 194.2344,133.5313 193.7344,133.5313 C193.5,133.5313 193.2813,133.6094 193.0781,133.8125 C192.6406,134.25 192.6406,134.25 192.4688,134.3438 C192.0156,134.5781 191.375,134.7188 190.6094,134.7188 C188.6094,134.7188 187.3281,133.7031 187.3281,132.125 L187.3281,131.0781 C187.3281,129.375 188.5469,128.1719 190.25,128.1719 C190.8281,128.1719 191.4063,128.3125 191.875,128.5625 C192.3438,128.8281 192.5156,129.0156 192.5781,129.375 C192.7031,130.0469 192.9531,130.2969 193.4844,130.2969 C193.7656,130.2969 194.0469,130.1563 194.2344,129.9375 C194.3594,129.7656 194.4063,129.5938 194.4063,129.1563 L194.4063,127.7969 C194.4063,127.375 194.3906,127.2344 194.2656,127.0625 C194.0938,126.8125 193.8125,126.6563 193.4844,126.6563 C193.1719,126.6563 192.9688,126.7656 192.75,127.0313 C191.5781,126.5313 191.1406,126.4219 190.1875,126.4219 C187.5156,126.4219 185.5,128.4375 185.5,131.0625 L185.5,132.1563 Z " fill="#000000"/><text fill="#000000" font-family="sans-serif" font-size="14" lengthAdjust="spacing" textLength="162" x="204.5" y="135.606">SectionForceDeformation</text><line style="stroke:#181818;stroke-width:0.5;" x1="176.5" x2="368.5" y1="147" y2="147"/><line style="stroke:#181818;stroke-width:0.5;" x1="176.5" x2="368.5" y1="155" y2="155"/></g><!--MD5=[f8dde51543640dc9abc1907c008a39db]
class NDMaterial--><g id="elem_NDMaterial"><rect fill="#F1F1F1" height="48" id="NDMaterial" rx="2.5" ry="2.5" style="stroke:#181818;stroke-width:0.5;" width="103" x="405" y="115"/><ellipse cx="420" cy="131" fill="#ADD1B2" rx="11" ry="11" style="stroke:#181818;stroke-width:1.0;"/><path d="M415,132.1563 C415,134.6563 417.1406,136.4688 420.0625,136.4688 C421.2969,136.4688 422.4688,136.1719 423.2188,135.6563 C423.8281,135.2344 424.1563,134.8125 424.1563,134.4063 C424.1563,133.9375 423.7344,133.5313 423.2344,133.5313 C423,133.5313 422.7813,133.6094 422.5781,133.8125 C422.1406,134.25 422.1406,134.25 421.9688,134.3438 C421.5156,134.5781 420.875,134.7188 420.1094,134.7188 C418.1094,134.7188 416.8281,133.7031 416.8281,132.125 L416.8281,131.0781 C416.8281,129.375 418.0469,128.1719 419.75,128.1719 C420.3281,128.1719 420.9063,128.3125 421.375,128.5625 C421.8438,128.8281 422.0156,129.0156 422.0781,129.375 C422.2031,130.0469 422.4531,130.2969 422.9844,130.2969 C423.2656,130.2969 423.5469,130.1563 423.7344,129.9375 C423.8594,129.7656 423.9063,129.5938 423.9063,129.1563 L423.9063,127.7969 C423.9063,127.375 423.8906,127.2344 423.7656,127.0625 C423.5938,126.8125 423.3125,126.6563 422.9844,126.6563 C422.6719,126.6563 422.4688,126.7656 422.25,127.0313 C421.0781,126.5313 420.6406,126.4219 419.6875,126.4219 C417.0156,126.4219 415,128.4375 415,131.0625 L415,132.1563 Z " fill="#000000"/><text fill="#000000" font-family="sans-serif" font-size="14" lengthAdjust="spacing" textLength="71" x="434" y="135.606">NDMaterial</text><line style="stroke:#181818;stroke-width:0.5;" x1="406" x2="507" y1="147" y2="147"/><line style="stroke:#181818;stroke-width:0.5;" x1="406" x2="507" y1="155" y2="155"/></g><!--MD5=[98a6d372f792c1bfa11ef53bf7d15b76]
reverse link Material to UniaxialMaterial--><g id="link_Material_UniaxialMaterial"><path codeLine="1" d="M212.96,63.72 C182.07,80.17 145.03,99.9 116.88,114.89 " fill="none" id="Material-backto-UniaxialMaterial" style="stroke:#181818;stroke-width:1.0;"/><polygon fill="none" points="209.84,57.45,230.78,54.22,216.42,69.8,209.84,57.45" style="stroke:#181818;stroke-width:1.0;"/></g><!--MD5=[f302c1518d40feee91813f0c0c54a869]
reverse link Material to SectionForceDeformation--><g id="link_Material_SectionForceDeformation"><path codeLine="2" d="M272.5,75.02 C272.5,88.58 272.5,103.04 272.5,114.68 " fill="none" id="Material-backto-SectionForceDeformation" style="stroke:#181818;stroke-width:1.0;"/><polygon fill="none" points="265.5,75,272.5,55,279.5,75,265.5,75" style="stroke:#181818;stroke-width:1.0;"/></g><!--MD5=[c82a9b1b75c8d4fe49cdcdf2f9d7a0a8]
reverse link Material to NDMaterial--><g id="link_Material_NDMaterial"><path codeLine="3" d="M329.99,65.12 C358.03,81.27 391.06,100.3 416.34,114.86 " fill="none" id="Material-backto-NDMaterial" style="stroke:#181818;stroke-width:1.0;"/><polygon fill="none" points="326.26,71.05,312.43,55,333.25,58.92,326.26,71.05" style="stroke:#181818;stroke-width:1.0;"/></g><!--MD5=[f857a11b4f31840a513d96941f56cda4]
@startuml
Material <|- - UniaxialMaterial 
Material <|- - SectionForceDeformation 
Material <|- - NDMaterial
@enduml

PlantUML version 1.2022.4(Sat Apr 09 06:29:17 PDT 2022)
(GPL source distribution)
Java Runtime: OpenJDK Runtime Environment
JVM: OpenJDK 64-Bit Server VM
Default Encoding: UTF-8
Language: en
Country: US
--></g></svg>