<?xml version="1.0" encoding="UTF-8" standalone="no"?><svg xmlns="http://www.w3.org/2000/svg" xmlns:xlink="http://www.w3.org/1999/xlink" contentStyleType="text/css" height="187px" preserveAspectRatio="none" style="width:204px;height:187px;background:#FFFFFF;" version="1.1" viewBox="0 0 204 187" width="204px" zoomAndPan="magnify"><defs/><g><!--MD5=[351997ef1e204500522f7626b91070f1]
class FunctionEvaluator--><g id="elem_FunctionEvaluator"><rect codeLine="1" fill="#F1F1F1" height="64.7999" id="FunctionEvaluator" rx="2.5" ry="2.5" style="stroke:#181818;stroke-width:0.5;" width="190" x="7" y="7"/><ellipse cx="41.35" cy="23" fill="#A9DCDF" rx="11" ry="11" style="stroke:#181818;stroke-width:1.0;"/><path d="M42.8813,24.9375 L43.2094,25.7344 L42.9281,25.7344 C42.475,25.7344 42.35,25.7656 42.1781,25.875 C41.8969,26.0156 41.725,26.3125 41.725,26.6094 C41.725,26.9063 41.8656,27.1563 42.1,27.3281 C42.2719,27.4531 42.5063,27.5 42.9281,27.5 L45.2875,27.5 C45.6469,27.5 45.8969,27.4688 46.0375,27.375 C46.3031,27.2344 46.475,26.9219 46.475,26.6094 C46.475,26.3438 46.3344,26.0781 46.1,25.9063 C45.9125,25.7813 45.7563,25.75 45.3031,25.7344 L41.9125,17.9063 L38.1938,17.9063 C37.7406,17.9063 37.6,17.9219 37.4281,18.0313 C37.1625,18.2031 36.9906,18.4844 36.9906,18.7813 C36.9906,19.0625 37.1313,19.3281 37.3813,19.5 C37.5531,19.625 37.7406,19.6563 38.1938,19.6563 L39.1625,19.6563 L36.5844,25.7344 C35.8344,25.7344 35.4281,26.0313 35.4281,26.6094 C35.4281,27.2188 35.8188,27.5 36.6156,27.5 L38.8813,27.5 C39.2406,27.5 39.4906,27.4688 39.6313,27.375 C39.8969,27.2188 40.0688,26.9219 40.0688,26.6094 C40.0688,26.3438 39.9281,26.0781 39.6938,25.9063 C39.5063,25.7656 39.35,25.7344 38.8813,25.7344 L38.5844,25.7344 L38.9281,24.9375 L42.8813,24.9375 Z M42.1156,23.1875 L39.6625,23.1875 L40.8969,20.3125 L42.1156,23.1875 Z " fill="#000000"/><text fill="#000000" font-family="sans-serif" font-size="14" font-style="italic" lengthAdjust="spacing" textLength="115" x="59.65" y="28.95">FunctionEvaluator</text><line style="stroke:#181818;stroke-width:0.5;" x1="8" x2="196" y1="39" y2="39"/><line style="stroke:#181818;stroke-width:0.5;" x1="8" x2="196" y1="47" y2="47"/><text fill="#000000" font-family="sans-serif" font-size="14" lengthAdjust="spacing" textLength="178" x="13" y="64.0059">double eval(const char * =0)</text></g><!--MD5=[5d84c1239a0281794138fc25a5f71500]
class TclFunctionEvaluator--><g id="elem_TclFunctionEvaluator"><rect fill="#F1F1F1" height="48" id="TclFunctionEvaluator" rx="2.5" ry="2.5" style="stroke:#181818;stroke-width:0.5;" width="166" x="19" y="132"/><ellipse cx="34" cy="148" fill="#ADD1B2" rx="11" ry="11" style="stroke:#181818;stroke-width:1.0;"/><path d="M29,149.1563 C29,151.6563 31.1406,153.4688 34.0625,153.4688 C35.2969,153.4688 36.4688,153.1719 37.2188,152.6563 C37.8281,152.2344 38.1563,151.8125 38.1563,151.4063 C38.1563,150.9375 37.7344,150.5313 37.2344,150.5313 C37,150.5313 36.7813,150.6094 36.5781,150.8125 C36.1406,151.25 36.1406,151.25 35.9688,151.3438 C35.5156,151.5781 34.875,151.7188 34.1094,151.7188 C32.1094,151.7188 30.8281,150.7031 30.8281,149.125 L30.8281,148.0781 C30.8281,146.375 32.0469,145.1719 33.75,145.1719 C34.3281,145.1719 34.9063,145.3125 35.375,145.5625 C35.8438,145.8281 36.0156,146.0156 36.0781,146.375 C36.2031,147.0469 36.4531,147.2969 36.9844,147.2969 C37.2656,147.2969 37.5469,147.1563 37.7344,146.9375 C37.8594,146.7656 37.9063,146.5938 37.9063,146.1563 L37.9063,144.7969 C37.9063,144.375 37.8906,144.2344 37.7656,144.0625 C37.5938,143.8125 37.3125,143.6563 36.9844,143.6563 C36.6719,143.6563 36.4688,143.7656 36.25,144.0313 C35.0781,143.5313 34.6406,143.4219 33.6875,143.4219 C31.0156,143.4219 29,145.4375 29,148.0625 L29,149.1563 Z " fill="#000000"/><text fill="#000000" font-family="sans-serif" font-size="14" lengthAdjust="spacing" textLength="134" x="48" y="152.606">TclFunctionEvaluator</text><line style="stroke:#181818;stroke-width:0.5;" x1="20" x2="184" y1="164" y2="164"/><line style="stroke:#181818;stroke-width:0.5;" x1="20" x2="184" y1="172" y2="172"/></g><!--MD5=[40b53381993fa0e4d06cdf800daaa401]
reverse link FunctionEvaluator to TclFunctionEvaluator--><g id="link_FunctionEvaluator_TclFunctionEvaluator"><path codeLine="2" d="M102,92.34 C102,106.18 102,120.45 102,131.86 " fill="none" id="FunctionEvaluator-backto-TclFunctionEvaluator" style="stroke:#181818;stroke-width:1.0;"/><polygon fill="none" points="95,92.09,102,72.09,109,92.09,95,92.09" style="stroke:#181818;stroke-width:1.0;"/></g><!--MD5=[52c2e5b75ff4f815f1a0b5c374e2049f]
@startuml
abstract class FunctionEvaluator 
FunctionEvaluator <|- - TclFunctionEvaluator 
FunctionEvaluator : double eval(const char * =0) 
@enduml

PlantUML version 1.2022.4(Sat Apr 09 06:29:17 PDT 2022)
(GPL source distribution)
Java Runtime: OpenJDK Runtime Environment
JVM: OpenJDK 64-Bit Server VM
Default Encoding: UTF-8
Language: en
Country: US
--></g></svg>