<?xml version="1.0" encoding="UTF-8" standalone="no"?><svg xmlns="http://www.w3.org/2000/svg" xmlns:xlink="http://www.w3.org/1999/xlink" contentStyleType="text/css" height="328px" preserveAspectRatio="none" style="width:1302px;height:328px;background:#FFFFFF;" version="1.1" viewBox="0 0 1302 328" width="1302px" zoomAndPan="magnify"><defs/><g><!--MD5=[59b35c6250e919a00c312e0a63030b53]
cluster OpenSees--><g id="cluster_OpenSees"><path d="M8.5,6.294 L79.5,6.294 A3.75,3.75 0 0 1 82,8.794 L89,29.0939 L246.5,29.0939 A2.5,2.5 0 0 1 249,31.5939 L249,318.794 A2.5,2.5 0 0 1 246.5,321.294 L8.5,321.294 A2.5,2.5 0 0 1 6,318.794 L6,8.794 A2.5,2.5 0 0 1 8.5,6.294 " fill="#DDDDDD" style="stroke:#000000;stroke-width:1.5;"/><line style="stroke:#000000;stroke-width:1.5;" x1="6" x2="89" y1="29.0939" y2="29.0939"/><text fill="#000000" font-family="sans-serif" font-size="14" font-weight="bold" lengthAdjust="spacing" textLength="70" x="10" y="21.2999">OpenSees</text></g><!--MD5=[5d91f089113b7c1395a374c77b88113f]
cluster Reliability--><g id="cluster_Reliability"><path d="M275.5,6.294 L344.5,6.294 A3.75,3.75 0 0 1 347,8.794 L354,29.0939 L1292.5,29.0939 A2.5,2.5 0 0 1 1295,31.5939 L1295,318.794 A2.5,2.5 0 0 1 1292.5,321.294 L275.5,321.294 A2.5,2.5 0 0 1 273,318.794 L273,8.794 A2.5,2.5 0 0 1 275.5,6.294 " fill="#CCCCCC" style="stroke:#000000;stroke-width:1.5;"/><line style="stroke:#000000;stroke-width:1.5;" x1="273" x2="354" y1="29.0939" y2="29.0939"/><text fill="#000000" font-family="sans-serif" font-size="14" font-weight="bold" lengthAdjust="spacing" textLength="68" x="277" y="21.2999">Reliability</text></g><!--MD5=[1f8fbffc1445fbdf7e25af61c62ad345]
class Domain--><g id="elem_Domain"><rect fill="#F1F1F1" height="48" id="Domain" rx="2.5" ry="2.5" style="stroke:#181818;stroke-width:0.5;" width="81" x="86.5" y="149.294"/><ellipse cx="101.5" cy="165.294" fill="#ADD1B2" rx="11" ry="11" style="stroke:#181818;stroke-width:1.0;"/><path d="M96.5,166.4502 C96.5,168.9502 98.6406,170.7627 101.5625,170.7627 C102.7969,170.7627 103.9688,170.4659 104.7188,169.9502 C105.3281,169.5284 105.6563,169.1065 105.6563,168.7002 C105.6563,168.2315 105.2344,167.8252 104.7344,167.8252 C104.5,167.8252 104.2813,167.9034 104.0781,168.1065 C103.6406,168.544 103.6406,168.544 103.4688,168.6377 C103.0156,168.8721 102.375,169.0127 101.6094,169.0127 C99.6094,169.0127 98.3281,167.9971 98.3281,166.419 L98.3281,165.3721 C98.3281,163.669 99.5469,162.4659 101.25,162.4659 C101.8281,162.4659 102.4063,162.6065 102.875,162.8565 C103.3438,163.1221 103.5156,163.3096 103.5781,163.669 C103.7031,164.3409 103.9531,164.5909 104.4844,164.5909 C104.7656,164.5909 105.0469,164.4502 105.2344,164.2315 C105.3594,164.0596 105.4063,163.8877 105.4063,163.4502 L105.4063,162.0909 C105.4063,161.669 105.3906,161.5284 105.2656,161.3565 C105.0938,161.1065 104.8125,160.9502 104.4844,160.9502 C104.1719,160.9502 103.9688,161.0596 103.75,161.3252 C102.5781,160.8252 102.1406,160.7159 101.1875,160.7159 C98.5156,160.7159 96.5,162.7315 96.5,165.3565 L96.5,166.4502 Z " fill="#000000"/><text fill="#000000" font-family="sans-serif" font-size="14" lengthAdjust="spacing" textLength="49" x="115.5" y="169.9">Domain</text><line style="stroke:#181818;stroke-width:0.5;" x1="87.5" x2="166.5" y1="181.294" y2="181.294"/><line style="stroke:#181818;stroke-width:0.5;" x1="87.5" x2="166.5" y1="189.294" y2="189.294"/></g><!--MD5=[05d04b564e9d963c5556604ff8f07e7e]
class Analysis--><g id="elem_Analysis"><rect fill="#F1F1F1" height="48" id="Analysis" rx="2.5" ry="2.5" style="stroke:#181818;stroke-width:0.5;" width="84" x="22" y="257.294"/><ellipse cx="37" cy="273.294" fill="#ADD1B2" rx="11" ry="11" style="stroke:#181818;stroke-width:1.0;"/><path d="M32,274.4502 C32,276.9502 34.1406,278.7627 37.0625,278.7627 C38.2969,278.7627 39.4688,278.4659 40.2188,277.9502 C40.8281,277.5284 41.1563,277.1065 41.1563,276.7002 C41.1563,276.2315 40.7344,275.8252 40.2344,275.8252 C40,275.8252 39.7813,275.9034 39.5781,276.1065 C39.1406,276.544 39.1406,276.544 38.9688,276.6377 C38.5156,276.8721 37.875,277.0127 37.1094,277.0127 C35.1094,277.0127 33.8281,275.9971 33.8281,274.419 L33.8281,273.3721 C33.8281,271.669 35.0469,270.4659 36.75,270.4659 C37.3281,270.4659 37.9063,270.6065 38.375,270.8565 C38.8438,271.1221 39.0156,271.3096 39.0781,271.669 C39.2031,272.3409 39.4531,272.5909 39.9844,272.5909 C40.2656,272.5909 40.5469,272.4502 40.7344,272.2315 C40.8594,272.0596 40.9063,271.8877 40.9063,271.4502 L40.9063,270.0909 C40.9063,269.669 40.8906,269.5284 40.7656,269.3565 C40.5938,269.1065 40.3125,268.9502 39.9844,268.9502 C39.6719,268.9502 39.4688,269.0596 39.25,269.3252 C38.0781,268.8252 37.6406,268.7159 36.6875,268.7159 C34.0156,268.7159 32,270.7315 32,273.3565 L32,274.4502 Z " fill="#000000"/><text fill="#000000" font-family="sans-serif" font-size="14" lengthAdjust="spacing" textLength="52" x="51" y="277.9">Analysis</text><line style="stroke:#181818;stroke-width:0.5;" x1="23" x2="105" y1="289.294" y2="289.294"/><line style="stroke:#181818;stroke-width:0.5;" x1="23" x2="105" y1="297.294" y2="297.294"/></g><!--MD5=[da7fc25461f009319ada69721cf8c2d1]
class Recorder--><g id="elem_Recorder"><rect fill="#F1F1F1" height="48" id="Recorder" rx="2.5" ry="2.5" style="stroke:#181818;stroke-width:0.5;" width="91" x="141.5" y="257.294"/><ellipse cx="156.5" cy="273.294" fill="#ADD1B2" rx="11" ry="11" style="stroke:#181818;stroke-width:1.0;"/><path d="M151.5,274.4502 C151.5,276.9502 153.6406,278.7627 156.5625,278.7627 C157.7969,278.7627 158.9688,278.4659 159.7188,277.9502 C160.3281,277.5284 160.6563,277.1065 160.6563,276.7002 C160.6563,276.2315 160.2344,275.8252 159.7344,275.8252 C159.5,275.8252 159.2813,275.9034 159.0781,276.1065 C158.6406,276.544 158.6406,276.544 158.4688,276.6377 C158.0156,276.8721 157.375,277.0127 156.6094,277.0127 C154.6094,277.0127 153.3281,275.9971 153.3281,274.419 L153.3281,273.3721 C153.3281,271.669 154.5469,270.4659 156.25,270.4659 C156.8281,270.4659 157.4063,270.6065 157.875,270.8565 C158.3438,271.1221 158.5156,271.3096 158.5781,271.669 C158.7031,272.3409 158.9531,272.5909 159.4844,272.5909 C159.7656,272.5909 160.0469,272.4502 160.2344,272.2315 C160.3594,272.0596 160.4063,271.8877 160.4063,271.4502 L160.4063,270.0909 C160.4063,269.669 160.3906,269.5284 160.2656,269.3565 C160.0938,269.1065 159.8125,268.9502 159.4844,268.9502 C159.1719,268.9502 158.9688,269.0596 158.75,269.3252 C157.5781,268.8252 157.1406,268.7159 156.1875,268.7159 C153.5156,268.7159 151.5,270.7315 151.5,273.3565 L151.5,274.4502 Z " fill="#000000"/><text fill="#000000" font-family="sans-serif" font-size="14" lengthAdjust="spacing" textLength="59" x="170.5" y="277.9">Recorder</text><line style="stroke:#181818;stroke-width:0.5;" x1="142.5" x2="231.5" y1="289.294" y2="289.294"/><line style="stroke:#181818;stroke-width:0.5;" x1="142.5" x2="231.5" y1="297.294" y2="297.294"/></g><!--MD5=[de853b39a30e94ea5f90241bcbd78441]
class ModelBuilder--><g id="elem_ModelBuilder"><rect fill="#F1F1F1" height="48" id="ModelBuilder" rx="2.5" ry="2.5" style="stroke:#181818;stroke-width:0.5;" width="115" x="69.5" y="41.294"/><ellipse cx="84.5" cy="57.294" fill="#ADD1B2" rx="11" ry="11" style="stroke:#181818;stroke-width:1.0;"/><path d="M79.5,58.4502 C79.5,60.9502 81.6406,62.7627 84.5625,62.7627 C85.7969,62.7627 86.9688,62.4659 87.7188,61.9502 C88.3281,61.5284 88.6563,61.1065 88.6563,60.7002 C88.6563,60.2315 88.2344,59.8252 87.7344,59.8252 C87.5,59.8252 87.2813,59.9034 87.0781,60.1065 C86.6406,60.544 86.6406,60.544 86.4688,60.6377 C86.0156,60.8721 85.375,61.0127 84.6094,61.0127 C82.6094,61.0127 81.3281,59.9971 81.3281,58.419 L81.3281,57.3721 C81.3281,55.669 82.5469,54.4659 84.25,54.4659 C84.8281,54.4659 85.4063,54.6065 85.875,54.8565 C86.3438,55.1221 86.5156,55.3096 86.5781,55.669 C86.7031,56.3409 86.9531,56.5909 87.4844,56.5909 C87.7656,56.5909 88.0469,56.4502 88.2344,56.2315 C88.3594,56.0596 88.4063,55.8877 88.4063,55.4502 L88.4063,54.0909 C88.4063,53.669 88.3906,53.5284 88.2656,53.3565 C88.0938,53.1065 87.8125,52.9502 87.4844,52.9502 C87.1719,52.9502 86.9688,53.0596 86.75,53.3252 C85.5781,52.8252 85.1406,52.7159 84.1875,52.7159 C81.5156,52.7159 79.5,54.7315 79.5,57.3565 L79.5,58.4502 Z " fill="#000000"/><text fill="#000000" font-family="sans-serif" font-size="14" lengthAdjust="spacing" textLength="83" x="98.5" y="61.9">ModelBuilder</text><line style="stroke:#181818;stroke-width:0.5;" x1="70.5" x2="183.5" y1="73.294" y2="73.294"/><line style="stroke:#181818;stroke-width:0.5;" x1="70.5" x2="183.5" y1="81.294" y2="81.294"/></g><!--MD5=[0644504cef8ea477ff0902b8a4fd0138]
class ReliabilityDomain--><g id="elem_ReliabilityDomain"><rect fill="#F1F1F1" height="48" id="ReliabilityDomain" rx="2.5" ry="2.5" style="stroke:#181818;stroke-width:0.5;" width="141" x="603.5" y="41.294"/><ellipse cx="618.5" cy="57.294" fill="#ADD1B2" rx="11" ry="11" style="stroke:#181818;stroke-width:1.0;"/><path d="M613.5,58.4502 C613.5,60.9502 615.6406,62.7627 618.5625,62.7627 C619.7969,62.7627 620.9688,62.4659 621.7188,61.9502 C622.3281,61.5284 622.6563,61.1065 622.6563,60.7002 C622.6563,60.2315 622.2344,59.8252 621.7344,59.8252 C621.5,59.8252 621.2813,59.9034 621.0781,60.1065 C620.6406,60.544 620.6406,60.544 620.4688,60.6377 C620.0156,60.8721 619.375,61.0127 618.6094,61.0127 C616.6094,61.0127 615.3281,59.9971 615.3281,58.419 L615.3281,57.3721 C615.3281,55.669 616.5469,54.4659 618.25,54.4659 C618.8281,54.4659 619.4063,54.6065 619.875,54.8565 C620.3438,55.1221 620.5156,55.3096 620.5781,55.669 C620.7031,56.3409 620.9531,56.5909 621.4844,56.5909 C621.7656,56.5909 622.0469,56.4502 622.2344,56.2315 C622.3594,56.0596 622.4063,55.8877 622.4063,55.4502 L622.4063,54.0909 C622.4063,53.669 622.3906,53.5284 622.2656,53.3565 C622.0938,53.1065 621.8125,52.9502 621.4844,52.9502 C621.1719,52.9502 620.9688,53.0596 620.75,53.3252 C619.5781,52.8252 619.1406,52.7159 618.1875,52.7159 C615.5156,52.7159 613.5,54.7315 613.5,57.3565 L613.5,58.4502 Z " fill="#000000"/><text fill="#000000" font-family="sans-serif" font-size="14" lengthAdjust="spacing" textLength="109" x="632.5" y="61.9">ReliabilityDomain</text><line style="stroke:#181818;stroke-width:0.5;" x1="604.5" x2="743.5" y1="73.294" y2="73.294"/><line style="stroke:#181818;stroke-width:0.5;" x1="604.5" x2="743.5" y1="81.294" y2="81.294"/></g><!--MD5=[6c4a8556bdb27702dd7a27a412a75956]
class ReliabilityAnalysis--><g id="elem_ReliabilityAnalysis"><rect fill="#F1F1F1" height="48" id="ReliabilityAnalysis" rx="2.5" ry="2.5" style="stroke:#181818;stroke-width:0.5;" width="144" x="602" y="149.294"/><ellipse cx="617" cy="165.294" fill="#ADD1B2" rx="11" ry="11" style="stroke:#181818;stroke-width:1.0;"/><path d="M612,166.4502 C612,168.9502 614.1406,170.7627 617.0625,170.7627 C618.2969,170.7627 619.4688,170.4659 620.2188,169.9502 C620.8281,169.5284 621.1563,169.1065 621.1563,168.7002 C621.1563,168.2315 620.7344,167.8252 620.2344,167.8252 C620,167.8252 619.7813,167.9034 619.5781,168.1065 C619.1406,168.544 619.1406,168.544 618.9688,168.6377 C618.5156,168.8721 617.875,169.0127 617.1094,169.0127 C615.1094,169.0127 613.8281,167.9971 613.8281,166.419 L613.8281,165.3721 C613.8281,163.669 615.0469,162.4659 616.75,162.4659 C617.3281,162.4659 617.9063,162.6065 618.375,162.8565 C618.8438,163.1221 619.0156,163.3096 619.0781,163.669 C619.2031,164.3409 619.4531,164.5909 619.9844,164.5909 C620.2656,164.5909 620.5469,164.4502 620.7344,164.2315 C620.8594,164.0596 620.9063,163.8877 620.9063,163.4502 L620.9063,162.0909 C620.9063,161.669 620.8906,161.5284 620.7656,161.3565 C620.5938,161.1065 620.3125,160.9502 619.9844,160.9502 C619.6719,160.9502 619.4688,161.0596 619.25,161.3252 C618.0781,160.8252 617.6406,160.7159 616.6875,160.7159 C614.0156,160.7159 612,162.7315 612,165.3565 L612,166.4502 Z " fill="#000000"/><text fill="#000000" font-family="sans-serif" font-size="14" lengthAdjust="spacing" textLength="112" x="631" y="169.9">ReliabilityAnalysis</text><line style="stroke:#181818;stroke-width:0.5;" x1="603" x2="745" y1="181.294" y2="181.294"/><line style="stroke:#181818;stroke-width:0.5;" x1="603" x2="745" y1="189.294" y2="189.294"/></g><!--MD5=[b8c4ce7f14b820fcf5c7d5eb1d10bb1a]
class FORMAnalysis--><g id="elem_FORMAnalysis"><rect fill="#F1F1F1" height="48" id="FORMAnalysis" rx="2.5" ry="2.5" style="stroke:#181818;stroke-width:0.5;" width="126" x="289" y="257.294"/><ellipse cx="304" cy="273.294" fill="#ADD1B2" rx="11" ry="11" style="stroke:#181818;stroke-width:1.0;"/><path d="M299,274.4502 C299,276.9502 301.1406,278.7627 304.0625,278.7627 C305.2969,278.7627 306.4688,278.4659 307.2188,277.9502 C307.8281,277.5284 308.1563,277.1065 308.1563,276.7002 C308.1563,276.2315 307.7344,275.8252 307.2344,275.8252 C307,275.8252 306.7813,275.9034 306.5781,276.1065 C306.1406,276.544 306.1406,276.544 305.9688,276.6377 C305.5156,276.8721 304.875,277.0127 304.1094,277.0127 C302.1094,277.0127 300.8281,275.9971 300.8281,274.419 L300.8281,273.3721 C300.8281,271.669 302.0469,270.4659 303.75,270.4659 C304.3281,270.4659 304.9063,270.6065 305.375,270.8565 C305.8438,271.1221 306.0156,271.3096 306.0781,271.669 C306.2031,272.3409 306.4531,272.5909 306.9844,272.5909 C307.2656,272.5909 307.5469,272.4502 307.7344,272.2315 C307.8594,272.0596 307.9063,271.8877 307.9063,271.4502 L307.9063,270.0909 C307.9063,269.669 307.8906,269.5284 307.7656,269.3565 C307.5938,269.1065 307.3125,268.9502 306.9844,268.9502 C306.6719,268.9502 306.4688,269.0596 306.25,269.3252 C305.0781,268.8252 304.6406,268.7159 303.6875,268.7159 C301.0156,268.7159 299,270.7315 299,273.3565 L299,274.4502 Z " fill="#000000"/><text fill="#000000" font-family="sans-serif" font-size="14" lengthAdjust="spacing" textLength="94" x="318" y="277.9">FORMAnalysis</text><line style="stroke:#181818;stroke-width:0.5;" x1="290" x2="414" y1="289.294" y2="289.294"/><line style="stroke:#181818;stroke-width:0.5;" x1="290" x2="414" y1="297.294" y2="297.294"/></g><!--MD5=[dc05b18cca7d5a574be0d83fa20110f6]
class SORMAnalysis--><g id="elem_SORMAnalysis"><rect fill="#F1F1F1" height="48" id="SORMAnalysis" rx="2.5" ry="2.5" style="stroke:#181818;stroke-width:0.5;" width="126" x="450" y="257.294"/><ellipse cx="465" cy="273.294" fill="#ADD1B2" rx="11" ry="11" style="stroke:#181818;stroke-width:1.0;"/><path d="M460,274.4502 C460,276.9502 462.1406,278.7627 465.0625,278.7627 C466.2969,278.7627 467.4688,278.4659 468.2188,277.9502 C468.8281,277.5284 469.1563,277.1065 469.1563,276.7002 C469.1563,276.2315 468.7344,275.8252 468.2344,275.8252 C468,275.8252 467.7813,275.9034 467.5781,276.1065 C467.1406,276.544 467.1406,276.544 466.9688,276.6377 C466.5156,276.8721 465.875,277.0127 465.1094,277.0127 C463.1094,277.0127 461.8281,275.9971 461.8281,274.419 L461.8281,273.3721 C461.8281,271.669 463.0469,270.4659 464.75,270.4659 C465.3281,270.4659 465.9063,270.6065 466.375,270.8565 C466.8438,271.1221 467.0156,271.3096 467.0781,271.669 C467.2031,272.3409 467.4531,272.5909 467.9844,272.5909 C468.2656,272.5909 468.5469,272.4502 468.7344,272.2315 C468.8594,272.0596 468.9063,271.8877 468.9063,271.4502 L468.9063,270.0909 C468.9063,269.669 468.8906,269.5284 468.7656,269.3565 C468.5938,269.1065 468.3125,268.9502 467.9844,268.9502 C467.6719,268.9502 467.4688,269.0596 467.25,269.3252 C466.0781,268.8252 465.6406,268.7159 464.6875,268.7159 C462.0156,268.7159 460,270.7315 460,273.3565 L460,274.4502 Z " fill="#000000"/><text fill="#000000" font-family="sans-serif" font-size="14" lengthAdjust="spacing" textLength="94" x="479" y="277.9">SORMAnalysis</text><line style="stroke:#181818;stroke-width:0.5;" x1="451" x2="575" y1="289.294" y2="289.294"/><line style="stroke:#181818;stroke-width:0.5;" x1="451" x2="575" y1="297.294" y2="297.294"/></g><!--MD5=[a399e61acfa565254c09d5c51cf90172]
class FOSMAnalysis--><g id="elem_FOSMAnalysis"><rect fill="#F1F1F1" height="48" id="FOSMAnalysis" rx="2.5" ry="2.5" style="stroke:#181818;stroke-width:0.5;" width="125" x="611.5" y="257.294"/><ellipse cx="626.5" cy="273.294" fill="#ADD1B2" rx="11" ry="11" style="stroke:#181818;stroke-width:1.0;"/><path d="M621.5,274.4502 C621.5,276.9502 623.6406,278.7627 626.5625,278.7627 C627.7969,278.7627 628.9688,278.4659 629.7188,277.9502 C630.3281,277.5284 630.6563,277.1065 630.6563,276.7002 C630.6563,276.2315 630.2344,275.8252 629.7344,275.8252 C629.5,275.8252 629.2813,275.9034 629.0781,276.1065 C628.6406,276.544 628.6406,276.544 628.4688,276.6377 C628.0156,276.8721 627.375,277.0127 626.6094,277.0127 C624.6094,277.0127 623.3281,275.9971 623.3281,274.419 L623.3281,273.3721 C623.3281,271.669 624.5469,270.4659 626.25,270.4659 C626.8281,270.4659 627.4063,270.6065 627.875,270.8565 C628.3438,271.1221 628.5156,271.3096 628.5781,271.669 C628.7031,272.3409 628.9531,272.5909 629.4844,272.5909 C629.7656,272.5909 630.0469,272.4502 630.2344,272.2315 C630.3594,272.0596 630.4063,271.8877 630.4063,271.4502 L630.4063,270.0909 C630.4063,269.669 630.3906,269.5284 630.2656,269.3565 C630.0938,269.1065 629.8125,268.9502 629.4844,268.9502 C629.1719,268.9502 628.9688,269.0596 628.75,269.3252 C627.5781,268.8252 627.1406,268.7159 626.1875,268.7159 C623.5156,268.7159 621.5,270.7315 621.5,273.3565 L621.5,274.4502 Z " fill="#000000"/><text fill="#000000" font-family="sans-serif" font-size="14" lengthAdjust="spacing" textLength="93" x="640.5" y="277.9">FOSMAnalysis</text><line style="stroke:#181818;stroke-width:0.5;" x1="612.5" x2="735.5" y1="289.294" y2="289.294"/><line style="stroke:#181818;stroke-width:0.5;" x1="612.5" x2="735.5" y1="297.294" y2="297.294"/></g><!--MD5=[37334204f4c4d1e4cd45c47c864203c8]
class OutCrossingAnalysis--><g id="elem_OutCrossingAnalysis"><rect fill="#F1F1F1" height="48" id="OutCrossingAnalysis" rx="2.5" ry="2.5" style="stroke:#181818;stroke-width:0.5;" width="163" x="771.5" y="257.294"/><ellipse cx="786.5" cy="273.294" fill="#ADD1B2" rx="11" ry="11" style="stroke:#181818;stroke-width:1.0;"/><path d="M781.5,274.4502 C781.5,276.9502 783.6406,278.7627 786.5625,278.7627 C787.7969,278.7627 788.9688,278.4659 789.7188,277.9502 C790.3281,277.5284 790.6563,277.1065 790.6563,276.7002 C790.6563,276.2315 790.2344,275.8252 789.7344,275.8252 C789.5,275.8252 789.2813,275.9034 789.0781,276.1065 C788.6406,276.544 788.6406,276.544 788.4688,276.6377 C788.0156,276.8721 787.375,277.0127 786.6094,277.0127 C784.6094,277.0127 783.3281,275.9971 783.3281,274.419 L783.3281,273.3721 C783.3281,271.669 784.5469,270.4659 786.25,270.4659 C786.8281,270.4659 787.4063,270.6065 787.875,270.8565 C788.3438,271.1221 788.5156,271.3096 788.5781,271.669 C788.7031,272.3409 788.9531,272.5909 789.4844,272.5909 C789.7656,272.5909 790.0469,272.4502 790.2344,272.2315 C790.3594,272.0596 790.4063,271.8877 790.4063,271.4502 L790.4063,270.0909 C790.4063,269.669 790.3906,269.5284 790.2656,269.3565 C790.0938,269.1065 789.8125,268.9502 789.4844,268.9502 C789.1719,268.9502 788.9688,269.0596 788.75,269.3252 C787.5781,268.8252 787.1406,268.7159 786.1875,268.7159 C783.5156,268.7159 781.5,270.7315 781.5,273.3565 L781.5,274.4502 Z " fill="#000000"/><text fill="#000000" font-family="sans-serif" font-size="14" lengthAdjust="spacing" textLength="131" x="800.5" y="277.9">OutCrossingAnalysis</text><line style="stroke:#181818;stroke-width:0.5;" x1="772.5" x2="933.5" y1="289.294" y2="289.294"/><line style="stroke:#181818;stroke-width:0.5;" x1="772.5" x2="933.5" y1="297.294" y2="297.294"/></g><!--MD5=[897fa8b81155e51c13efca8393b6d2cf]
class SamplingAnalysis--><g id="elem_SamplingAnalysis"><rect fill="#F1F1F1" height="48" id="SamplingAnalysis" rx="2.5" ry="2.5" style="stroke:#181818;stroke-width:0.5;" width="143" x="969.5" y="257.294"/><ellipse cx="984.5" cy="273.294" fill="#ADD1B2" rx="11" ry="11" style="stroke:#181818;stroke-width:1.0;"/><path d="M979.5,274.4502 C979.5,276.9502 981.6406,278.7627 984.5625,278.7627 C985.7969,278.7627 986.9688,278.4659 987.7188,277.9502 C988.3281,277.5284 988.6563,277.1065 988.6563,276.7002 C988.6563,276.2315 988.2344,275.8252 987.7344,275.8252 C987.5,275.8252 987.2813,275.9034 987.0781,276.1065 C986.6406,276.544 986.6406,276.544 986.4688,276.6377 C986.0156,276.8721 985.375,277.0127 984.6094,277.0127 C982.6094,277.0127 981.3281,275.9971 981.3281,274.419 L981.3281,273.3721 C981.3281,271.669 982.5469,270.4659 984.25,270.4659 C984.8281,270.4659 985.4063,270.6065 985.875,270.8565 C986.3438,271.1221 986.5156,271.3096 986.5781,271.669 C986.7031,272.3409 986.9531,272.5909 987.4844,272.5909 C987.7656,272.5909 988.0469,272.4502 988.2344,272.2315 C988.3594,272.0596 988.4063,271.8877 988.4063,271.4502 L988.4063,270.0909 C988.4063,269.669 988.3906,269.5284 988.2656,269.3565 C988.0938,269.1065 987.8125,268.9502 987.4844,268.9502 C987.1719,268.9502 986.9688,269.0596 986.75,269.3252 C985.5781,268.8252 985.1406,268.7159 984.1875,268.7159 C981.5156,268.7159 979.5,270.7315 979.5,273.3565 L979.5,274.4502 Z " fill="#000000"/><text fill="#000000" font-family="sans-serif" font-size="14" lengthAdjust="spacing" textLength="111" x="998.5" y="277.9">SamplingAnalysis</text><line style="stroke:#181818;stroke-width:0.5;" x1="970.5" x2="1111.5" y1="289.294" y2="289.294"/><line style="stroke:#181818;stroke-width:0.5;" x1="970.5" x2="1111.5" y1="297.294" y2="297.294"/></g><!--MD5=[386aa009c4c1369a4ec1fb868279dfca]
class SystemAnalysis--><g id="elem_SystemAnalysis"><rect fill="#F1F1F1" height="48" id="SystemAnalysis" rx="2.5" ry="2.5" style="stroke:#181818;stroke-width:0.5;" width="131" x="1147.5" y="257.294"/><ellipse cx="1162.5" cy="273.294" fill="#ADD1B2" rx="11" ry="11" style="stroke:#181818;stroke-width:1.0;"/><path d="M1157.5,274.4502 C1157.5,276.9502 1159.6406,278.7627 1162.5625,278.7627 C1163.7969,278.7627 1164.9688,278.4659 1165.7188,277.9502 C1166.3281,277.5284 1166.6563,277.1065 1166.6563,276.7002 C1166.6563,276.2315 1166.2344,275.8252 1165.7344,275.8252 C1165.5,275.8252 1165.2813,275.9034 1165.0781,276.1065 C1164.6406,276.544 1164.6406,276.544 1164.4688,276.6377 C1164.0156,276.8721 1163.375,277.0127 1162.6094,277.0127 C1160.6094,277.0127 1159.3281,275.9971 1159.3281,274.419 L1159.3281,273.3721 C1159.3281,271.669 1160.5469,270.4659 1162.25,270.4659 C1162.8281,270.4659 1163.4063,270.6065 1163.875,270.8565 C1164.3438,271.1221 1164.5156,271.3096 1164.5781,271.669 C1164.7031,272.3409 1164.9531,272.5909 1165.4844,272.5909 C1165.7656,272.5909 1166.0469,272.4502 1166.2344,272.2315 C1166.3594,272.0596 1166.4063,271.8877 1166.4063,271.4502 L1166.4063,270.0909 C1166.4063,269.669 1166.3906,269.5284 1166.2656,269.3565 C1166.0938,269.1065 1165.8125,268.9502 1165.4844,268.9502 C1165.1719,268.9502 1164.9688,269.0596 1164.75,269.3252 C1163.5781,268.8252 1163.1406,268.7159 1162.1875,268.7159 C1159.5156,268.7159 1157.5,270.7315 1157.5,273.3565 L1157.5,274.4502 Z " fill="#000000"/><text fill="#000000" font-family="sans-serif" font-size="14" lengthAdjust="spacing" textLength="99" x="1176.5" y="277.9">SystemAnalysis</text><line style="stroke:#181818;stroke-width:0.5;" x1="1148.5" x2="1277.5" y1="289.294" y2="289.294"/><line style="stroke:#181818;stroke-width:0.5;" x1="1148.5" x2="1277.5" y1="297.294" y2="297.294"/></g><!--MD5=[3adbe88912460d355ab7831fa9512d5a]
link Domain to Analysis--><g id="link_Domain_Analysis"><path codeLine="2" d="M113.33,197.294 C102.84,214.954 88.4,239.234 77.86,256.974 " fill="none" id="Domain-Analysis" style="stroke:#181818;stroke-width:1.0;"/></g><!--MD5=[e1163b5171eb3967ac0561fc1c02d66a]
link Domain to Recorder--><g id="link_Domain_Recorder"><path codeLine="3" d="M140.02,197.294 C150.01,214.954 163.76,239.234 173.8,256.974 " fill="none" id="Domain-Recorder" style="stroke:#181818;stroke-width:1.0;"/></g><!--MD5=[28a56055cd77074a9779f65df6a87636]
link ModelBuilder to Domain--><g id="link_ModelBuilder_Domain"><path codeLine="4" d="M127,89.294 C127,106.954 127,131.234 127,148.974 " fill="none" id="ModelBuilder-Domain" style="stroke:#181818;stroke-width:1.0;"/></g><!--MD5=[ffa99b309cd2a1cdee228a12eda61c5e]
link ReliabilityDomain to ReliabilityAnalysis--><g id="link_ReliabilityDomain_ReliabilityAnalysis"><path codeLine="8" d="M674,89.294 C674,106.954 674,131.234 674,148.974 " fill="none" id="ReliabilityDomain-ReliabilityAnalysis" style="stroke:#181818;stroke-width:1.0;"/></g><!--MD5=[cb830ca773eaccf87f5121ba57ede87e]
reverse link ReliabilityAnalysis to FORMAnalysis--><g id="link_ReliabilityAnalysis_FORMAnalysis"><path codeLine="9" d="M584.95,203.614 C531.05,221.354 463.61,243.554 415.18,259.494 " fill="none" id="ReliabilityAnalysis-backto-FORMAnalysis" style="stroke:#181818;stroke-width:1.0;"/><polygon fill="none" points="582.94,196.904,604.13,197.294,587.32,210.194,582.94,196.904" style="stroke:#181818;stroke-width:1.0;"/></g><!--MD5=[ec12cd64b80aeec7ac9c3b0b052bf2d2]
reverse link ReliabilityAnalysis to SORMAnalysis--><g id="link_ReliabilityAnalysis_SORMAnalysis"><path codeLine="10" d="M611.03,207.874 C585.29,223.924 557.13,242.734 537.4,257.154 " fill="none" id="ReliabilityAnalysis-backto-SORMAnalysis" style="stroke:#181818;stroke-width:1.0;"/><polygon fill="none" points="607.63,201.754,628.34,197.294,614.93,213.704,607.63,201.754" style="stroke:#181818;stroke-width:1.0;"/></g><!--MD5=[ec12cd64b80aeec7ac9c3b0b052bf2d2]
reverse link ReliabilityAnalysis to SORMAnalysis--><g id="link_ReliabilityAnalysis_SORMAnalysis"><path codeLine="11" d="M633.99,209.044 C611.33,224.824 583.15,243.074 559.52,257.154 " fill="none" id="ReliabilityAnalysis-backto-SORMAnalysis-1" style="stroke:#181818;stroke-width:1.0;"/><polygon fill="none" points="630.08,203.224,650.42,197.294,638.22,214.614,630.08,203.224" style="stroke:#181818;stroke-width:1.0;"/></g><!--MD5=[2edf9fabdff28c6a410eaee5dda3e14d]
reverse link ReliabilityAnalysis to FOSMAnalysis--><g id="link_ReliabilityAnalysis_FOSMAnalysis"><path codeLine="12" d="M674,217.314 C674,230.874 674,245.334 674,256.974 " fill="none" id="ReliabilityAnalysis-backto-FOSMAnalysis" style="stroke:#181818;stroke-width:1.0;"/><polygon fill="none" points="667,217.294,674,197.294,681,217.294,667,217.294" style="stroke:#181818;stroke-width:1.0;"/></g><!--MD5=[18985ec3e3229cb9bff0585bf26eb2c8]
reverse link ReliabilityAnalysis to OutCrossingAnalysis--><g id="link_ReliabilityAnalysis_OutCrossingAnalysis"><path codeLine="13" d="M730.32,207.644 C757.51,223.744 789.45,242.664 813.93,257.154 " fill="none" id="ReliabilityAnalysis-backto-OutCrossingAnalysis" style="stroke:#181818;stroke-width:1.0;"/><polygon fill="none" points="726.48,213.504,712.84,197.294,733.62,201.464,726.48,213.504" style="stroke:#181818;stroke-width:1.0;"/></g><!--MD5=[4a9837a43140050580a84a239887f361]
reverse link ReliabilityAnalysis to SamplingAnalysis--><g id="link_ReliabilityAnalysis_SamplingAnalysis"><path codeLine="14" d="M765.38,200.684 C828.45,218.904 911.12,242.784 969.41,259.614 " fill="none" id="ReliabilityAnalysis-backto-SamplingAnalysis" style="stroke:#181818;stroke-width:1.0;"/><polygon fill="none" points="763.34,207.384,746.07,195.114,767.23,193.934,763.34,207.384" style="stroke:#181818;stroke-width:1.0;"/></g><!--MD5=[e73702d09c2b13f7aadd1cde7b9bc037]
reverse link ReliabilityAnalysis to SystemAnalysis--><g id="link_ReliabilityAnalysis_SystemAnalysis"><path codeLine="15" d="M766.31,188.584 C858.78,203.484 1004.94,228.644 1130,257.294 C1135.68,258.594 1141.56,260.034 1147.44,261.544 " fill="none" id="ReliabilityAnalysis-backto-SystemAnalysis" style="stroke:#181818;stroke-width:1.0;"/><polygon fill="none" points="764.92,195.454,746.28,185.384,767.13,181.624,764.92,195.454" style="stroke:#181818;stroke-width:1.0;"/></g><!--MD5=[fbd082c2bfd9349adc9acf94aa52d584]
@startuml
package "OpenSees" #DDDDDD {
Domain - - Analysis 
Domain - - Recorder 
ModelBuilder - - Domain 
}

package "Reliability" #CCCCCC {
ReliabilityDomain - - ReliabilityAnalysis
ReliabilityAnalysis <|- - FORMAnalysis 
ReliabilityAnalysis <|- - SORMAnalysis 
ReliabilityAnalysis <|- - SORMAnalysis
ReliabilityAnalysis <|- - FOSMAnalysis 
ReliabilityAnalysis <|- - OutCrossingAnalysis 
ReliabilityAnalysis <|- - SamplingAnalysis
ReliabilityAnalysis <|- - SystemAnalysis 
}
@enduml

PlantUML version 1.2022.4(Sat Apr 09 06:29:17 PDT 2022)
(GPL source distribution)
Java Runtime: OpenJDK Runtime Environment
JVM: OpenJDK 64-Bit Server VM
Default Encoding: UTF-8
Language: en
Country: US
--></g></svg>