<?xml version="1.0" encoding="UTF-8" standalone="no"?><svg xmlns="http://www.w3.org/2000/svg" xmlns:xlink="http://www.w3.org/1999/xlink" contentStyleType="text/css" height="149px" preserveAspectRatio="none" style="width:733px;height:149px;background:#FFFFFF;" version="1.1" viewBox="0 0 733 149" width="733px" zoomAndPan="magnify"><defs/><g><!--MD5=[efcc6fd40d69a24a78971db51d1e5e4e]
class ElementLoad--><g id="elem_ElementLoad"><rect codeLine="1" fill="#F1F1F1" height="48" id="ElementLoad" rx="2.5" ry="2.5" style="stroke:#181818;stroke-width:0.5;" width="116" x="447" y="94.68"/><ellipse cx="462" cy="110.68" fill="#A9DCDF" rx="11" ry="11" style="stroke:#181818;stroke-width:1.0;"/><path d="M463.5313,112.6175 L463.8594,113.4144 L463.5781,113.4144 C463.125,113.4144 463,113.4456 462.8281,113.555 C462.5469,113.6956 462.375,113.9925 462.375,114.2894 C462.375,114.5863 462.5156,114.8363 462.75,115.0081 C462.9219,115.1331 463.1563,115.18 463.5781,115.18 L465.9375,115.18 C466.2969,115.18 466.5469,115.1488 466.6875,115.055 C466.9531,114.9144 467.125,114.6019 467.125,114.2894 C467.125,114.0238 466.9844,113.7581 466.75,113.5863 C466.5625,113.4613 466.4063,113.43 465.9531,113.4144 L462.5625,105.5863 L458.8438,105.5863 C458.3906,105.5863 458.25,105.6019 458.0781,105.7113 C457.8125,105.8831 457.6406,106.1644 457.6406,106.4613 C457.6406,106.7425 457.7813,107.0081 458.0313,107.18 C458.2031,107.305 458.3906,107.3363 458.8438,107.3363 L459.8125,107.3363 L457.2344,113.4144 C456.4844,113.4144 456.0781,113.7113 456.0781,114.2894 C456.0781,114.8988 456.4688,115.18 457.2656,115.18 L459.5313,115.18 C459.8906,115.18 460.1406,115.1488 460.2813,115.055 C460.5469,114.8988 460.7188,114.6019 460.7188,114.2894 C460.7188,114.0238 460.5781,113.7581 460.3438,113.5863 C460.1563,113.4456 460,113.4144 459.5313,113.4144 L459.2344,113.4144 L459.5781,112.6175 L463.5313,112.6175 Z M462.7656,110.8675 L460.3125,110.8675 L461.5469,107.9925 L462.7656,110.8675 Z " fill="#000000"/><text fill="#000000" font-family="sans-serif" font-size="14" font-style="italic" lengthAdjust="spacing" textLength="84" x="476" y="116.63">ElementLoad</text><line style="stroke:#181818;stroke-width:0.5;" x1="448" x2="562" y1="126.68" y2="126.68"/><line style="stroke:#181818;stroke-width:0.5;" x1="448" x2="562" y1="134.68" y2="134.68"/></g><!--MD5=[1607c3002aad8e2462dfde7f812aa8df]
class TimeSeries--><g id="elem_TimeSeries"><rect codeLine="2" fill="#F1F1F1" height="48" id="TimeSeries" rx="2.5" ry="2.5" style="stroke:#181818;stroke-width:0.5;" width="104" x="622" y="94.68"/><ellipse cx="637" cy="110.68" fill="#A9DCDF" rx="11" ry="11" style="stroke:#181818;stroke-width:1.0;"/><path d="M638.5313,112.6175 L638.8594,113.4144 L638.5781,113.4144 C638.125,113.4144 638,113.4456 637.8281,113.555 C637.5469,113.6956 637.375,113.9925 637.375,114.2894 C637.375,114.5863 637.5156,114.8363 637.75,115.0081 C637.9219,115.1331 638.1563,115.18 638.5781,115.18 L640.9375,115.18 C641.2969,115.18 641.5469,115.1488 641.6875,115.055 C641.9531,114.9144 642.125,114.6019 642.125,114.2894 C642.125,114.0238 641.9844,113.7581 641.75,113.5863 C641.5625,113.4613 641.4063,113.43 640.9531,113.4144 L637.5625,105.5863 L633.8438,105.5863 C633.3906,105.5863 633.25,105.6019 633.0781,105.7113 C632.8125,105.8831 632.6406,106.1644 632.6406,106.4613 C632.6406,106.7425 632.7813,107.0081 633.0313,107.18 C633.2031,107.305 633.3906,107.3363 633.8438,107.3363 L634.8125,107.3363 L632.2344,113.4144 C631.4844,113.4144 631.0781,113.7113 631.0781,114.2894 C631.0781,114.8988 631.4688,115.18 632.2656,115.18 L634.5313,115.18 C634.8906,115.18 635.1406,115.1488 635.2813,115.055 C635.5469,114.8988 635.7188,114.6019 635.7188,114.2894 C635.7188,114.0238 635.5781,113.7581 635.3438,113.5863 C635.1563,113.4456 635,113.4144 634.5313,113.4144 L634.2344,113.4144 L634.5781,112.6175 L638.5313,112.6175 Z M637.7656,110.8675 L635.3125,110.8675 L636.5469,107.9925 L637.7656,110.8675 Z " fill="#000000"/><text fill="#000000" font-family="sans-serif" font-size="14" font-style="italic" lengthAdjust="spacing" textLength="72" x="651" y="116.63">TimeSeries</text><line style="stroke:#181818;stroke-width:0.5;" x1="623" x2="725" y1="126.68" y2="126.68"/><line style="stroke:#181818;stroke-width:0.5;" x1="623" x2="725" y1="134.68" y2="134.68"/></g><!--MD5=[b2a017c0ddb7ba8753d2c03a7785c56c]
class LoadPattern--><g id="elem_LoadPattern"><rect fill="#F1F1F1" height="48" id="LoadPattern" rx="2.5" ry="2.5" style="stroke:#181818;stroke-width:0.5;" width="110" x="7" y="94.68"/><ellipse cx="22" cy="110.68" fill="#ADD1B2" rx="11" ry="11" style="stroke:#181818;stroke-width:1.0;"/><path d="M17,111.8363 C17,114.3363 19.1406,116.1488 22.0625,116.1488 C23.2969,116.1488 24.4688,115.8519 25.2188,115.3363 C25.8281,114.9144 26.1563,114.4925 26.1563,114.0863 C26.1563,113.6175 25.7344,113.2113 25.2344,113.2113 C25,113.2113 24.7813,113.2894 24.5781,113.4925 C24.1406,113.93 24.1406,113.93 23.9688,114.0238 C23.5156,114.2581 22.875,114.3988 22.1094,114.3988 C20.1094,114.3988 18.8281,113.3831 18.8281,111.805 L18.8281,110.7581 C18.8281,109.055 20.0469,107.8519 21.75,107.8519 C22.3281,107.8519 22.9063,107.9925 23.375,108.2425 C23.8438,108.5081 24.0156,108.6956 24.0781,109.055 C24.2031,109.7269 24.4531,109.9769 24.9844,109.9769 C25.2656,109.9769 25.5469,109.8363 25.7344,109.6175 C25.8594,109.4456 25.9063,109.2738 25.9063,108.8363 L25.9063,107.4769 C25.9063,107.055 25.8906,106.9144 25.7656,106.7425 C25.5938,106.4925 25.3125,106.3363 24.9844,106.3363 C24.6719,106.3363 24.4688,106.4456 24.25,106.7113 C23.0781,106.2113 22.6406,106.1019 21.6875,106.1019 C19.0156,106.1019 17,108.1175 17,110.7425 L17,111.8363 Z " fill="#000000"/><text fill="#000000" font-family="sans-serif" font-size="14" lengthAdjust="spacing" textLength="78" x="36" y="115.286">LoadPattern</text><line style="stroke:#181818;stroke-width:0.5;" x1="8" x2="116" y1="126.68" y2="126.68"/><line style="stroke:#181818;stroke-width:0.5;" x1="8" x2="116" y1="134.68" y2="134.68"/></g><!--MD5=[17101f9a2ebf3305426b781392cfb644]
class NodalLoad--><g id="elem_NodalLoad"><rect fill="#F1F1F1" height="48" id="NodalLoad" rx="2.5" ry="2.5" style="stroke:#181818;stroke-width:0.5;" width="101" x="310.5" y="94.68"/><ellipse cx="325.5" cy="110.68" fill="#ADD1B2" rx="11" ry="11" style="stroke:#181818;stroke-width:1.0;"/><path d="M320.5,111.8363 C320.5,114.3363 322.6406,116.1488 325.5625,116.1488 C326.7969,116.1488 327.9688,115.8519 328.7188,115.3363 C329.3281,114.9144 329.6563,114.4925 329.6563,114.0863 C329.6563,113.6175 329.2344,113.2113 328.7344,113.2113 C328.5,113.2113 328.2813,113.2894 328.0781,113.4925 C327.6406,113.93 327.6406,113.93 327.4688,114.0238 C327.0156,114.2581 326.375,114.3988 325.6094,114.3988 C323.6094,114.3988 322.3281,113.3831 322.3281,111.805 L322.3281,110.7581 C322.3281,109.055 323.5469,107.8519 325.25,107.8519 C325.8281,107.8519 326.4063,107.9925 326.875,108.2425 C327.3438,108.5081 327.5156,108.6956 327.5781,109.055 C327.7031,109.7269 327.9531,109.9769 328.4844,109.9769 C328.7656,109.9769 329.0469,109.8363 329.2344,109.6175 C329.3594,109.4456 329.4063,109.2738 329.4063,108.8363 L329.4063,107.4769 C329.4063,107.055 329.3906,106.9144 329.2656,106.7425 C329.0938,106.4925 328.8125,106.3363 328.4844,106.3363 C328.1719,106.3363 327.9688,106.4456 327.75,106.7113 C326.5781,106.2113 326.1406,106.1019 325.1875,106.1019 C322.5156,106.1019 320.5,108.1175 320.5,110.7425 L320.5,111.8363 Z " fill="#000000"/><text fill="#000000" font-family="sans-serif" font-size="14" lengthAdjust="spacing" textLength="69" x="339.5" y="115.286">NodalLoad</text><line style="stroke:#181818;stroke-width:0.5;" x1="311.5" x2="410.5" y1="126.68" y2="126.68"/><line style="stroke:#181818;stroke-width:0.5;" x1="311.5" x2="410.5" y1="134.68" y2="134.68"/></g><!--MD5=[95e1a2d5209ac864d79d2289e8993545]
class SP_Constraint--><g id="elem_SP_Constraint"><rect fill="#F1F1F1" height="48" id="SP_Constraint" rx="2.5" ry="2.5" style="stroke:#181818;stroke-width:0.5;" width="123" x="152.5" y="94.68"/><ellipse cx="167.5" cy="110.68" fill="#ADD1B2" rx="11" ry="11" style="stroke:#181818;stroke-width:1.0;"/><path d="M162.5,111.8363 C162.5,114.3363 164.6406,116.1488 167.5625,116.1488 C168.7969,116.1488 169.9688,115.8519 170.7188,115.3363 C171.3281,114.9144 171.6563,114.4925 171.6563,114.0863 C171.6563,113.6175 171.2344,113.2113 170.7344,113.2113 C170.5,113.2113 170.2813,113.2894 170.0781,113.4925 C169.6406,113.93 169.6406,113.93 169.4688,114.0238 C169.0156,114.2581 168.375,114.3988 167.6094,114.3988 C165.6094,114.3988 164.3281,113.3831 164.3281,111.805 L164.3281,110.7581 C164.3281,109.055 165.5469,107.8519 167.25,107.8519 C167.8281,107.8519 168.4063,107.9925 168.875,108.2425 C169.3438,108.5081 169.5156,108.6956 169.5781,109.055 C169.7031,109.7269 169.9531,109.9769 170.4844,109.9769 C170.7656,109.9769 171.0469,109.8363 171.2344,109.6175 C171.3594,109.4456 171.4063,109.2738 171.4063,108.8363 L171.4063,107.4769 C171.4063,107.055 171.3906,106.9144 171.2656,106.7425 C171.0938,106.4925 170.8125,106.3363 170.4844,106.3363 C170.1719,106.3363 169.9688,106.4456 169.75,106.7113 C168.5781,106.2113 168.1406,106.1019 167.1875,106.1019 C164.5156,106.1019 162.5,108.1175 162.5,110.7425 L162.5,111.8363 Z " fill="#000000"/><text fill="#000000" font-family="sans-serif" font-size="14" lengthAdjust="spacing" textLength="91" x="181.5" y="115.286">SP_Constraint</text><line style="stroke:#181818;stroke-width:0.5;" x1="153.5" x2="274.5" y1="126.68" y2="126.68"/><line style="stroke:#181818;stroke-width:0.5;" x1="153.5" x2="274.5" y1="134.68" y2="134.68"/></g><!--MD5=[adba7817459898614ead857874f90ad8]
reverse link LoadPattern to TimeSeries--><g id="link_LoadPattern_TimeSeries"><path codeLine="3" d="M92.03,85.18 C108.21,69.66 129.55,52.87 152.5,44.68 C238.52,13.99 476.11,18.12 563.5,44.68 C595.53,54.41 626.73,76.86 647.76,94.5 " fill="none" id="LoadPattern-backto-TimeSeries" style="stroke:#181818;stroke-width:1.0;"/><polygon fill="none" points="82.66,94.59,89.7278,93.1593,91.1255,86.085,84.0577,87.5157,82.66,94.59" style="stroke:#181818;stroke-width:1.0;"/><text fill="#000000" font-family="sans-serif" font-size="13" lengthAdjust="spacing" textLength="21" x="616.8861" y="83.1436">one</text></g><!--MD5=[5a08d9d651b3c4725ae8c678a58348e5]
reverse link LoadPattern to ElementLoad--><g id="link_LoadPattern_ElementLoad"><path codeLine="4" d="M92.03,85.18 C108.21,69.66 129.55,52.87 152.5,44.68 C260.92,6 302.78,6.86 411.5,44.68 C439.85,54.54 466.08,76.97 483.5,94.57 " fill="none" id="LoadPattern-backto-ElementLoad" style="stroke:#181818;stroke-width:1.0;"/><polygon fill="none" points="82.66,94.59,89.7278,93.1593,91.1255,86.085,84.0577,87.5157,82.66,94.59" style="stroke:#181818;stroke-width:1.0;"/></g><!--MD5=[35d38ab7723b624d3224cdc8bcf9d026]
reverse link LoadPattern to NodalLoad--><g id="link_LoadPattern_NodalLoad"><path codeLine="5" d="M92.03,85.18 C108.21,69.66 129.55,52.87 152.5,44.68 C203.99,26.31 224.27,25.59 275.5,44.68 C302.17,54.62 326.06,77.04 341.76,94.61 " fill="none" id="LoadPattern-backto-NodalLoad" style="stroke:#181818;stroke-width:1.0;"/><polygon fill="none" points="82.66,94.59,89.7278,93.1593,91.1255,86.085,84.0577,87.5157,82.66,94.59" style="stroke:#181818;stroke-width:1.0;"/></g><!--MD5=[085833811bb5fca6ea8f335a18f03ac9]
reverse link LoadPattern to SP_Constraint--><g id="link_LoadPattern_SP_Constraint"><path codeLine="6" d="M130.4,118.68 C137.73,118.68 145.05,118.68 152.38,118.68 " fill="none" id="LoadPattern-backto-SP_Constraint" style="stroke:#181818;stroke-width:1.0;"/><polygon fill="none" points="117.22,118.68,123.22,122.68,129.22,118.68,123.22,114.68,117.22,118.68" style="stroke:#181818;stroke-width:1.0;"/></g><!--MD5=[0076a9079260a4b071ac74a16afafac0]
@startuml
abstract class ElementLoad 
abstract class TimeSeries
LoadPattern o- "one" TimeSeries 
LoadPattern o- ElementLoad 
LoadPattern o- NodalLoad 
LoadPattern o- SP_Constraint 
@enduml

PlantUML version 1.2022.4(Sat Apr 09 06:29:17 PDT 2022)
(GPL source distribution)
Java Runtime: OpenJDK Runtime Environment
JVM: OpenJDK 64-Bit Server VM
Default Encoding: UTF-8
Language: en
Country: US
--></g></svg>