<?xml version="1.0" encoding="UTF-8" standalone="no"?><svg xmlns="http://www.w3.org/2000/svg" xmlns:xlink="http://www.w3.org/1999/xlink" contentStyleType="text/css" height="62px" preserveAspectRatio="none" style="width:266px;height:62px;background:#FFFFFF;" version="1.1" viewBox="0 0 266 62" width="266px" zoomAndPan="magnify"><defs/><g><!--MD5=[2af20914e88340f505bd0ca7d8f033bb]
class NDFiberSection--><g id="elem_NDFiberSection"><rect fill="#F1F1F1" height="48" id="NDFiberSection" rx="2.5" ry="2.5" style="stroke:#181818;stroke-width:0.5;" width="132" x="7" y="7"/><ellipse cx="22" cy="23" fill="#ADD1B2" rx="11" ry="11" style="stroke:#181818;stroke-width:1.0;"/><path d="M17,24.1563 C17,26.6563 19.1406,28.4688 22.0625,28.4688 C23.2969,28.4688 24.4688,28.1719 25.2188,27.6563 C25.8281,27.2344 26.1563,26.8125 26.1563,26.4063 C26.1563,25.9375 25.7344,25.5313 25.2344,25.5313 C25,25.5313 24.7813,25.6094 24.5781,25.8125 C24.1406,26.25 24.1406,26.25 23.9688,26.3438 C23.5156,26.5781 22.875,26.7188 22.1094,26.7188 C20.1094,26.7188 18.8281,25.7031 18.8281,24.125 L18.8281,23.0781 C18.8281,21.375 20.0469,20.1719 21.75,20.1719 C22.3281,20.1719 22.9063,20.3125 23.375,20.5625 C23.8438,20.8281 24.0156,21.0156 24.0781,21.375 C24.2031,22.0469 24.4531,22.2969 24.9844,22.2969 C25.2656,22.2969 25.5469,22.1563 25.7344,21.9375 C25.8594,21.7656 25.9063,21.5938 25.9063,21.1563 L25.9063,19.7969 C25.9063,19.375 25.8906,19.2344 25.7656,19.0625 C25.5938,18.8125 25.3125,18.6563 24.9844,18.6563 C24.6719,18.6563 24.4688,18.7656 24.25,19.0313 C23.0781,18.5313 22.6406,18.4219 21.6875,18.4219 C19.0156,18.4219 17,20.4375 17,23.0625 L17,24.1563 Z " fill="#000000"/><text fill="#000000" font-family="sans-serif" font-size="14" lengthAdjust="spacing" textLength="100" x="36" y="27.606">NDFiberSection</text><line style="stroke:#181818;stroke-width:0.5;" x1="8" x2="138" y1="39" y2="39"/><line style="stroke:#181818;stroke-width:0.5;" x1="8" x2="138" y1="47" y2="47"/></g><!--MD5=[90acbd06fb99457f8e7ff6c326a032da]
class NDFiber--><g id="elem_NDFiber"><rect fill="#F1F1F1" height="48" id="NDFiber" rx="2.5" ry="2.5" style="stroke:#181818;stroke-width:0.5;" width="85" x="174.5" y="7"/><ellipse cx="189.5" cy="23" fill="#ADD1B2" rx="11" ry="11" style="stroke:#181818;stroke-width:1.0;"/><path d="M184.5,24.1563 C184.5,26.6563 186.6406,28.4688 189.5625,28.4688 C190.7969,28.4688 191.9688,28.1719 192.7188,27.6563 C193.3281,27.2344 193.6563,26.8125 193.6563,26.4063 C193.6563,25.9375 193.2344,25.5313 192.7344,25.5313 C192.5,25.5313 192.2813,25.6094 192.0781,25.8125 C191.6406,26.25 191.6406,26.25 191.4688,26.3438 C191.0156,26.5781 190.375,26.7188 189.6094,26.7188 C187.6094,26.7188 186.3281,25.7031 186.3281,24.125 L186.3281,23.0781 C186.3281,21.375 187.5469,20.1719 189.25,20.1719 C189.8281,20.1719 190.4063,20.3125 190.875,20.5625 C191.3438,20.8281 191.5156,21.0156 191.5781,21.375 C191.7031,22.0469 191.9531,22.2969 192.4844,22.2969 C192.7656,22.2969 193.0469,22.1563 193.2344,21.9375 C193.3594,21.7656 193.4063,21.5938 193.4063,21.1563 L193.4063,19.7969 C193.4063,19.375 193.3906,19.2344 193.2656,19.0625 C193.0938,18.8125 192.8125,18.6563 192.4844,18.6563 C192.1719,18.6563 191.9688,18.7656 191.75,19.0313 C190.5781,18.5313 190.1406,18.4219 189.1875,18.4219 C186.5156,18.4219 184.5,20.4375 184.5,23.0625 L184.5,24.1563 Z " fill="#000000"/><text fill="#000000" font-family="sans-serif" font-size="14" lengthAdjust="spacing" textLength="53" x="203.5" y="27.606">NDFiber</text><line style="stroke:#181818;stroke-width:0.5;" x1="175.5" x2="258.5" y1="39" y2="39"/><line style="stroke:#181818;stroke-width:0.5;" x1="175.5" x2="258.5" y1="47" y2="47"/></g><!--MD5=[1dda45c40223ac2e41bcdb12653b30fb]
reverse link NDFiberSection to NDFiber--><g id="link_NDFiberSection_NDFiber"><path codeLine="1" d="M152.33,31 C159.69,31 167.04,31 174.4,31 " fill="none" id="NDFiberSection-backto-NDFiber" style="stroke:#181818;stroke-width:1.0;"/><polygon fill="none" points="139.09,31,145.09,35,151.09,31,145.09,27,139.09,31" style="stroke:#181818;stroke-width:1.0;"/></g><!--MD5=[7c266a2772785528f51b7972b1953bef]
@startuml
NDFiberSection o- NDFiber
@enduml

PlantUML version 1.2022.4(Sat Apr 09 06:29:17 PDT 2022)
(GPL source distribution)
Java Runtime: OpenJDK Runtime Environment
JVM: OpenJDK 64-Bit Server VM
Default Encoding: UTF-8
Language: en
Country: US
--></g></svg>