<?xml version="1.0" encoding="utf-8" standalone="no"?>
<!DOCTYPE svg PUBLIC "-//W3C//DTD SVG 1.1//EN"
  "http://www.w3.org/Graphics/SVG/1.1/DTD/svg11.dtd">
<svg xmlns:xlink="http://www.w3.org/1999/xlink" width="150.42pt" height="81.6744pt" viewBox="0 0 150.42 81.6744" xmlns="http://www.w3.org/2000/svg" version="1.1">
 <metadata>
  <rdf:RDF xmlns:dc="http://purl.org/dc/elements/1.1/" xmlns:cc="http://creativecommons.org/ns#" xmlns:rdf="http://www.w3.org/1999/02/22-rdf-syntax-ns#">
   <cc:Work>
    <dc:type rdf:resource="http://purl.org/dc/dcmitype/StillImage"/>
    <dc:date>2023-07-16T17:33:49.347259</dc:date>
    <dc:format>image/svg+xml</dc:format>
    <dc:creator>
     <cc:Agent>
      <dc:title>Matplotlib v3.7.1, https://matplotlib.org/</dc:title>
     </cc:Agent>
    </dc:creator>
   </cc:Work>
  </rdf:RDF>
 </metadata>
 <defs>
  <style type="text/css">*{stroke-linejoin: round; stroke-linecap: butt}</style>
 </defs>
 <g id="figure_1">
  <g id="patch_1">
   <path d="M 0 81.6744 
L 150.42 81.6744 
L 150.42 0 
L 0 0 
z
" style="fill: #ffffff"/>
  </g>
  <g id="axes_1">
   <g id="line2d_1">
    <path d="M 10.11 63.395914 
L 13.381357 63.367877 
L 14.035628 63.355277 
L 14.689899 62.288926 
L 15.344171 63.25377 
L 15.998442 60.46898 
L 16.652714 60.785134 
L 17.306985 63.469937 
L 18.615528 60.918228 
L 19.269799 54.090405 
L 19.92407 53.053722 
L 20.578342 47.814055 
L 21.232613 44.369105 
L 21.886884 47.544219 
L 22.541156 45.826432 
L 23.195427 41.816822 
L 23.849698 40.163888 
L 24.50397 36.909202 
L 25.158241 38.092576 
L 25.812513 36.088252 
L 26.466784 13.070232 
L 27.121055 18.016967 
L 27.775327 24.562078 
L 28.429598 6.9852 
L 29.083869 29.355449 
L 29.738141 41.1055 
L 30.392412 31.3286 
L 31.046683 27.261937 
L 31.700955 21.052009 
L 32.355226 33.042496 
L 33.009497 37.639908 
L 33.663769 30.877299 
L 34.31804 29.223023 
L 34.972312 32.433356 
L 35.626583 31.358033 
L 36.280854 28.568681 
L 36.935126 32.814111 
L 37.589397 30.499253 
L 38.243668 27.288816 
L 38.89794 18.572285 
L 39.552211 18.45466 
L 40.206482 23.672193 
L 40.860754 23.474757 
L 41.515025 19.192092 
L 42.169296 16.829792 
L 42.823568 34.096647 
L 43.477839 36.975536 
L 44.132111 40.438402 
L 44.786382 40.674461 
L 45.440653 42.941557 
L 46.094925 46.279058 
L 46.749196 45.955618 
L 47.403467 51.563792 
L 48.057739 52.812422 
L 48.71201 44.171968 
L 49.366281 38.679718 
L 50.020553 37.103248 
L 50.674824 39.693323 
L 51.329095 45.454847 
L 51.983367 45.58346 
L 52.637638 47.435027 
L 53.946181 51.761517 
L 54.600452 52.777055 
L 55.908995 55.362871 
L 57.871809 59.98528 
L 58.52608 61.67294 
L 59.180352 62.952108 
L 59.834623 61.655622 
L 60.488894 61.345237 
L 61.143166 62.26672 
L 61.797437 62.551272 
L 62.451709 63.069105 
L 63.760251 64.523133 
L 66.377337 67.952136 
L 67.031608 68.32319 
L 67.685879 68.084147 
L 68.340151 67.56194 
L 68.994422 67.376972 
L 69.648693 67.485761 
L 70.302965 67.85467 
L 70.957236 68.467162 
L 71.611508 69.246363 
L 72.265779 69.654477 
L 74.228593 68.871636 
L 75.537136 68.515597 
L 77.49995 68.128004 
L 78.808492 67.641346 
L 80.117035 67.400584 
L 81.425578 67.430157 
L 82.734121 67.89418 
L 84.042663 68.476834 
L 84.696935 68.552289 
L 85.351206 68.773878 
L 87.31402 68.975379 
L 88.622563 68.743474 
L 90.585377 68.782947 
L 93.202462 69.139127 
L 95.165276 69.691468 
L 95.819548 69.916171 
L 98.436633 69.785876 
L 99.745176 69.766929 
L 101.053719 70.007813 
L 101.70799 70.251082 
L 102.362261 70.28755 
L 105.633618 69.47465 
L 108.250704 69.032528 
L 110.867789 68.796165 
L 113.484874 68.763752 
L 116.756231 68.927249 
L 118.719045 69.032225 
L 121.336131 69.119869 
L 125.261759 69.52604 
L 127.878844 68.66129 
L 129.187387 68.413147 
L 130.49593 68.332148 
L 131.804472 68.416197 
L 133.113015 68.655124 
L 140.31 70.646991 
L 140.31 70.646991 
" clip-path="url(#p47a7f35569)" style="fill: none; stroke: #000000; stroke-width: 0.2; stroke-linecap: square"/>
   </g>
   <g id="line2d_2">
    <path d="M 10.11 63.39635 
L 13.381357 63.386384 
L 14.035628 63.359201 
L 14.689899 62.920154 
L 15.344171 63.318559 
L 15.998442 61.081902 
L 16.652714 61.312579 
L 17.306985 63.279801 
L 17.961256 63.025001 
L 18.615528 60.81318 
L 19.269799 55.961682 
L 19.92407 54.241133 
L 20.578342 50.232362 
L 21.232613 48.372946 
L 21.886884 49.010066 
L 22.541156 48.402895 
L 23.195427 44.998739 
L 23.849698 42.301966 
L 24.50397 42.662441 
L 25.158241 45.49552 
L 25.812513 45.386182 
L 26.466784 39.852532 
L 27.121055 40.632247 
L 27.775327 35.302848 
L 28.429598 32.695364 
L 29.083869 42.860789 
L 29.738141 49.965664 
L 30.392412 47.148537 
L 31.046683 37.102271 
L 31.700955 33.967454 
L 32.355226 38.685914 
L 33.009497 41.366417 
L 33.663769 39.891674 
L 34.31804 39.724369 
L 34.972312 41.221746 
L 35.626583 42.168487 
L 36.280854 42.181237 
L 36.935126 40.896111 
L 38.243668 37.938559 
L 38.89794 36.86517 
L 39.552211 34.372341 
L 40.206482 32.970569 
L 40.860754 33.553225 
L 42.169296 38.456503 
L 42.823568 40.093005 
L 43.477839 42.486956 
L 45.440653 51.431684 
L 46.094925 54.530164 
L 46.749196 56.668896 
L 47.403467 57.617793 
L 48.057739 55.592554 
L 48.71201 52.258457 
L 49.366281 50.164666 
L 50.020553 50.157328 
L 50.674824 52.49605 
L 51.329095 54.048962 
L 51.983367 54.23103 
L 53.29191 57.318032 
L 54.600452 58.674704 
L 55.908995 60.570872 
L 59.180352 65.96876 
L 59.834623 66.598989 
L 60.488894 66.734161 
L 61.143166 66.531157 
L 61.797437 66.52523 
L 62.451709 66.683304 
L 63.760251 67.334757 
L 67.685879 69.692677 
L 68.994422 70.148628 
L 70.302965 70.336923 
L 72.265779 70.257937 
L 76.191407 69.984942 
L 78.154221 70.120733 
L 80.117035 70.487085 
L 86.005477 72.043682 
L 89.276834 71.689517 
L 91.239648 71.734197 
L 93.202462 72.095296 
L 95.165276 72.576308 
L 96.473819 72.655963 
L 105.633618 71.166367 
L 108.904975 70.904557 
L 120.027588 70.590818 
L 123.953216 70.895682 
L 133.767286 72.07771 
L 139.655729 73.274628 
L 140.31 73.37664 
L 140.31 73.37664 
" clip-path="url(#p47a7f35569)" style="fill: none; stroke-dasharray: 0.74,0.32; stroke-dashoffset: 0; stroke: #ff0000; stroke-width: 0.2"/>
   </g>
   <g id="line2d_3">
    <path d="M 10.11 63.397081 
L 13.381357 63.400477 
L 15.344171 63.362579 
L 15.998442 61.898973 
L 16.652714 62.061068 
L 17.306985 63.22968 
L 17.961256 63.183937 
L 18.615528 60.910262 
L 19.269799 57.560841 
L 19.92407 55.5912 
L 20.578342 52.826529 
L 21.232613 51.580274 
L 22.541156 50.59511 
L 23.849698 47.267098 
L 24.50397 48.190272 
L 25.158241 51.143685 
L 25.812513 51.283149 
L 26.466784 49.507916 
L 27.121055 49.188813 
L 27.775327 47.137251 
L 28.429598 47.607139 
L 29.083869 51.007847 
L 29.738141 51.711803 
L 30.392412 50.156789 
L 31.046683 47.154757 
L 31.700955 46.017454 
L 32.355226 47.606478 
L 33.009497 48.792732 
L 33.663769 47.981785 
L 34.31804 47.78251 
L 34.972312 48.659946 
L 35.626583 50.168262 
L 36.280854 50.340372 
L 36.935126 49.37834 
L 38.89794 44.847834 
L 39.552211 44.24897 
L 40.206482 44.110445 
L 40.860754 45.367972 
L 42.169296 46.430771 
L 42.823568 47.663056 
L 43.477839 49.346924 
L 44.786382 53.645806 
L 46.749196 60.445683 
L 47.403467 61.078869 
L 48.057739 60.658342 
L 48.71201 60.074161 
L 49.366281 60.130089 
L 50.020553 60.839549 
L 50.674824 62.497096 
L 51.329095 62.444537 
L 51.983367 62.694233 
L 52.637638 63.667444 
L 53.29191 64.115461 
L 53.946181 64.367637 
L 55.254724 65.277019 
L 57.217538 67.22937 
L 58.52608 68.6787 
L 60.488894 69.993558 
L 63.760251 70.060988 
L 70.302965 71.277281 
L 80.771307 72.299184 
L 88.622563 73.423107 
L 91.89392 73.59674 
L 95.819548 73.560969 
L 104.325075 73.213952 
L 110.213518 72.594405 
L 114.793417 72.374358 
L 119.373317 72.438746 
L 123.298945 72.702993 
L 129.841658 73.438537 
L 140.31 74.6892 
L 140.31 74.6892 
" clip-path="url(#p47a7f35569)" style="fill: none; stroke-dasharray: 0.2,0.33; stroke-dashoffset: 0; stroke: #0000ff; stroke-width: 0.2"/>
   </g>
  </g>
 </g>
 <defs>
  <clipPath id="p47a7f35569">
   <rect x="3.6" y="3.6" width="143.22" height="74.4744"/>
  </clipPath>
 </defs>
</svg>
