<?xml version="1.0" encoding="UTF-8" standalone="no"?>
<!-- Created with Inkscape (http://www.inkscape.org/) -->

<svg
   version="1.1"
   id="svg2498"
   xml:space="preserve"
   width="1056"
   height="816"
   viewBox="0 0 1056 816"
   sodipodi:docname="UCD_CG_Bricks_2up.svg"
   inkscape:version="1.1 (c68e22c387, 2021-05-23)"
   xmlns:inkscape="http://www.inkscape.org/namespaces/inkscape"
   xmlns:sodipodi="http://sodipodi.sourceforge.net/DTD/sodipodi-0.dtd"
   xmlns="http://www.w3.org/2000/svg"
   xmlns:svg="http://www.w3.org/2000/svg"><defs
     id="defs2502"><clipPath
       clipPathUnits="userSpaceOnUse"
       id="clipPath2516"><path
         d="M 5622.35,0 V 3960 H 497.645 V 0 Z"
         id="path2514" /></clipPath><clipPath
       clipPathUnits="userSpaceOnUse"
       id="clipPath2728"><path
         d="M 3255.38,1168.32 H 4379.62 V 2818.96 H 3255.38 Z m 481.64,199.24 v -20 h 47.99 l -39.99,10 39.99,10 z"
         clip-rule="evenodd"
         id="path2726" /></clipPath><clipPath
       clipPathUnits="userSpaceOnUse"
       id="clipPath2740"><path
         d="M 3255.38,1168.32 H 4379.62 V 2818.96 H 3255.38 Z"
         id="path2738" /></clipPath><clipPath
       clipPathUnits="userSpaceOnUse"
       id="clipPath2750"><path
         d="M 3255.38,1168.32 H 4379.62 V 2818.96 H 3255.38 Z m 794.06,456.67 h -19.99 v -47.98 l 9.99,39.99 10,-39.99 z"
         clip-rule="evenodd"
         id="path2748" /></clipPath><clipPath
       clipPathUnits="userSpaceOnUse"
       id="clipPath2762"><path
         d="M 3255.38,1168.32 H 4379.62 V 2818.96 H 3255.38 Z"
         id="path2760" /></clipPath><clipPath
       clipPathUnits="userSpaceOnUse"
       id="clipPath2772"><path
         d="M 3255,1168 V 2819 H 4380 V 1168 Z m 962,2 v -1 h 9 v 1 h 1 v 1 h 1 v 1 h 1 v 1 h 1 v 1 h 1 v 1 h 1 v 1 h 1 v 1 h 1 v 2 h -1 v 1 h -1 v 1 h -1 v 1 h -1 v 1 h -1 v 1 h -1 v 1 h -1 v 1 h -1 v 1 h -1 v 1 h -1 v 1 h -1 v 1 h -1 v 1 h -1 v 1 h -1 v 1 h -1 v 1 h -1 v 1 h -1 v 1 h -1 v 1 h -1 v 1 h -1 v 1 h -1 v 1 h -1 v 1 h -1 v 1 h -1 v 1 h -1 v 1 h -1 v 1 h -1 v 1 h -1 v -1 h 1 v -1 h 1 v -2 h 1 v -2 h 1 v -1 h 1 v -2 h 1 v -2 h 1 v -1 h 1 v -2 h 1 v -2 h 1 v -1 h 1 v -2 h 1 v -2 h 1 v -1 h 1 v -2 h 1 v -2 h 1 v -1 h 1 v -2 h 1 v -1 h -2 v 1 h -2 v 1 h -2 v 1 h -1 v 1 h -2 v 1 h -2 v 1 h -1 v 1 h -2 v 1 h -2 v 1 h -1 v 1 h -2 v 1 h -2 v 1 h -2 v 1 h -1 v 1 h -2 v 1 h -2 v 1 h -1 v 1 h -1 v -1 h 1 v -1 h 1 v -1 h 1 v -1 h 1 v -1 h 1 v -1 h 1 v -1 h 1 v -1 h 1 v -1 h 1 v -1 h 1 v -1 h 1 v -1 h 1 v -1 h 1 v -1 h 1 v -1 h 1 v -1 h 1 v -1 h 1 v -1 h 1 v -1 h 1 v -1 h 1 v -1 h 1 v -1 h 1 v -1 z"
         clip-rule="evenodd"
         id="path2770" /></clipPath><clipPath
       clipPathUnits="userSpaceOnUse"
       id="clipPath2784"><path
         d="M 3255.38,1168.32 H 4379.62 V 2818.96 H 3255.38 Z"
         id="path2782" /></clipPath><clipPath
       clipPathUnits="userSpaceOnUse"
       id="clipPath2840"><path
         d="M 3255.38,1168.32 H 4379.62 V 2818.96 H 3255.38 Z m 1055.5,540.65 14.99,13.17 -31.66,35.99 19,-36.49 -33.99,23.32 z"
         clip-rule="evenodd"
         id="path2838" /></clipPath><clipPath
       clipPathUnits="userSpaceOnUse"
       id="clipPath2852"><path
         d="M 3255.38,1168.32 H 4379.62 V 2818.96 H 3255.38 Z"
         id="path2850" /></clipPath><clipPath
       clipPathUnits="userSpaceOnUse"
       id="clipPath2862"><path
         d="M 3255.38,1168.32 H 4379.62 V 2818.96 H 3255.38 Z m 54.74,1074.02 -1.16,-19.99 47.99,-2.67 -39.33,12.33 40.33,7.67 z"
         clip-rule="evenodd"
         id="path2860" /></clipPath><clipPath
       clipPathUnits="userSpaceOnUse"
       id="clipPath2874"><path
         d="M 3255.38,1168.32 H 4379.62 V 2818.96 H 3255.38 Z"
         id="path2872" /></clipPath><clipPath
       clipPathUnits="userSpaceOnUse"
       id="clipPath2884"><path
         d="M 3255.38,1168.32 H 4379.62 V 2818.96 H 3255.38 Z m 866.71,1550.9 -19.16,5.67 -13.5,-46.16 21,35.66 -1.84,-41.32 z"
         clip-rule="evenodd"
         id="path2882" /></clipPath><clipPath
       clipPathUnits="userSpaceOnUse"
       id="clipPath2896"><path
         d="M 3255.38,1168.32 H 4379.62 V 2818.96 H 3255.38 Z"
         id="path2894" /></clipPath><clipPath
       clipPathUnits="userSpaceOnUse"
       id="clipPath2958"><path
         d="M 5622.35,0 V 3960 H 497.645 V 0 Z"
         id="path2956" /></clipPath><clipPath
       clipPathUnits="userSpaceOnUse"
       id="clipPath2984"><path
         d="M 497,3960 V 7920 H 5623 V 3960 Z"
         id="path2982" /></clipPath><clipPath
       clipPathUnits="userSpaceOnUse"
       id="clipPath3186"><path
         d="M 2780.82,5128.32 H 3905.06 V 6778.96 H 2780.82 Z m 481.64,199.24 v -20 h 47.99 l -39.99,10 39.99,10 z"
         clip-rule="evenodd"
         id="path3184" /></clipPath><clipPath
       clipPathUnits="userSpaceOnUse"
       id="clipPath3198"><path
         d="M 2780.82,5128.32 H 3905.06 V 6778.96 H 2780.82 Z"
         id="path3196" /></clipPath><clipPath
       clipPathUnits="userSpaceOnUse"
       id="clipPath3208"><path
         d="M 2780.82,5128.32 H 3905.06 V 6778.96 H 2780.82 Z m 794.06,456.67 h -19.99 v -47.98 l 9.99,39.99 10,-39.99 z"
         clip-rule="evenodd"
         id="path3206" /></clipPath><clipPath
       clipPathUnits="userSpaceOnUse"
       id="clipPath3220"><path
         d="M 2780.82,5128.32 H 3905.06 V 6778.96 H 2780.82 Z"
         id="path3218" /></clipPath><clipPath
       clipPathUnits="userSpaceOnUse"
       id="clipPath3230"><path
         d="M 2780,5128 V 6779 H 3906 V 5128 Z m 962,2 v -1 h 10 v 1 h 1 v 1 h 1 v 1 h 1 v 1 h 1 v 1 h 1 v 1 h 1 v 1 h 1 v 1 h 1 v 1 h -1 v 1 h -1 v 1 h -1 v 1 h -1 v 1 h -1 v 1 h -1 v 1 h -1 v 1 h -1 v 1 h -1 v 1 h -1 v 1 h -1 v 1 h -1 v 1 h -1 v 1 h -1 v 1 h -1 v 1 h -1 v 1 h -1 v 1 h -1 v 1 h -1 v 1 h -1 v 1 h -1 v 1 h -1 v 1 h -1 v 1 h -1 v 1 h -1 v 1 h -1 v 1 h -1 v 1 h -1 v -1 h 1 v -1 h 1 v -2 h 1 v -2 h 1 v -1 h 1 v -2 h 1 v -2 h 1 v -1 h 1 v -2 h 1 v -2 h 1 v -1 h 1 v -2 h 1 v -2 h 1 v -1 h 1 v -2 h 1 v -2 h 1 v -1 h 1 v -2 h -2 v 1 h -2 v 1 h -1 v 1 h -2 v 1 h -2 v 1 h -1 v 1 h -2 v 1 h -2 v 1 h -1 v 1 h -2 v 1 h -2 v 1 h -1 v 1 h -2 v 1 h -2 v 1 h -1 v 1 h -2 v 1 h -2 v 1 h -1 v 1 h -1 v -1 h 1 v -1 h 1 v -1 h 1 v -1 h 1 v -1 h 1 v -1 h 1 v -1 h 1 v -1 h 1 v -1 h 1 v -1 h 1 v -1 h 1 v -1 h 1 v -1 h 1 v -1 h 1 v -1 h 1 v -1 h 1 v -1 h 1 v -1 h 1 v -1 h 1 v -1 h 1 v -1 h 1 v -1 h 1 v -1 h 1 v -1 z"
         clip-rule="evenodd"
         id="path3228" /></clipPath><clipPath
       clipPathUnits="userSpaceOnUse"
       id="clipPath3242"><path
         d="M 2780.82,5128.32 H 3905.06 V 6778.96 H 2780.82 Z"
         id="path3240" /></clipPath><clipPath
       clipPathUnits="userSpaceOnUse"
       id="clipPath3346"><path
         d="M 2780.82,5128.32 H 3905.06 V 6778.96 H 2780.82 Z m 1055.5,540.65 14.99,13.17 -31.66,35.99 19,-36.49 -33.99,23.32 z"
         clip-rule="evenodd"
         id="path3344" /></clipPath><clipPath
       clipPathUnits="userSpaceOnUse"
       id="clipPath3358"><path
         d="M 2780.82,5128.32 H 3905.06 V 6778.96 H 2780.82 Z"
         id="path3356" /></clipPath><clipPath
       clipPathUnits="userSpaceOnUse"
       id="clipPath3368"><path
         d="M 2780.82,5128.32 H 3905.06 V 6778.96 H 2780.82 Z m 54.74,1074.02 -1.16,-19.99 47.99,-2.67 -39.33,12.33 40.33,7.67 z"
         clip-rule="evenodd"
         id="path3366" /></clipPath><clipPath
       clipPathUnits="userSpaceOnUse"
       id="clipPath3380"><path
         d="M 2780.82,5128.32 H 3905.06 V 6778.96 H 2780.82 Z"
         id="path3378" /></clipPath><clipPath
       clipPathUnits="userSpaceOnUse"
       id="clipPath3390"><path
         d="M 2780.82,5128.32 H 3905.06 V 6778.96 H 2780.82 Z m 866.71,1550.9 -19.16,5.67 -13.5,-46.16 21,35.66 -1.84,-41.32 z"
         clip-rule="evenodd"
         id="path3388" /></clipPath><clipPath
       clipPathUnits="userSpaceOnUse"
       id="clipPath3402"><path
         d="M 2780.82,5128.32 H 3905.06 V 6778.96 H 2780.82 Z"
         id="path3400" /></clipPath><clipPath
       clipPathUnits="userSpaceOnUse"
       id="clipPath3490"><path
         d="M 497,3960 V 7920 H 5623 V 3960 Z"
         id="path3488" /></clipPath></defs><sodipodi:namedview
     id="namedview2500"
     pagecolor="#ffffff"
     bordercolor="#666666"
     borderopacity="1.0"
     inkscape:pageshadow="2"
     inkscape:pageopacity="0.0"
     inkscape:pagecheckerboard="0"
     showgrid="false"
     inkscape:zoom="1.0698529"
     inkscape:cx="505.20962"
     inkscape:cy="407.06529"
     inkscape:window-width="1920"
     inkscape:window-height="1000"
     inkscape:window-x="-11"
     inkscape:window-y="-11"
     inkscape:window-maximized="1"
     inkscape:current-layer="g2504" /><g
     id="g2504"
     inkscape:groupmode="layer"
     inkscape:label="UCD_CG_OpenSees_Commands_2up"
     transform="matrix(0,1.3333333,1.3333333,0,0,0)"><g
       id="g2508"
       transform="matrix(0.1,0,0,0.1,-235.5464,214.51547)" /><g
       id="g2722"
       transform="matrix(0.13692895,0,0,0.13692895,-267.90921,-76.21906)"><g
         id="g2724"
         clip-path="url(#clipPath2728)"><path
           d="M 4109.43,1357.56 H 3739.52"
           style="fill:#000000;fill-opacity:1;fill-rule:evenodd;stroke:none"
           id="path2730" /><path
           d="M 4109.43,1357.56 H 3739.52"
           style="fill:none;stroke:#000000;stroke-width:2.49938;stroke-linecap:butt;stroke-linejoin:miter;stroke-miterlimit:10;stroke-dasharray:none;stroke-opacity:1"
           id="path2732" /></g></g><g
       id="g2734"
       transform="matrix(0.13692895,0,0,0.13692895,-267.90921,-76.21906)"><g
         id="g2736"
         clip-path="url(#clipPath2740)"><path
           d="m 3785.01,1367.56 -39.99,-10 39.99,-10"
           style="fill:none;stroke:#000000;stroke-width:2.49938;stroke-linecap:butt;stroke-linejoin:miter;stroke-miterlimit:10;stroke-dasharray:none;stroke-opacity:1"
           id="path2742" /></g></g><g
       id="g2744"
       transform="matrix(0.13692895,0,0,0.13692895,-267.90921,-76.21906)"><g
         id="g2746"
         clip-path="url(#clipPath2750)"><path
           d="m 4039.44,1292.58 v 329.91"
           style="fill:#000000;fill-opacity:1;fill-rule:evenodd;stroke:none"
           id="path2752" /><path
           d="m 4039.44,1292.58 v 329.91"
           style="fill:none;stroke:#000000;stroke-width:2.49938;stroke-linecap:butt;stroke-linejoin:miter;stroke-miterlimit:10;stroke-dasharray:none;stroke-opacity:1"
           id="path2754" /></g></g><g
       id="g2756"
       transform="matrix(0.13692895,0,0,0.13692895,-267.90921,-76.21906)"><g
         id="g2758"
         clip-path="url(#clipPath2762)"><path
           d="m 4049.44,1577.01 -10,39.99 -9.99,-39.99"
           style="fill:none;stroke:#000000;stroke-width:2.49938;stroke-linecap:butt;stroke-linejoin:miter;stroke-miterlimit:10;stroke-dasharray:none;stroke-opacity:1"
           id="path2764" /></g></g><g
       id="g2766"
       transform="matrix(0.13692895,0,0,0.13692895,-267.90921,-76.21906)"><g
         id="g2768"
         clip-path="url(#clipPath2772)"><path
           d="M 4003.12,1396.22 4226.9,1172.61"
           style="fill:#000000;fill-opacity:1;fill-rule:evenodd;stroke:none"
           id="path2774" /><path
           d="M 4003.12,1396.22 4226.9,1172.61"
           style="fill:none;stroke:#000000;stroke-width:2.49938;stroke-linecap:butt;stroke-linejoin:miter;stroke-miterlimit:10;stroke-dasharray:none;stroke-opacity:1"
           id="path2776" /></g></g><g
       id="g2778"
       transform="matrix(0.13692895,0,0,0.13692895,-267.90921,-76.21906)"><g
         id="g2780"
         clip-path="url(#clipPath2784)"><path
           d="m 4187.57,1197.6 35.49,-21.16 -21.32,35.32"
           style="fill:none;stroke:#000000;stroke-width:2.49938;stroke-linecap:butt;stroke-linejoin:miter;stroke-miterlimit:10;stroke-dasharray:none;stroke-opacity:1"
           id="path2786" /><g
           id="g2788"
           transform="scale(10)"><text
             transform="matrix(0,1,1,0,426.439,121.26)"
             style="font-style:oblique;font-variant:normal;font-weight:bold;font-size:4.24895px;font-family:Helvetica;-inkscape-font-specification:Helvetica-BoldOblique;writing-mode:lr-tb;fill:#000000;fill-opacity:1;fill-rule:nonzero;stroke:none"
             id="text2796"><tspan
               x="0"
               y="0"
               id="tspan2790">X</tspan><tspan
               x="31.492199"
               y="-24.743889"
               id="tspan2792">Y</tspan><tspan
               x="7.9980111"
               y="-48.487999"
               id="tspan2794">Z</tspan></text></g><path
           d="m 3617.05,2204.85 c 9.66,0 17.49,-7.83 17.49,-17.5 0,-9.66 -7.83,-17.49 -17.49,-17.49 -9.66,0 -17.5,7.83 -17.5,17.49 0,9.67 7.84,17.5 17.5,17.5"
           style="fill:#000000;fill-opacity:1;fill-rule:evenodd;stroke:none"
           id="path2798" /><path
           d="m 3617.05,2204.85 c 9.66,0 17.49,-7.83 17.49,-17.5 0,-9.66 -7.83,-17.49 -17.49,-17.49 -9.66,0 -17.5,7.83 -17.5,17.49 0,9.67 7.84,17.5 17.5,17.5 z"
           style="fill:none;stroke:#000000;stroke-width:2.49938;stroke-linecap:butt;stroke-linejoin:miter;stroke-miterlimit:10;stroke-dasharray:14.9963;stroke-dashoffset:0;stroke-opacity:1"
           id="path2800" /><path
           d="m 3367.11,2176.52 c 9.66,0 17.5,-7.83 17.5,-17.49 0,-9.66 -7.84,-17.5 -17.5,-17.5 -9.66,0 -17.5,7.84 -17.5,17.5 0,9.66 7.84,17.49 17.5,17.49"
           style="fill:#000000;fill-opacity:1;fill-rule:evenodd;stroke:none"
           id="path2802" /><path
           d="m 3367.11,2176.52 c 9.66,0 17.5,-7.83 17.5,-17.49 0,-9.66 -7.84,-17.5 -17.5,-17.5 -9.66,0 -17.5,7.84 -17.5,17.5 0,9.66 7.84,17.49 17.5,17.49 z"
           style="fill:none;stroke:#000000;stroke-width:2.49938;stroke-linecap:butt;stroke-linejoin:miter;stroke-miterlimit:10;stroke-dasharray:14.9963;stroke-dashoffset:0;stroke-opacity:1"
           id="path2804" /><path
           d="m 3783.67,1785.79 c 9.67,0 17.5,-7.84 17.5,-17.5 0,-9.66 -7.83,-17.49 -17.5,-17.49 -9.66,0 -17.49,7.83 -17.49,17.49 0,9.66 7.83,17.5 17.49,17.5"
           style="fill:#000000;fill-opacity:1;fill-rule:evenodd;stroke:none"
           id="path2806" /><path
           d="m 3783.67,1785.79 c 9.67,0 17.5,-7.84 17.5,-17.5 0,-9.66 -7.83,-17.49 -17.5,-17.49 -9.66,0 -17.49,7.83 -17.49,17.49 0,9.66 7.83,17.5 17.49,17.5 z"
           style="fill:none;stroke:#000000;stroke-width:2.49938;stroke-linecap:butt;stroke-linejoin:miter;stroke-miterlimit:10;stroke-dasharray:14.9963;stroke-dashoffset:0;stroke-opacity:1"
           id="path2808" /><path
           d="m 3839.49,2607.25 c 9.67,0 17.5,-7.83 17.5,-17.49 0,-9.67 -7.83,-17.5 -17.5,-17.5 -9.66,0 -17.49,7.83 -17.49,17.5 0,9.66 7.83,17.49 17.49,17.49"
           style="fill:#000000;fill-opacity:1;fill-rule:evenodd;stroke:none"
           id="path2810" /><path
           d="m 3839.49,2607.25 c 9.67,0 17.5,-7.83 17.5,-17.49 0,-9.67 -7.83,-17.5 -17.5,-17.5 -9.66,0 -17.49,7.83 -17.49,17.5 0,9.66 7.83,17.49 17.49,17.49 z"
           style="fill:none;stroke:#000000;stroke-width:2.49938;stroke-linecap:butt;stroke-linejoin:miter;stroke-miterlimit:10;stroke-dasharray:14.9963;stroke-dashoffset:0;stroke-opacity:1"
           id="path2812" /><path
           d="m 3567.06,2587.26 c 9.66,0 17.5,-7.84 17.5,-17.5 0,-9.66 -7.84,-17.5 -17.5,-17.5 -9.66,0 -17.5,7.84 -17.5,17.5 0,9.66 7.84,17.5 17.5,17.5"
           style="fill:#000000;fill-opacity:1;fill-rule:evenodd;stroke:none"
           id="path2814" /><path
           d="m 3567.06,2587.26 c 9.66,0 17.5,-7.84 17.5,-17.5 0,-9.66 -7.84,-17.5 -17.5,-17.5 -9.66,0 -17.5,7.84 -17.5,17.5 0,9.66 7.84,17.5 17.5,17.5 z"
           style="fill:none;stroke:#000000;stroke-width:2.49938;stroke-linecap:butt;stroke-linejoin:miter;stroke-miterlimit:10;stroke-dasharray:14.9963;stroke-dashoffset:0;stroke-opacity:1"
           id="path2816" /><path
           d="m 4011.95,2249.84 c 9.66,0 17.5,-7.83 17.5,-17.5 0,-9.66 -7.84,-17.49 -17.5,-17.49 -9.66,0 -17.5,7.83 -17.5,17.49 0,9.67 7.84,17.5 17.5,17.5"
           style="fill:#000000;fill-opacity:1;fill-rule:evenodd;stroke:none"
           id="path2818" /><path
           d="m 4011.95,2249.84 c 9.66,0 17.5,-7.83 17.5,-17.5 0,-9.66 -7.84,-17.49 -17.5,-17.49 -9.66,0 -17.5,7.83 -17.5,17.49 0,9.67 7.84,17.5 17.5,17.5 z"
           style="fill:none;stroke:#000000;stroke-width:2.49938;stroke-linecap:butt;stroke-linejoin:miter;stroke-miterlimit:10;stroke-dasharray:14.9963;stroke-dashoffset:0;stroke-opacity:1"
           id="path2820" /><path
           d="m 4094.43,1724.97 c 9.66,0 17.5,-7.83 17.5,-17.5 0,-9.66 -7.84,-17.49 -17.5,-17.49 -9.66,0 -17.5,7.83 -17.5,17.49 0,9.67 7.84,17.5 17.5,17.5"
           style="fill:#000000;fill-opacity:1;fill-rule:evenodd;stroke:none"
           id="path2822" /><path
           d="m 4094.43,1724.97 c 9.66,0 17.5,-7.83 17.5,-17.5 0,-9.66 -7.84,-17.49 -17.5,-17.49 -9.66,0 -17.5,7.83 -17.5,17.49 0,9.67 7.84,17.5 17.5,17.5 z"
           style="fill:none;stroke:#000000;stroke-width:2.49938;stroke-linecap:butt;stroke-linejoin:miter;stroke-miterlimit:10;stroke-dasharray:14.9963;stroke-dashoffset:0;stroke-opacity:1"
           id="path2824" /><path
           d="m 4319.37,2182.36 c 9.67,0 17.5,-7.84 17.5,-17.5 0,-9.66 -7.83,-17.5 -17.5,-17.5 -9.66,0 -17.49,7.84 -17.49,17.5 0,9.66 7.83,17.5 17.49,17.5"
           style="fill:#000000;fill-opacity:1;fill-rule:evenodd;stroke:none"
           id="path2826" /><path
           d="m 4319.37,2182.36 c 9.67,0 17.5,-7.84 17.5,-17.5 0,-9.66 -7.83,-17.5 -17.5,-17.5 -9.66,0 -17.49,7.84 -17.49,17.5 0,9.66 7.83,17.5 17.49,17.5 z"
           style="fill:none;stroke:#000000;stroke-width:2.49938;stroke-linecap:butt;stroke-linejoin:miter;stroke-miterlimit:10;stroke-dasharray:14.9963;stroke-dashoffset:0;stroke-opacity:1"
           id="path2828" /><path
           d="m 4011.95,2233.68 v 2.5"
           style="fill:none;stroke:#000000;stroke-width:2.49938;stroke-linecap:butt;stroke-linejoin:miter;stroke-miterlimit:10;stroke-dasharray:none;stroke-opacity:1"
           id="path2830" /><path
           d="m 4011.95,2234.84 -449.89,337.42"
           style="fill:none;stroke:#000000;stroke-width:2.49938;stroke-linecap:butt;stroke-linejoin:miter;stroke-miterlimit:10;stroke-dasharray:none;stroke-opacity:1"
           id="path2832" /></g></g><g
       id="g2834"
       transform="matrix(0.13692895,0,0,0.13692895,-267.90921,-76.21906)"><g
         id="g2836"
         clip-path="url(#clipPath2840)"><path
           d="m 4069.44,1997.4 247.44,-279.93"
           style="fill:#000000;fill-opacity:1;fill-rule:evenodd;stroke:none"
           id="path2842" /><path
           d="m 4069.44,1997.4 247.44,-279.93"
           style="fill:none;stroke:#000000;stroke-width:2.49938;stroke-linecap:butt;stroke-linejoin:miter;stroke-miterlimit:10;stroke-dasharray:none;stroke-opacity:1"
           id="path2844" /></g></g><g
       id="g2846"
       transform="matrix(0.13692895,0,0,0.13692895,-267.90921,-76.21906)"><g
         id="g2848"
         clip-path="url(#clipPath2852)"><path
           d="m 4279.22,1744.96 33.99,-23.32 -19,36.49"
           style="fill:none;stroke:#000000;stroke-width:2.49938;stroke-linecap:butt;stroke-linejoin:miter;stroke-miterlimit:10;stroke-dasharray:none;stroke-opacity:1"
           id="path2854" /></g></g><g
       id="g2856"
       transform="matrix(0.13692895,0,0,0.13692895,-267.90921,-76.21906)"><g
         id="g2858"
         clip-path="url(#clipPath2862)"><path
           d="m 3714.52,2209.85 -402.4,22.49"
           style="fill:#000000;fill-opacity:1;fill-rule:evenodd;stroke:none"
           id="path2864" /><path
           d="m 3714.52,2209.85 -402.4,22.49"
           style="fill:none;stroke:#000000;stroke-width:2.49938;stroke-linecap:butt;stroke-linejoin:miter;stroke-miterlimit:10;stroke-dasharray:none;stroke-opacity:1"
           id="path2866" /></g></g><g
       id="g2868"
       transform="matrix(0.13692895,0,0,0.13692895,-267.90921,-76.21906)"><g
         id="g2870"
         clip-path="url(#clipPath2874)"><path
           d="m 3357.95,2239.68 -40.33,-7.67 39.33,-12.33"
           style="fill:none;stroke:#000000;stroke-width:2.49938;stroke-linecap:butt;stroke-linejoin:miter;stroke-miterlimit:10;stroke-dasharray:none;stroke-opacity:1"
           id="path2876" /></g></g><g
       id="g2878"
       transform="matrix(0.13692895,0,0,0.13692895,-267.90921,-76.21906)"><g
         id="g2880"
         clip-path="url(#clipPath2884)"><path
           d="m 4004.45,2354.81 107.48,364.91"
           style="fill:#000000;fill-opacity:1;fill-rule:evenodd;stroke:none"
           id="path2886" /><path
           d="m 4004.45,2354.81 107.48,364.91"
           style="fill:none;stroke:#000000;stroke-width:2.49938;stroke-linecap:butt;stroke-linejoin:miter;stroke-miterlimit:10;stroke-dasharray:none;stroke-opacity:1"
           id="path2888" /></g></g><g
       id="g2890"
       transform="matrix(0.13692895,0,0,0.13692895,-267.90921,-76.21906)"><g
         id="g2892"
         clip-path="url(#clipPath2896)"><path
           d="m 4108.59,2673.07 1.84,41.32 -21,-35.66"
           style="fill:none;stroke:#000000;stroke-width:2.49938;stroke-linecap:butt;stroke-linejoin:miter;stroke-miterlimit:10;stroke-dasharray:none;stroke-opacity:1"
           id="path2898" /><path
           d="m 3564.56,2569.76 -0.17,-0.17 -0.33,-0.16 -0.5,-0.34 -0.83,-0.66 -1.17,-1 -1.66,-1.17 -2,-1.67 -2.5,-1.99 -2.84,-2.17 -3.33,-2.67 -3.66,-3 -4,-3.33 -4.5,-3.66 -4.5,-4 -4.83,-4.17 -5.17,-4.5 -5.16,-4.66 -5.17,-5 -5.5,-5.17 -5.5,-5.33 -5.5,-5.66 -5.49,-6 -5.67,-6.17 -5.66,-6.5 -5.67,-6.83 -5.83,-7.16 -5.67,-7.67 -6,-8.16 -5.83,-8.5 -6,-9.17 -5.99,-9.66 -6,-10.16 -5.83,-10.83 -5.84,-11.17 -5.66,-11.5 -5,-11.16 -4.83,-11 -4.33,-10.99 -4,-10.83 -3.5,-10.34 -3.34,-10.33 -2.83,-9.83 -2.66,-9.49 -2.34,-9.34 -2.16,-8.99 -1.84,-8.83 -1.5,-8.5 -1.5,-8.33 -1.16,-8.17 -1.17,-8 -1,-7.83 -0.83,-7.66 -0.67,-7.5 -0.5,-7.17 -0.5,-7.16 -0.5,-6.67 -0.33,-6.66 -0.33,-6.17 -0.17,-5.83 -0.17,-5.33 -0.16,-5 v -4.5 l -0.17,-4 v -14.33"
           style="fill:none;stroke:#000000;stroke-width:2.49938;stroke-linecap:butt;stroke-linejoin:bevel;stroke-miterlimit:10;stroke-dasharray:none;stroke-opacity:1"
           id="path2900" /><path
           d="m 3367.11,2149.86 h 0.17 l 0.16,-0.16 0.5,-0.34 0.84,-0.33 1.16,-0.5 1.67,-0.83 1.83,-1 2.5,-1.17 2.83,-1.33 3.34,-1.67 3.83,-2 4.16,-2.16 4.67,-2.34 5,-2.5 5.33,-2.83 5.5,-3 6,-3.16 6.16,-3.34 6.33,-3.49 6.5,-3.67 6.67,-4 7,-4 6.99,-4.16 7.17,-4.5 7.33,-4.5 7.5,-4.83 7.66,-5.17 8,-5.33 8.17,-5.67 8.33,-5.83 8.5,-6.33 8.99,-6.67 9.17,-7.16 9.33,-7.5 9.83,-7.83 10,-8.33 10.16,-8.83 10.33,-9.17 10.33,-9.33 10.17,-9.5 9.99,-9.66 9.67,-9.5 9.33,-9.49 8.83,-9.17 8.5,-9 8,-8.66 7.66,-8.67 7.17,-8.16 7,-8.17 6.49,-7.83 6.34,-7.83 5.99,-7.5 5.84,-7.49 5.49,-7.17 5.34,-7.16 5.16,-7 5,-6.83 4.67,-6.84 4.66,-6.49 4.33,-6.34 4.34,-6.33 4,-5.83 3.83,-5.66 3.5,-5.5 3.33,-5 3,-4.67 2.66,-4.33 2.5,-3.83 2.17,-3.33 1.83,-3 1.67,-2.5 1.17,-2 1,-1.5 0.83,-1.17 0.5,-0.83 0.33,-0.67 0.17,-0.17 v -0.16"
           style="fill:none;stroke:#000000;stroke-width:2.49938;stroke-linecap:butt;stroke-linejoin:bevel;stroke-miterlimit:10;stroke-dasharray:none;stroke-opacity:1"
           id="path2902" /><path
           d="m 4011.95,2237.34 314.92,-74.98"
           style="fill:none;stroke:#000000;stroke-width:2.49938;stroke-linecap:butt;stroke-linejoin:bevel;stroke-miterlimit:10;stroke-dasharray:none;stroke-opacity:1"
           id="path2904" /><path
           d="m 4326.87,2162.36 v -1.17 l -0.16,-1 v -1.49 l -0.17,-2.17 -0.17,-2.5 -0.16,-3.17 -0.17,-3.66 -0.33,-4.33 -0.34,-4.84 -0.5,-5.49 -0.5,-6 -0.5,-6.34 -0.66,-6.83 -0.67,-7.16 -0.67,-7.5 -1,-7.83 -0.83,-8.17 -1.17,-8.16 -1.16,-8.5 -1.17,-8.66 -1.5,-8.83 -1.5,-9 -1.66,-9 -1.84,-9.33 -2.16,-9.33 -2.17,-9.67 -2.5,-9.83 -2.66,-9.99 -3,-10.34 -3.34,-10.49 -3.66,-10.67 -3.83,-10.99 -4.34,-11.33 -4.66,-11.5 -4.83,-11.5 -5.34,-11.66 -5.66,-11.5 -6.17,-11.83 -6.33,-11.5 -6.5,-10.83 -6.33,-10.33 -6.5,-9.83 -6.33,-9.16 -6.33,-8.5 -6.17,-8 -6.16,-7.5 -6,-7 -6,-6.66 -5.83,-6.17 -5.83,-6 -5.83,-5.49 -5.84,-5.34 -5.66,-4.99 -5.5,-4.67 -5.66,-4.67 -5.34,-4.16 -5.33,-4.17 -5.16,-3.83 -5,-3.66 -4.67,-3.34 -4.5,-3 -4.33,-3 -3.83,-2.5 -3.5,-2.33 -3.17,-2 -2.66,-1.66 -2.34,-1.5 -1.83,-1.17 -1.5,-1 -1.16,-0.67 -0.84,-0.5 -0.5,-0.33 -0.16,-0.17 h -0.17"
           style="fill:none;stroke:#000000;stroke-width:2.49938;stroke-linecap:butt;stroke-linejoin:bevel;stroke-miterlimit:10;stroke-dasharray:none;stroke-opacity:1"
           id="path2906" /><path
           d="m 4094.43,1712.47 -0.17,0.17 -0.16,0.17 -0.34,0.5 -0.66,0.66 -0.84,1 -1.16,1.5 -1.5,1.83 -1.83,2.17 -2.34,2.83 -2.66,3.17 -3,3.5 -3.34,4.16 -3.83,4.5 -4.16,5 -4.5,5.5 -5,5.67 -5.17,6.16 -5.33,6.5 -5.83,6.83 -6,7 -6.16,7.33 -6.34,7.5 -6.49,7.66 -6.67,7.83 -6.83,8 -7,8 -7.16,8.17 -7.17,8.33 -7.33,8.33 -7.5,8.5 -7.5,8.66 -7.66,8.66 -7.83,8.84 -8,8.83 -8.17,8.99 -8.33,9.17 -8.49,9.33 -8.67,9.33 -9,9.67 -8.99,9.66 -9.34,9.83 -9.49,10 -9.83,10.16 -9.84,10.17 -9.83,10.16 -9.99,10 -10,10 -12.33,12.16 -12,11.66 -11.5,11 -10.99,10.33 -10.33,9.67 -9.83,8.99 -9.17,8.33 -8.66,7.67 -8.33,7 -7.67,6.66 -7.33,6 -7,5.67 -6.5,5.33 -6.33,5 -6,4.5 -5.83,4.33 -5.5,4 -5.33,3.83 -5,3.5 -4.83,3.33 -4.5,3.17 -4.33,2.83 -4,2.67 -3.67,2.33 -3.5,2.16 -3.16,2 -2.84,1.67 -2.33,1.5 -2.16,1.33 -1.84,1.17 -1.5,0.83 -1,0.67 -1,0.5 -0.5,0.33 -0.33,0.17 -0.17,0.17 h -0.16"
           style="fill:none;stroke:#000000;stroke-width:2.49938;stroke-linecap:butt;stroke-linejoin:bevel;stroke-miterlimit:10;stroke-dasharray:14.9963;stroke-dashoffset:0;stroke-opacity:1"
           id="path2908" /><path
           d="m 3624.55,2184.86 h -0.17 l -0.5,0.16 h -0.67 l -1.33,0.34 -1.67,0.16 -2.16,0.5 -2.67,0.34 -3.16,0.49 -3.67,0.5 -4,0.67 -4.33,0.5 -4.5,0.67 -4.83,0.66 -5,0.5 -5.33,0.5 -5.33,0.5 -5.84,0.5 -6,0.34 -6.33,0.33 -6.66,0.33 -7.17,0.17 h -7.5 l -7.99,-0.17 -8.5,-0.16 -8.5,-0.34 -9.16,-0.5 -8.83,-0.66 -8,-0.84 -7.17,-0.66 -6.16,-0.67 -5.17,-0.67 -4.33,-0.66 -3.67,-0.5 -2.83,-0.67 -2.5,-0.5 -2.16,-0.5 -1.84,-0.33 -2,-0.5 -2,-0.67 -2.16,-0.5 -2.5,-0.66 -3.17,-0.67 -3.5,-0.83 -4.33,-1 -4.83,-1.17 -5.5,-1.17 -5.83,-1.5 -6.33,-1.5 -6,-1.5 -5.67,-1.49 -4.83,-1.5 -4.16,-1.5 -3.67,-1.34 -3,-1.16 -2.33,-1.17 -2,-1.17 -1.67,-1 -1.16,-1 -1,-1 -0.67,-0.83 -0.67,-0.83 -0.33,-0.83 -0.17,-0.67 -0.16,-0.67 v -1.16 l 0.16,-0.5 v -0.5 l 0.17,-0.17 v -0.17"
           style="fill:none;stroke:#000000;stroke-width:2.49938;stroke-linecap:butt;stroke-linejoin:bevel;stroke-miterlimit:10;stroke-dasharray:14.9963;stroke-dashoffset:0;stroke-opacity:1"
           id="path2910" /><path
           d="m 4096.93,1707.47 h -0.17 l -0.33,0.34 -0.5,0.33 -0.83,0.5 -1.34,0.67 -1.66,0.83 -2,1.17 -2.5,1.33 -2.83,1.5 -3.17,1.66 -3.5,1.84 -3.83,1.83 -4.17,2 -4.5,2.17 -4.66,2 -5,2.16 -5.33,2.17 -5.83,2.16 -6.17,2.17 -6.5,2.17 -7.16,2.33 -7.83,2.17 -8.34,2.33 -9.16,2.33 -9.83,2.33 -10.66,2.34 -11,2.16 -10,1.84 -9.83,1.66 -9.83,1.5 -9.5,1.33 -9.33,1.17 -9,1.17 -8.66,1 -8.33,0.66 -8.17,0.84 -8,0.66 -7.66,0.5 -7.5,0.5 -7.33,0.34 -7.33,0.33 -7,0.33 -6.67,0.17 -6.66,0.33 -6.33,0.17 h -6 l -5.5,0.17 -5.16,0.16 h -8.84 l -3.66,0.17 h -9.83"
           style="fill:none;stroke:#000000;stroke-width:2.49938;stroke-linecap:butt;stroke-linejoin:bevel;stroke-miterlimit:10;stroke-dasharray:none;stroke-opacity:1"
           id="path2912" /><path
           d="m 3619.55,2187.35 v 10.84 l 0.16,3.49 0.17,3.84 0.17,4.33 0.16,4.83 0.34,5.17 0.5,5.5 0.5,5.83 0.5,6.16 0.83,6.33 0.83,6.67 1.17,6.83 1.17,7 1.5,7.33 1.66,7.67 2,7.83 2.17,8.16 2.5,8.5 3,9 3.33,9.33 3.66,9.83 4.34,10.33 4.66,10.66 5.33,11.17 5.67,11.66 6.16,11.67 5.84,10.49 6.16,10.33 6.17,10.17 6.16,9.66 6.33,9.5 6.17,9 6.16,8.66 6.17,8.33 6,7.83 6,7.67 5.99,7.33 6,7.17 5.84,6.83 5.83,6.66 5.83,6.5 5.66,6.17 5.67,6.16 5.66,5.83 5.5,5.67 5.5,5.5 5.17,5.33 5.16,5 4.83,4.66 4.5,4.5 4.34,4.17 4,3.66 3.66,3.5 3.17,3 2.83,2.67 2.33,2.16 2,1.84 1.5,1.33 1.17,1.17 0.83,0.66 0.5,0.5 0.17,0.17 0.16,0.17"
           style="fill:none;stroke:#000000;stroke-width:2.49938;stroke-linecap:butt;stroke-linejoin:bevel;stroke-miterlimit:10;stroke-dasharray:14.9963;stroke-dashoffset:0;stroke-opacity:1"
           id="path2914" /><path
           d="m 3779.51,1767.46 h 0.16 l 0.34,0.17 0.5,0.16 1,0.34 1.33,0.49 1.83,0.67 2.34,0.83 2.66,1 3.33,1.34 3.84,1.5 4.16,1.66 4.67,1.84 5,2.16 5.33,2.34 5.66,2.66 5.84,2.83 6.16,3 6.33,3.17 6.33,3.5 6.5,3.66 6.67,4 6.5,4.17 6.66,4.5 6.67,4.83 6.83,5.33 6.66,5.5 6.84,6 6.83,6.5 6.83,7 6.83,7.66 6.83,8.16 6.83,8.84 6.83,9.49 6.84,10.17 6.83,10.83 6.5,11.66 6.16,12 5.33,11.33 4.84,11.33 4.66,11.5 4.17,11.49 3.66,11.34 3.34,11.16 3.16,11.16 2.67,10.83 2.33,10.67 2,10.33 1.83,10.33 1.5,10.16 1.33,10 1.17,9.83 1,9.67 0.67,9.66 0.66,9.5 0.5,9.33 0.34,9.16 0.16,9 0.17,9 v 17.16 l -0.17,8.17 -0.16,7.83 -0.17,7.5 -0.17,6.99 -0.33,6.67 -0.33,6 -0.17,5.66 -0.33,5 -0.17,4.33 -0.17,3.84 -0.33,3.16 -0.17,2.5 v 2.17 l -0.16,1.5 v 1 l -0.17,0.66 v 0.5"
           style="fill:none;stroke:#000000;stroke-width:2.49938;stroke-linecap:butt;stroke-linejoin:bevel;stroke-miterlimit:10;stroke-dasharray:none;stroke-opacity:1"
           id="path2916" /><path
           d="m 4319.37,2169.86 -0.16,0.17 -0.17,0.16 -0.33,0.34 -0.5,0.66 -0.83,1 -1.17,1.17 -1.5,1.66 -1.83,1.84 -2.17,2.5 -2.5,2.66 -3,3.17 -3.33,3.66 -3.5,3.84 -4,4.33 -4.33,4.66 -4.67,5 -5,5.17 -5.16,5.66 -5.5,5.67 -5.67,6 -5.83,6.33 -6,6.33 -6.16,6.5 -6.5,6.66 -6.5,6.67 -6.66,7 -6.83,7 -7,6.99 -7,7.17 -7.33,7.33 -7.5,7.5 -7.67,7.5 -7.83,7.83 -7.99,7.83 -8.34,8 -8.49,8.16 -8.83,8.5 -9.17,8.5 -9.33,8.83 -9.66,8.83 -9.84,9.17 -10.16,9.16 -10.5,9.33 -10.49,9.33 -10.5,9.17 -12,10.49 -11.83,10 -11.5,9.67 -11.16,9.16 -10.66,8.83 -10.17,8.17 -9.83,7.83 -9.33,7.33 -8.83,6.83 -8.5,6.5 -8.16,6 -7.84,5.83 -7.49,5.5 -7.34,5.16 -6.99,5 -6.84,4.67 -6.49,4.5 -6.34,4.33 -6.16,4.16 -6,3.84 -5.66,3.66 -5.5,3.5 -5.17,3.33 -5,3.17 -4.66,3 -4.33,2.67 -4,2.49 -3.67,2.17 -3.17,2 -2.83,1.67 -2.5,1.5 -2,1.33 -1.83,1 -1.17,0.67 -1,0.66 -0.66,0.33 -0.5,0.34 -0.17,0.16 h -0.17"
           style="fill:none;stroke:#000000;stroke-width:2.49938;stroke-linecap:butt;stroke-linejoin:bevel;stroke-miterlimit:10;stroke-dasharray:none;stroke-opacity:1"
           id="path2918" /><path
           d="m 3839.49,2589.76 h -0.5 l -0.83,0.16 -1,0.17 -1.67,0.17 -2,0.16 -2.49,0.34 -3,0.33 -3.34,0.33 -3.83,0.33 -4.16,0.5 -4.5,0.34 -4.84,0.33 -4.99,0.33 -5.34,0.34 -5.49,0.33 -5.84,0.33 -6,0.17 -6.49,0.17 h -21.33 l -8,-0.17 -8.5,-0.33 -9.16,-0.5 -9.33,-0.67 -9.83,-0.67 -9.83,-0.83 -9.5,-1 -9.33,-1 -8.83,-1.16 -8.34,-1.17 -7.99,-1.17 -7.5,-1.16 -7.17,-1.17 -6.83,-1.33 -6.66,-1.17 -6.34,-1.33 -6.16,-1.17 -5.83,-1.33 -5.67,-1.17 -5.33,-1.16 -5,-1.17 -4.83,-1.17 -4.33,-1 -3.84,-1 -3.49,-0.83 -2.84,-0.83 -2.33,-0.5 -1.83,-0.5 -1.17,-0.34 -0.83,-0.16 -0.5,-0.17 h -0.17"
           style="fill:none;stroke:#000000;stroke-width:2.49938;stroke-linecap:butt;stroke-linejoin:bevel;stroke-miterlimit:10;stroke-dasharray:none;stroke-opacity:1"
           id="path2920" /><g
           id="g2922"
           transform="scale(10)"><text
             transform="matrix(0,1,1,0,407.444,279.221)"
             style="font-style:oblique;font-variant:normal;font-weight:bold;font-size:4.49889px;font-family:Helvetica;-inkscape-font-specification:Helvetica-BoldOblique;writing-mode:lr-tb;fill:#000000;fill-opacity:1;fill-rule:nonzero;stroke:none"
             id="text2928"><tspan
               x="0"
               y="0"
               id="tspan2924">s</tspan><tspan
               x="-55.236473"
               y="-78.480438"
               id="tspan2926">t</tspan></text><text
             transform="matrix(0,1,1,0,396.196,220.735)"
             style="font-style:oblique;font-variant:normal;font-weight:bold;font-size:4.99876px;font-family:Helvetica;-inkscape-font-specification:Helvetica-BoldOblique;writing-mode:lr-tb;fill:#000000;fill-opacity:1;fill-rule:nonzero;stroke:none"
             id="text2946"><tspan
               x="0"
               y="0"
               id="tspan2930">1</tspan><tspan
               x="37.4907"
               y="-42.739399"
               id="tspan2932">2</tspan><tspan
               x="-8.7478304"
               y="-61.734688"
               id="tspan2934">3</tspan><tspan
               x="-48.238033"
               y="-19.995041"
               id="tspan2936">4</tspan><tspan
               x="-8.4978924"
               y="32.741879"
               id="tspan2938">5</tspan><tspan
               x="31.742126"
               y="-11.497148"
               id="tspan2940">6</tspan><tspan
               x="-7.9980159"
               y="-31.742126"
               id="tspan2942">7</tspan><tspan
               x="-57.235802"
               y="12.746838"
               id="tspan2944">8</tspan></text><text
             transform="matrix(0,1,1,0,437.936,173.497)"
             style="font-style:oblique;font-variant:normal;font-weight:bold;font-size:4.49889px;font-family:Helvetica;-inkscape-font-specification:Helvetica-BoldOblique;writing-mode:lr-tb;fill:#000000;fill-opacity:1;fill-rule:nonzero;stroke:none"
             id="text2950"><tspan
               x="0"
               y="0"
               id="tspan2948">r</tspan></text></g></g></g><path
       d="m 395.91997,264.06394 c -2.25933,0 -2.61398,0.2588 -2.8358,2.02792 h -0.37655 v -5.13894 h 0.37655 c 0.13282,1.72804 0.62029,2.15252 2.8358,2.15252 h 5.97969 c 1.50621,0 2.34833,-0.17664 3.01243,-0.57921 1.06394,-0.59838 1.79788,-2.01696 1.79788,-3.67791 0,-1.57195 -0.54772,-2.65779 -1.61987,-3.25617 -0.70929,-0.39847 -1.5295,-0.56552 -2.9248,-0.56552 h -7.08744 c -1.59523,0 -1.83896,0.2451 -1.99369,2.02792 h -0.37655 v -6.26861 h 0.37655 c 0.13282,1.74995 0.37655,1.9129 1.99369,1.9129 h 6.9108 c 3.83127,0 5.67981,1.81978 5.67981,5.6401 0,2.41406 -0.78597,4.07638 -2.31273,4.9404 -0.93111,0.53128 -1.94987,0.7846 -3.65463,0.7846 z m 1.43912,16.13708 -4.96093,-0.19855 v -0.46556 c 0.4368,-0.13282 0.72983,-0.48746 0.72983,-0.92975 0,-0.19991 -0.0808,-0.53265 -0.24374,-0.86402 -0.35327,-1.08584 -0.48746,-2.1936 -0.48746,-3.23426 0,-1.81568 0.67095,-3.65463 1.86086,-5.02803 1.3734,-1.55004 3.43418,-2.40447 5.87015,-2.40447 2.05941,0 3.96546,0.66958 5.22794,1.80609 1.43913,1.32958 2.31273,3.36708 2.31273,5.55932 0,2.50306 -1.0297,4.69666 -2.84538,6.04815 l -0.39846,-0.39983 c 1.57331,-1.63904 2.28534,-3.10008 2.28534,-4.93903 0,-1.39531 -0.45871,-2.63588 -1.33232,-3.58754 -1.08585,-1.21867 -3.07953,-1.88551 -5.53741,-1.88551 -4.00928,0 -6.62188,2.05256 -6.62188,5.25122 0,1.26249 0.47241,2.41543 1.37203,3.30136 0.70929,0.70792 1.32958,1.04066 2.7687,1.46103 z m 7.553,3.30683 c 1.59522,0 1.88278,-0.26016 1.99369,-1.91153 h 0.45323 v 6.29189 c 0,2.56879 -0.74352,4.89521 -2.00327,6.26861 -1.30767,1.43912 -3.27808,2.22235 -5.42649,2.22235 -1.99369,0 -3.72173,-0.65178 -4.9404,-1.8458 -1.52813,-1.50622 -2.28123,-3.92164 -2.28123,-6.95599 v -5.98106 h 0.37655 c 0.15473,1.74996 0.35465,1.91153 1.99369,1.91153 z m -10.56544,2.32779 c -0.68601,0 -0.81746,0.23689 -0.81746,1.12145 0,1.90468 0.33958,3.34518 1.0612,4.40774 1.19676,1.72805 3.10144,2.54962 5.49359,2.54962 2.61397,0 4.47347,-0.87908 5.5155,-2.61534 0.64219,-1.12966 0.93796,-2.41543 0.93796,-4.34202 0,-0.88593 -0.20539,-1.12145 -0.93796,-1.12145 z m 3.01244,30.67072 -4.96093,-0.19992 v -0.46556 c 0.4368,-0.13282 0.72983,-0.48746 0.72983,-0.92974 0,-0.19992 -0.0808,-0.53129 -0.24374,-0.86402 -0.35327,-1.08585 -0.48746,-2.19224 -0.48746,-3.23427 0,-1.81567 0.67095,-3.65463 1.86086,-5.02803 1.3734,-1.55003 3.43418,-2.42227 5.87015,-2.42227 2.05941,0 3.96546,0.67643 5.22794,1.82389 1.43913,1.32958 2.31273,3.36709 2.31273,5.56069 0,2.50306 -1.0297,4.69529 -2.84538,6.04678 l -0.39846,-0.39846 c 1.57331,-1.63904 2.28534,-3.10144 2.28534,-4.9404 0,-1.39531 -0.45871,-2.63588 -1.33232,-3.58754 -1.08585,-1.21867 -3.07953,-1.90331 -5.53741,-1.90331 -4.00928,0 -6.62188,2.05941 -6.62188,5.27039 0,1.26249 0.47241,2.41406 1.37203,3.29999 0.70929,0.70929 1.32958,1.04066 2.7687,1.4624 z m -0.21772,6.57807 c 0,-2.87962 2.12514,-4.93355 5.18003,-4.93355 2.98916,0 5.25944,2.07584 5.25944,4.88973 0,2.79061 -2.36203,4.96915 -5.43745,4.96915 -2.90153,0 -5.00202,-2.05941 -5.00202,-4.92533 z m 0.68465,-0.28755 c 0,1.86086 2.09912,3.15895 5.09239,3.15895 2.50306,0 3.97778,-0.99411 3.97778,-2.64958 0,-0.86402 -0.52033,-1.68423 -1.38572,-2.14841 -1.15157,-0.62029 -2.70298,-0.95303 -4.27492,-0.95303 -2.1046,0 -3.40953,1.03244 -3.40953,2.59207 z m 0.68464,6.24122 c -0.0657,0.28892 -0.0876,0.46556 -0.0876,0.70929 0,0.57647 0.35328,0.72709 1.41721,0.72709 h 5.60314 c 1.19676,0 1.52949,-0.29987 1.5514,-1.50211 h 0.36423 v 4.91712 h -0.27385 c -0.0479,-1.17348 -0.31083,-1.498 -1.24195,-1.498 h -6.2467 c -0.0438,0 -0.26564,0.17253 -0.42037,0.32452 -0.51075,0.55319 -0.93933,1.50622 -0.93933,2.28123 0,0.97494 0.79281,1.36519 2.37845,1.36519 h 4.80621 c 1.24057,0 1.48431,-0.22731 1.57331,-1.409 h 0.36423 v 4.96093 h -0.27385 c -0.0233,-1.26248 -0.41901,-1.63493 -1.86224,-1.63493 h -5.58262 c -0.95166,0.67506 -1.40352,1.41859 -1.40352,2.45514 0,1.26248 0.6107,1.65273 2.48936,1.65273 h 4.67339 c 1.26248,0 1.44049,-0.17664 1.59522,-1.45419 h 0.36423 v 4.8514 h -0.36423 l -0.0452,-0.57647 c -0.0438,-0.66411 -0.44229,-0.90373 -1.30631,-0.90373 h -4.56247 c -2.61397,0 -3.93945,-0.88046 -3.93945,-2.61809 0,-1.28439 0.57511,-2.41405 1.85676,-3.61081 -1.26248,-0.39847 -1.85676,-1.15157 -1.85676,-2.34696 0,-0.9722 0.30946,-1.59112 1.70203,-3.42597 h -1.66095 l -0.0452,-0.16294 c 0.42174,-1.12967 0.66547,-1.88278 0.99684,-3.10144 z m 0.11092,17.01616 c -0.0219,0.19991 -0.0219,0.35464 -0.0219,0.55319 0,0.75311 0.22182,0.84622 1.26248,0.84622 h 10.36689 c 1.15158,0 1.39531,-0.23415 1.52813,-1.48842 h 0.39436 v 5.36077 h -0.41079 c -0.0219,-1.66095 -0.26701,-1.95534 -1.6678,-1.95534 h -3.47662 c 0.72983,0.77775 0.98452,1.31041 0.98452,2.24289 0,2.61398 -2.49485,4.60355 -5.725,4.60355 -2.7468,0 -4.71447,-1.53086 -4.71447,-3.65052 0,-1.24332 0.5532,-2.21962 1.74585,-3.19592 h -1.70477 l -0.0452,-0.12735 c 0.46556,-1.19539 0.75311,-1.9704 1.12966,-3.18907 z m 1.30767,3.31642 c -0.66548,0 -1.41859,1.24331 -1.41859,2.2648 0,1.63904 1.66643,2.66464 4.2092,2.66464 2.45787,0 4.17633,-1.0612 4.17633,-2.61945 0,-1.04203 -0.82842,-2.30999 -1.51854,-2.30999 z m -0.44365,23.26423 v -5.64832 h 0.39846 c 0.0671,0.95165 0.13282,1.21729 0.31083,1.48431 0.19855,0.33136 0.70792,0.48062 1.66095,0.48062 h 3.58754 c 0.70929,0 1.40489,-1.35834 1.40489,-2.96178 0,-3.61081 -2.56194,-5.80168 -6.74238,-5.80168 -2.08269,0 -4.09829,0.61071 -5.18276,1.57058 -1.08585,0.97493 -1.7034,2.34833 -1.7034,3.85455 0,1.24057 0.42722,2.32505 1.23784,3.18907 0.62029,0.66411 1.21867,1.01876 2.56878,1.57332 v 0.56688 l -4.62819,-0.17664 v -0.54634 c 0.39435,-0.13282 0.72983,-0.53129 0.72983,-0.99548 0,-0.22182 -0.0794,-0.57647 -0.26564,-0.97493 -0.33137,-0.99684 -0.46419,-2.01559 -0.46419,-3.01244 0,-4.43102 3.237,-7.51329 7.72964,-7.51329 2.17032,0 3.83264,0.571 5.13894,1.75406 1.52813,1.48431 2.40173,3.61082 2.40173,6.04678 0,1.92523 -0.79008,4.72268 -1.58153,5.6182 h -4.49674 c -1.30768,0 -1.59523,0.25606 -1.70614,1.49253 z m 4.20919,9.32486 c 1.68286,-1.06257 2.37983,-2.0156 2.37983,-3.43281 0,-1.26249 -0.66137,-2.21551 -1.95945,-2.85771 -0.84075,-0.39846 -1.56921,-0.55456 -2.91796,-0.59838 v 6.8218 c -1.44323,-0.17664 -2.0868,-0.39846 -2.79746,-0.95165 -0.79692,-0.66411 -1.25838,-1.68423 -1.25838,-2.8358 0,-1.10776 0.3971,-2.14842 1.14884,-2.99053 0.90784,-1.04066 2.47978,-1.63904 4.29683,-1.63904 3.05625,0 4.9938,1.59522 4.9938,4.1421 0,2.1046 -1.31863,3.76555 -3.73132,4.69666 z m -3.18222,-6.84508 c -1.74859,0.24373 -2.54962,0.99684 -2.54962,2.34833 0,1.35149 0.62166,1.88277 2.54962,2.17032 z m -3.3712,13.17941 c 0,-2.87825 2.12514,-4.96504 5.18003,-4.96504 2.98916,0 5.25944,2.08953 5.25944,4.92122 0,2.79061 -2.36203,4.93766 -5.43745,4.93766 -2.90153,0 -5.00202,-2.04572 -5.00202,-4.89384 z m 0.68465,-0.28755 c 0,1.86086 2.09912,3.12746 5.09239,3.12746 2.50306,0 3.97778,-0.98178 3.97778,-2.61809 0,-0.86402 -0.52033,-1.68285 -1.38572,-2.14841 -1.15157,-0.62029 -2.70298,-0.98452 -4.27492,-0.98452 -2.1046,0 -3.40953,1.04477 -3.40953,2.62356 z m 0.68464,6.20973 c -0.0657,0.28892 -0.0876,0.46556 -0.0876,0.70929 0,0.57647 0.35328,0.72709 1.41721,0.72709 h 5.60314 c 1.19676,0 1.52949,-0.29987 1.5514,-1.50211 h 0.36423 v 4.91712 h -0.27385 c -0.0479,-1.17348 -0.31083,-1.498 -1.24195,-1.498 h -6.2467 c -0.0438,0 -0.26564,0.17253 -0.42037,0.32452 -0.51075,0.55319 -0.93933,1.50622 -0.93933,2.28123 0,0.97494 0.79281,1.36519 2.37845,1.36519 h 4.80621 c 1.24057,0 1.48431,-0.22731 1.57331,-1.409 h 0.36423 v 4.96093 h -0.27385 c -0.0233,-1.26248 -0.41901,-1.63493 -1.86224,-1.63493 h -5.58262 c -0.95166,0.67506 -1.40352,1.41859 -1.40352,2.45514 0,1.26248 0.6107,1.65273 2.48936,1.65273 h 4.67339 c 1.26248,0 1.44049,-0.17664 1.59522,-1.45419 h 0.36423 v 4.8514 h -0.36423 l -0.0452,-0.57647 c -0.0438,-0.66411 -0.44229,-0.90373 -1.30631,-0.90373 h -4.56247 c -2.61397,0 -3.93945,-0.88046 -3.93945,-2.61809 0,-1.28439 0.57511,-2.41405 1.85676,-3.61081 -1.26248,-0.39847 -1.85676,-1.15157 -1.85676,-2.34696 0,-0.9722 0.30946,-1.59112 1.70203,-3.42597 h -1.66095 l -0.0452,-0.16294 c 0.42174,-1.12967 0.66547,-1.88278 0.99684,-3.10144 z m 5.18413,25.88641 c 1.68286,-1.06393 2.37983,-2.01559 2.37983,-3.4328 0,-1.26386 -0.66137,-2.21551 -1.95945,-2.85771 -0.84075,-0.39846 -1.56921,-0.55456 -2.91796,-0.59838 v 6.8218 c -1.44323,-0.17664 -2.0868,-0.39846 -2.79746,-0.95166 -0.79692,-0.66547 -1.25838,-1.68422 -1.25838,-2.8358 0,-1.10775 0.3971,-2.14841 1.14884,-2.99052 0.90784,-1.04066 2.47978,-1.63904 4.29683,-1.63904 3.05625,0 4.9938,1.59522 4.9938,4.1421 0,2.1046 -1.31863,3.76554 -3.73132,4.69666 z m -3.18222,-6.84507 c -1.74859,0.24373 -2.54962,0.99684 -2.54962,2.34833 0,1.35149 0.62166,1.88277 2.54962,2.17032 z m 3.35886,16.45749 c 1.55004,-1.06257 2.06626,-1.8595 2.06626,-3.12198 0,-2.0156 -1.76638,-3.41775 -4.30368,-3.41775 -2.28123,0 -3.80799,1.21182 -3.80799,2.99601 0,0.79829 0.23278,1.08584 1.01738,1.30767 l 0.48747,0.13282 c 0.62029,0.17664 1.01875,0.5751 1.01875,1.04066 0,0.57647 -0.42174,1.06257 -0.93112,1.06257 -1.2392,0 -2.27713,-1.55004 -2.27713,-3.4109 0,-1.08448 0.44229,-2.21414 1.23647,-3.12335 0.97494,-1.10639 2.48116,-1.64863 4.23111,-1.64863 2.87961,0 4.97189,1.71709 4.97189,4.12978 0,0.99684 -0.3656,1.88277 -1.07353,2.68107 -0.53128,0.59701 -1.12966,1.01875 -2.43733,1.68286 z m -4.1421,4.55152 c -1.01875,0.9092 -1.35559,1.55962 -1.35559,2.40447 0,1.10775 0.7846,1.56646 2.30862,1.56646 h 4.38446 c 1.50622,0 1.79514,-0.20813 1.92796,-1.41173 h 0.36423 v 4.69666 h -0.36423 c -0.22182,-1.19676 -0.39846,-1.36792 -1.92796,-1.36792 h -4.40774 c -2.32505,0 -3.51771,-0.91742 -3.51771,-2.68655 0,-1.28439 0.53129,-2.19907 1.85676,-3.20139 h -6.73416 l -0.0657,-0.16569 c 0.26564,-0.75311 0.44228,-1.3063 0.79693,-2.54688 l 0.178,-0.59838 h 0.35328 c -0.0219,0.089 -0.0219,0.1561 -0.0219,0.26565 0,0.95302 0.17801,1.12829 1.12967,1.12829 h 10.43261 c 1.55141,0 1.74995,-0.13282 1.92796,-1.41585 h 0.36423 v 4.7843 h -0.36423 c -0.13282,-1.28439 -0.39846,-1.45144 -1.92796,-1.45144 z"
       style="fill:none;stroke:#999999;stroke-width:0.886011;stroke-linecap:butt;stroke-linejoin:miter;stroke-miterlimit:10;stroke-dasharray:none;stroke-opacity:1"
       id="path2988" /><g
       id="g3180"
       transform="matrix(0.13692895,0,0,0.13692895,-209.35443,-323.87696)"><g
         id="g3182"
         clip-path="url(#clipPath3186)"><path
           d="M 3634.87,5317.56 H 3264.96"
           style="fill:#000000;fill-opacity:1;fill-rule:evenodd;stroke:none"
           id="path3188" /><path
           d="M 3634.87,5317.56 H 3264.96"
           style="fill:none;stroke:#000000;stroke-width:2.49938;stroke-linecap:butt;stroke-linejoin:miter;stroke-miterlimit:10;stroke-dasharray:none;stroke-opacity:1"
           id="path3190" /></g></g><g
       id="g3192"
       transform="matrix(0.13692895,0,0,0.13692895,-209.35443,-323.87696)"><g
         id="g3194"
         clip-path="url(#clipPath3198)"><path
           d="m 3310.45,5327.56 -39.99,-10 39.99,-10"
           style="fill:none;stroke:#000000;stroke-width:2.49938;stroke-linecap:butt;stroke-linejoin:miter;stroke-miterlimit:10;stroke-dasharray:none;stroke-opacity:1"
           id="path3200" /></g></g><g
       id="g3202"
       transform="matrix(0.13692895,0,0,0.13692895,-209.35443,-323.87696)"><g
         id="g3204"
         clip-path="url(#clipPath3208)"><path
           d="m 3564.88,5252.58 v 329.91"
           style="fill:#000000;fill-opacity:1;fill-rule:evenodd;stroke:none"
           id="path3210" /><path
           d="m 3564.88,5252.58 v 329.91"
           style="fill:none;stroke:#000000;stroke-width:2.49938;stroke-linecap:butt;stroke-linejoin:miter;stroke-miterlimit:10;stroke-dasharray:none;stroke-opacity:1"
           id="path3212" /></g></g><g
       id="g3214"
       transform="matrix(0.13692895,0,0,0.13692895,-209.35443,-323.87696)"><g
         id="g3216"
         clip-path="url(#clipPath3220)"><path
           d="m 3574.88,5537.01 -10,39.99 -9.99,-39.99"
           style="fill:none;stroke:#000000;stroke-width:2.49938;stroke-linecap:butt;stroke-linejoin:miter;stroke-miterlimit:10;stroke-dasharray:none;stroke-opacity:1"
           id="path3222" /></g></g><g
       id="g3224"
       transform="matrix(0.13692895,0,0,0.13692895,-209.35443,-323.87696)"><g
         id="g3226"
         clip-path="url(#clipPath3230)"><path
           d="m 3528.56,5356.22 223.78,-223.61"
           style="fill:#000000;fill-opacity:1;fill-rule:evenodd;stroke:none"
           id="path3232" /><path
           d="m 3528.56,5356.22 223.78,-223.61"
           style="fill:none;stroke:#000000;stroke-width:2.49938;stroke-linecap:butt;stroke-linejoin:miter;stroke-miterlimit:10;stroke-dasharray:none;stroke-opacity:1"
           id="path3234" /></g></g><g
       id="g3236"
       transform="matrix(0.13692895,0,0,0.13692895,-209.35443,-323.87696)"><g
         id="g3238"
         clip-path="url(#clipPath3242)"><path
           d="m 3713.01,5157.6 35.5,-21.16 -21.33,35.32"
           style="fill:none;stroke:#000000;stroke-width:2.49938;stroke-linecap:butt;stroke-linejoin:miter;stroke-miterlimit:10;stroke-dasharray:none;stroke-opacity:1"
           id="path3244" /><g
           id="g3246"
           transform="scale(10)"><text
             transform="matrix(0,1,1,0,378.983,517.26)"
             style="font-style:oblique;font-variant:normal;font-weight:bold;font-size:4.24895px;font-family:Helvetica;-inkscape-font-specification:Helvetica-BoldOblique;writing-mode:lr-tb;fill:#000000;fill-opacity:1;fill-rule:nonzero;stroke:none"
             id="text3254"><tspan
               x="0"
               y="0"
               id="tspan3248">X</tspan><tspan
               x="31.492241"
               y="-24.743889"
               id="tspan3250">Y</tspan><tspan
               x="7.9980536"
               y="-48.487999"
               id="tspan3252">Z</tspan></text></g><path
           d="m 3142.49,6164.85 c 9.66,0 17.49,-7.83 17.49,-17.5 0,-9.66 -7.83,-17.49 -17.49,-17.49 -9.66,0 -17.5,7.83 -17.5,17.49 0,9.67 7.84,17.5 17.5,17.5"
           style="fill:#000000;fill-opacity:1;fill-rule:evenodd;stroke:none"
           id="path3256" /><path
           d="m 3142.49,6164.85 c 9.66,0 17.49,-7.83 17.49,-17.5 0,-9.66 -7.83,-17.49 -17.49,-17.49 -9.66,0 -17.5,7.83 -17.5,17.49 0,9.67 7.84,17.5 17.5,17.5 z"
           style="fill:none;stroke:#000000;stroke-width:2.49938;stroke-linecap:butt;stroke-linejoin:miter;stroke-miterlimit:10;stroke-dasharray:14.9963;stroke-dashoffset:0;stroke-opacity:1"
           id="path3258" /><path
           d="m 2892.55,6136.52 c 9.66,0 17.5,-7.83 17.5,-17.49 0,-9.66 -7.84,-17.5 -17.5,-17.5 -9.66,0 -17.5,7.84 -17.5,17.5 0,9.66 7.84,17.49 17.5,17.49"
           style="fill:#000000;fill-opacity:1;fill-rule:evenodd;stroke:none"
           id="path3260" /><path
           d="m 2892.55,6136.52 c 9.66,0 17.5,-7.83 17.5,-17.49 0,-9.66 -7.84,-17.5 -17.5,-17.5 -9.66,0 -17.5,7.84 -17.5,17.5 0,9.66 7.84,17.49 17.5,17.49 z"
           style="fill:none;stroke:#000000;stroke-width:2.49938;stroke-linecap:butt;stroke-linejoin:miter;stroke-miterlimit:10;stroke-dasharray:14.9963;stroke-dashoffset:0;stroke-opacity:1"
           id="path3262" /><path
           d="m 3309.11,5745.79 c 9.67,0 17.5,-7.84 17.5,-17.5 0,-9.66 -7.83,-17.49 -17.5,-17.49 -9.66,0 -17.49,7.83 -17.49,17.49 0,9.66 7.83,17.5 17.49,17.5"
           style="fill:#000000;fill-opacity:1;fill-rule:evenodd;stroke:none"
           id="path3264" /><path
           d="m 3309.11,5745.79 c 9.67,0 17.5,-7.84 17.5,-17.5 0,-9.66 -7.83,-17.49 -17.5,-17.49 -9.66,0 -17.49,7.83 -17.49,17.49 0,9.66 7.83,17.5 17.49,17.5 z"
           style="fill:none;stroke:#000000;stroke-width:2.49938;stroke-linecap:butt;stroke-linejoin:miter;stroke-miterlimit:10;stroke-dasharray:14.9963;stroke-dashoffset:0;stroke-opacity:1"
           id="path3266" /><path
           d="m 3364.93,6567.25 c 9.67,0 17.5,-7.83 17.5,-17.49 0,-9.67 -7.83,-17.5 -17.5,-17.5 -9.66,0 -17.49,7.83 -17.49,17.5 0,9.66 7.83,17.49 17.49,17.49"
           style="fill:#000000;fill-opacity:1;fill-rule:evenodd;stroke:none"
           id="path3268" /><path
           d="m 3364.93,6567.25 c 9.67,0 17.5,-7.83 17.5,-17.49 0,-9.67 -7.83,-17.5 -17.5,-17.5 -9.66,0 -17.49,7.83 -17.49,17.5 0,9.66 7.83,17.49 17.49,17.49 z"
           style="fill:none;stroke:#000000;stroke-width:2.49938;stroke-linecap:butt;stroke-linejoin:miter;stroke-miterlimit:10;stroke-dasharray:14.9963;stroke-dashoffset:0;stroke-opacity:1"
           id="path3270" /><path
           d="m 3092.5,6547.26 c 9.66,0 17.5,-7.84 17.5,-17.5 0,-9.66 -7.84,-17.5 -17.5,-17.5 -9.66,0 -17.49,7.84 -17.49,17.5 0,9.66 7.83,17.5 17.49,17.5"
           style="fill:#000000;fill-opacity:1;fill-rule:evenodd;stroke:none"
           id="path3272" /><path
           d="m 3092.5,6547.26 c 9.66,0 17.5,-7.84 17.5,-17.5 0,-9.66 -7.84,-17.5 -17.5,-17.5 -9.66,0 -17.49,7.84 -17.49,17.5 0,9.66 7.83,17.5 17.49,17.5 z"
           style="fill:none;stroke:#000000;stroke-width:2.49938;stroke-linecap:butt;stroke-linejoin:miter;stroke-miterlimit:10;stroke-dasharray:14.9963;stroke-dashoffset:0;stroke-opacity:1"
           id="path3274" /><path
           d="m 3537.39,6209.84 c 9.66,0 17.5,-7.83 17.5,-17.5 0,-9.66 -7.84,-17.49 -17.5,-17.49 -9.66,0 -17.49,7.83 -17.49,17.49 0,9.67 7.83,17.5 17.49,17.5"
           style="fill:#000000;fill-opacity:1;fill-rule:evenodd;stroke:none"
           id="path3276" /><path
           d="m 3537.39,6209.84 c 9.66,0 17.5,-7.83 17.5,-17.5 0,-9.66 -7.84,-17.49 -17.5,-17.49 -9.66,0 -17.49,7.83 -17.49,17.49 0,9.67 7.83,17.5 17.49,17.5 z"
           style="fill:none;stroke:#000000;stroke-width:2.49938;stroke-linecap:butt;stroke-linejoin:miter;stroke-miterlimit:10;stroke-dasharray:14.9963;stroke-dashoffset:0;stroke-opacity:1"
           id="path3278" /><path
           d="m 3619.87,5684.97 c 9.66,0 17.5,-7.83 17.5,-17.5 0,-9.66 -7.84,-17.49 -17.5,-17.49 -9.66,0 -17.49,7.83 -17.49,17.49 0,9.67 7.83,17.5 17.49,17.5"
           style="fill:#000000;fill-opacity:1;fill-rule:evenodd;stroke:none"
           id="path3280" /><path
           d="m 3619.87,5684.97 c 9.66,0 17.5,-7.83 17.5,-17.5 0,-9.66 -7.84,-17.49 -17.5,-17.49 -9.66,0 -17.49,7.83 -17.49,17.49 0,9.67 7.83,17.5 17.49,17.5 z"
           style="fill:none;stroke:#000000;stroke-width:2.49938;stroke-linecap:butt;stroke-linejoin:miter;stroke-miterlimit:10;stroke-dasharray:14.9963;stroke-dashoffset:0;stroke-opacity:1"
           id="path3282" /><path
           d="m 3844.81,6142.36 c 9.67,0 17.5,-7.84 17.5,-17.5 0,-9.66 -7.83,-17.5 -17.5,-17.5 -9.66,0 -17.49,7.84 -17.49,17.5 0,9.66 7.83,17.5 17.49,17.5"
           style="fill:#000000;fill-opacity:1;fill-rule:evenodd;stroke:none"
           id="path3284" /><path
           d="m 3844.81,6142.36 c 9.67,0 17.5,-7.84 17.5,-17.5 0,-9.66 -7.83,-17.5 -17.5,-17.5 -9.66,0 -17.49,7.84 -17.49,17.5 0,9.66 7.83,17.5 17.49,17.5 z"
           style="fill:none;stroke:#000000;stroke-width:2.49938;stroke-linecap:butt;stroke-linejoin:miter;stroke-miterlimit:10;stroke-dasharray:14.9963;stroke-dashoffset:0;stroke-opacity:1"
           id="path3286" /><path
           d="m 3312.45,6379.8 c 9.66,0 17.49,-7.84 17.49,-17.5 0,-9.66 -7.83,-17.49 -17.49,-17.49 -9.67,0 -17.5,7.83 -17.5,17.49 0,9.66 7.83,17.5 17.5,17.5"
           style="fill:#000000;fill-opacity:1;fill-rule:evenodd;stroke:none"
           id="path3288" /><path
           d="m 3312.45,6379.8 c 9.66,0 17.49,-7.84 17.49,-17.5 0,-9.66 -7.83,-17.49 -17.49,-17.49 -9.67,0 -17.5,7.83 -17.5,17.49 0,9.66 7.83,17.5 17.5,17.5 z"
           style="fill:none;stroke:#000000;stroke-width:2.49938;stroke-linecap:butt;stroke-linejoin:miter;stroke-miterlimit:10;stroke-dasharray:14.9963;stroke-dashoffset:0;stroke-opacity:1"
           id="path3290" /><path
           d="m 3229.97,6569.75 c 9.66,0 17.49,-7.83 17.49,-17.5 0,-9.66 -7.83,-17.49 -17.49,-17.49 -9.67,0 -17.5,7.83 -17.5,17.49 0,9.67 7.83,17.5 17.5,17.5"
           style="fill:#000000;fill-opacity:1;fill-rule:evenodd;stroke:none"
           id="path3292" /><path
           d="m 3229.97,6569.75 c 9.66,0 17.49,-7.83 17.49,-17.5 0,-9.66 -7.83,-17.49 -17.49,-17.49 -9.67,0 -17.5,7.83 -17.5,17.49 0,9.67 7.83,17.5 17.5,17.5 z"
           style="fill:none;stroke:#000000;stroke-width:2.49938;stroke-linecap:butt;stroke-linejoin:miter;stroke-miterlimit:10;stroke-dasharray:14.9963;stroke-dashoffset:0;stroke-opacity:1"
           id="path3294" /><path
           d="m 2940.04,6364.8 c 9.66,0 17.49,-7.83 17.49,-17.49 0,-9.67 -7.83,-17.5 -17.49,-17.5 -9.66,0 -17.5,7.83 -17.5,17.5 0,9.66 7.84,17.49 17.5,17.49"
           style="fill:#000000;fill-opacity:1;fill-rule:evenodd;stroke:none"
           id="path3296" /><path
           d="m 2940.04,6364.8 c 9.66,0 17.49,-7.83 17.49,-17.49 0,-9.67 -7.83,-17.5 -17.49,-17.5 -9.66,0 -17.5,7.83 -17.5,17.5 0,9.66 7.84,17.49 17.5,17.49 z"
           style="fill:none;stroke:#000000;stroke-width:2.49938;stroke-linecap:butt;stroke-linejoin:miter;stroke-miterlimit:10;stroke-dasharray:14.9963;stroke-dashoffset:0;stroke-opacity:1"
           id="path3298" /><path
           d="m 3212.47,6387.3 c 9.66,0 17.5,-7.84 17.5,-17.5 0,-9.66 -7.84,-17.5 -17.5,-17.5 -9.66,0 -17.49,7.84 -17.49,17.5 0,9.66 7.83,17.5 17.49,17.5"
           style="fill:#000000;fill-opacity:1;fill-rule:evenodd;stroke:none"
           id="path3300" /><path
           d="m 3212.47,6387.3 c 9.66,0 17.5,-7.84 17.5,-17.5 0,-9.66 -7.84,-17.5 -17.5,-17.5 -9.66,0 -17.49,7.84 -17.49,17.5 0,9.66 7.83,17.5 17.49,17.5 z"
           style="fill:none;stroke:#000000;stroke-width:2.49938;stroke-linecap:butt;stroke-linejoin:miter;stroke-miterlimit:10;stroke-dasharray:14.9963;stroke-dashoffset:0;stroke-opacity:1"
           id="path3302" /><path
           d="m 3372.43,5969.9 c 9.66,0 17.5,-7.83 17.5,-17.5 0,-9.66 -7.84,-17.49 -17.5,-17.49 -9.66,0 -17.49,7.83 -17.49,17.49 0,9.67 7.83,17.5 17.49,17.5"
           style="fill:#000000;fill-opacity:1;fill-rule:evenodd;stroke:none"
           id="path3304" /><path
           d="m 3372.43,5969.9 c 9.66,0 17.5,-7.83 17.5,-17.5 0,-9.66 -7.84,-17.49 -17.5,-17.49 -9.66,0 -17.49,7.83 -17.49,17.49 0,9.67 7.83,17.5 17.49,17.5 z"
           style="fill:none;stroke:#000000;stroke-width:2.49938;stroke-linecap:butt;stroke-linejoin:miter;stroke-miterlimit:10;stroke-dasharray:14.9963;stroke-dashoffset:0;stroke-opacity:1"
           id="path3306" /><path
           d="m 3122.49,5967.4 c 9.67,0 17.5,-7.83 17.5,-17.5 0,-9.66 -7.83,-17.49 -17.5,-17.49 -9.66,0 -17.49,7.83 -17.49,17.49 0,9.67 7.83,17.5 17.49,17.5"
           style="fill:#000000;fill-opacity:1;fill-rule:evenodd;stroke:none"
           id="path3308" /><path
           d="m 3122.49,5967.4 c 9.67,0 17.5,-7.83 17.5,-17.5 0,-9.66 -7.83,-17.49 -17.5,-17.49 -9.66,0 -17.49,7.83 -17.49,17.49 0,9.67 7.83,17.5 17.49,17.5 z"
           style="fill:none;stroke:#000000;stroke-width:2.49938;stroke-linecap:butt;stroke-linejoin:miter;stroke-miterlimit:10;stroke-dasharray:14.9963;stroke-dashoffset:0;stroke-opacity:1"
           id="path3310" /><path
           d="m 3492.4,5899.92 c 9.66,0 17.5,-7.84 17.5,-17.5 0,-9.66 -7.84,-17.5 -17.5,-17.5 -9.66,0 -17.49,7.84 -17.49,17.5 0,9.66 7.83,17.5 17.49,17.5"
           style="fill:#000000;fill-opacity:1;fill-rule:evenodd;stroke:none"
           id="path3312" /><path
           d="m 3492.4,5899.92 c 9.66,0 17.5,-7.84 17.5,-17.5 0,-9.66 -7.84,-17.5 -17.5,-17.5 -9.66,0 -17.49,7.84 -17.49,17.5 0,9.66 7.83,17.5 17.49,17.5 z"
           style="fill:none;stroke:#000000;stroke-width:2.49938;stroke-linecap:butt;stroke-linejoin:miter;stroke-miterlimit:10;stroke-dasharray:14.9963;stroke-dashoffset:0;stroke-opacity:1"
           id="path3314" /><path
           d="m 3692.35,6172.35 c 9.67,0 17.5,-7.83 17.5,-17.5 0,-9.66 -7.83,-17.49 -17.5,-17.49 -9.66,0 -17.49,7.83 -17.49,17.49 0,9.67 7.83,17.5 17.49,17.5"
           style="fill:#000000;fill-opacity:1;fill-rule:evenodd;stroke:none"
           id="path3316" /><path
           d="m 3692.35,6172.35 c 9.67,0 17.5,-7.83 17.5,-17.5 0,-9.66 -7.83,-17.49 -17.5,-17.49 -9.66,0 -17.49,7.83 -17.49,17.49 0,9.67 7.83,17.5 17.49,17.5 z"
           style="fill:none;stroke:#000000;stroke-width:2.49938;stroke-linecap:butt;stroke-linejoin:miter;stroke-miterlimit:10;stroke-dasharray:14.9963;stroke-dashoffset:0;stroke-opacity:1"
           id="path3318" /><path
           d="m 3484.9,5724.96 c 9.67,0 17.5,-7.83 17.5,-17.5 0,-9.66 -7.83,-17.49 -17.5,-17.49 -9.66,0 -17.49,7.83 -17.49,17.49 0,9.67 7.83,17.5 17.49,17.5"
           style="fill:#000000;fill-opacity:1;fill-rule:evenodd;stroke:none"
           id="path3320" /><path
           d="m 3484.9,5724.96 c 9.67,0 17.5,-7.83 17.5,-17.5 0,-9.66 -7.83,-17.49 -17.5,-17.49 -9.66,0 -17.49,7.83 -17.49,17.49 0,9.67 7.83,17.5 17.49,17.5 z"
           style="fill:none;stroke:#000000;stroke-width:2.49938;stroke-linecap:butt;stroke-linejoin:miter;stroke-miterlimit:10;stroke-dasharray:14.9963;stroke-dashoffset:0;stroke-opacity:1"
           id="path3322" /><path
           d="m 3025.02,6169.85 c 9.66,0 17.49,-7.83 17.49,-17.5 0,-9.66 -7.83,-17.49 -17.49,-17.49 -9.66,0 -17.5,7.83 -17.5,17.49 0,9.67 7.84,17.5 17.5,17.5"
           style="fill:#000000;fill-opacity:1;fill-rule:evenodd;stroke:none"
           id="path3324" /><path
           d="m 3025.02,6169.85 c 9.66,0 17.49,-7.83 17.49,-17.5 0,-9.66 -7.83,-17.49 -17.49,-17.49 -9.66,0 -17.5,7.83 -17.5,17.49 0,9.67 7.84,17.5 17.5,17.5 z"
           style="fill:none;stroke:#000000;stroke-width:2.49938;stroke-linecap:butt;stroke-linejoin:miter;stroke-miterlimit:10;stroke-dasharray:14.9963;stroke-dashoffset:0;stroke-opacity:1"
           id="path3326" /><path
           d="m 3782.33,5844.93 c 9.66,0 17.5,-7.83 17.5,-17.5 0,-9.66 -7.84,-17.49 -17.5,-17.49 -9.66,0 -17.5,7.83 -17.5,17.49 0,9.67 7.84,17.5 17.5,17.5"
           style="fill:#000000;fill-opacity:1;fill-rule:evenodd;stroke:none"
           id="path3328" /><path
           d="m 3782.33,5844.93 c 9.66,0 17.5,-7.83 17.5,-17.5 0,-9.66 -7.84,-17.49 -17.5,-17.49 -9.66,0 -17.5,7.83 -17.5,17.49 0,9.67 7.84,17.5 17.5,17.5 z"
           style="fill:none;stroke:#000000;stroke-width:2.49938;stroke-linecap:butt;stroke-linejoin:miter;stroke-miterlimit:10;stroke-dasharray:14.9963;stroke-dashoffset:0;stroke-opacity:1"
           id="path3330" /><path
           d="m 3594.88,6397.29 c 9.66,0 17.49,-7.83 17.49,-17.49 0,-9.67 -7.83,-17.5 -17.49,-17.5 -9.67,0 -17.5,7.83 -17.5,17.5 0,9.66 7.83,17.49 17.5,17.49"
           style="fill:#000000;fill-opacity:1;fill-rule:evenodd;stroke:none"
           id="path3332" /><path
           d="m 3594.88,6397.29 c 9.66,0 17.49,-7.83 17.49,-17.49 0,-9.67 -7.83,-17.5 -17.49,-17.5 -9.67,0 -17.5,7.83 -17.5,17.5 0,9.66 7.83,17.49 17.5,17.49 z"
           style="fill:none;stroke:#000000;stroke-width:2.49938;stroke-linecap:butt;stroke-linejoin:miter;stroke-miterlimit:10;stroke-dasharray:14.9963;stroke-dashoffset:0;stroke-opacity:1"
           id="path3334" /><path
           d="m 3537.39,6193.68 v 2.5"
           style="fill:none;stroke:#000000;stroke-width:2.49938;stroke-linecap:butt;stroke-linejoin:miter;stroke-miterlimit:10;stroke-dasharray:none;stroke-opacity:1"
           id="path3336" /><path
           d="M 3537.39,6194.84 3087.5,6532.26"
           style="fill:none;stroke:#000000;stroke-width:2.49938;stroke-linecap:butt;stroke-linejoin:miter;stroke-miterlimit:10;stroke-dasharray:none;stroke-opacity:1"
           id="path3338" /></g></g><g
       id="g3340"
       transform="matrix(0.13692895,0,0,0.13692895,-209.35443,-323.87696)"><g
         id="g3342"
         clip-path="url(#clipPath3346)"><path
           d="m 3594.88,5957.4 247.44,-279.93"
           style="fill:#000000;fill-opacity:1;fill-rule:evenodd;stroke:none"
           id="path3348" /><path
           d="m 3594.88,5957.4 247.44,-279.93"
           style="fill:none;stroke:#000000;stroke-width:2.49938;stroke-linecap:butt;stroke-linejoin:miter;stroke-miterlimit:10;stroke-dasharray:none;stroke-opacity:1"
           id="path3350" /></g></g><g
       id="g3352"
       transform="matrix(0.13692895,0,0,0.13692895,-209.35443,-323.87696)"><g
         id="g3354"
         clip-path="url(#clipPath3358)"><path
           d="m 3804.66,5704.96 33.99,-23.32 -19,36.49"
           style="fill:none;stroke:#000000;stroke-width:2.49938;stroke-linecap:butt;stroke-linejoin:miter;stroke-miterlimit:10;stroke-dasharray:none;stroke-opacity:1"
           id="path3360" /></g></g><g
       id="g3362"
       transform="matrix(0.13692895,0,0,0.13692895,-209.35443,-323.87696)"><g
         id="g3364"
         clip-path="url(#clipPath3368)"><path
           d="m 3239.96,6169.85 -402.4,22.49"
           style="fill:#000000;fill-opacity:1;fill-rule:evenodd;stroke:none"
           id="path3370" /><path
           d="m 3239.96,6169.85 -402.4,22.49"
           style="fill:none;stroke:#000000;stroke-width:2.49938;stroke-linecap:butt;stroke-linejoin:miter;stroke-miterlimit:10;stroke-dasharray:none;stroke-opacity:1"
           id="path3372" /></g></g><g
       id="g3374"
       transform="matrix(0.13692895,0,0,0.13692895,-209.35443,-323.87696)"><g
         id="g3376"
         clip-path="url(#clipPath3380)"><path
           d="m 2883.39,6199.68 -40.33,-7.67 39.33,-12.33"
           style="fill:none;stroke:#000000;stroke-width:2.49938;stroke-linecap:butt;stroke-linejoin:miter;stroke-miterlimit:10;stroke-dasharray:none;stroke-opacity:1"
           id="path3382" /></g></g><g
       id="g3384"
       transform="matrix(0.13692895,0,0,0.13692895,-209.35443,-323.87696)"><g
         id="g3386"
         clip-path="url(#clipPath3390)"><path
           d="m 3529.89,6314.81 107.48,364.91"
           style="fill:#000000;fill-opacity:1;fill-rule:evenodd;stroke:none"
           id="path3392" /><path
           d="m 3529.89,6314.81 107.48,364.91"
           style="fill:none;stroke:#000000;stroke-width:2.49938;stroke-linecap:butt;stroke-linejoin:miter;stroke-miterlimit:10;stroke-dasharray:none;stroke-opacity:1"
           id="path3394" /></g></g><g
       id="g3396"
       transform="matrix(0.13692895,0,0,0.13692895,-209.35443,-323.87696)"><g
         id="g3398"
         clip-path="url(#clipPath3402)"><path
           d="m 3634.03,6633.07 1.84,41.32 -21,-35.66"
           style="fill:none;stroke:#000000;stroke-width:2.49938;stroke-linecap:butt;stroke-linejoin:miter;stroke-miterlimit:10;stroke-dasharray:none;stroke-opacity:1"
           id="path3404" /><path
           d="m 3090,6529.76 -0.17,-0.17 -0.33,-0.16 -0.5,-0.34 -0.83,-0.66 -1.17,-1 -1.66,-1.17 -2,-1.67 -2.5,-1.99 -2.84,-2.17 -3.33,-2.67 -3.66,-3 -4,-3.33 -4.5,-3.66 -4.5,-4 -4.83,-4.17 -5.17,-4.5 -5.16,-4.66 -5.17,-5 -5.5,-5.17 -5.5,-5.33 -5.49,-5.66 -5.5,-6 -5.67,-6.17 -5.66,-6.5 -5.67,-6.83 -5.83,-7.16 -5.67,-7.67 -5.99,-8.16 -5.84,-8.5 -6,-9.17 -5.99,-9.66 -6,-10.16 -5.83,-10.83 -5.84,-11.17 -5.66,-11.5 -5,-11.16 -4.83,-11 -4.33,-10.99 -4,-10.83 -3.5,-10.34 -3.34,-10.33 -2.83,-9.83 -2.66,-9.49 -2.34,-9.34 -2.16,-8.99 -1.84,-8.83 -1.5,-8.5 -1.49,-8.33 -1.17,-8.17 -1.17,-8 -1,-7.83 -0.83,-7.66 -0.67,-7.5 -0.5,-7.17 -0.5,-7.16 -0.5,-6.67 -0.33,-6.66 -0.33,-6.17 -0.17,-5.83 -0.17,-5.33 -0.16,-5 v -4.5 l -0.17,-4 v -14.33"
           style="fill:none;stroke:#000000;stroke-width:2.49938;stroke-linecap:butt;stroke-linejoin:bevel;stroke-miterlimit:10;stroke-dasharray:none;stroke-opacity:1"
           id="path3406" /><path
           d="m 2892.55,6109.86 h 0.17 l 0.16,-0.16 0.5,-0.34 0.84,-0.33 1.16,-0.5 1.67,-0.83 1.83,-1 2.5,-1.17 2.83,-1.33 3.34,-1.67 3.83,-2 4.16,-2.16 4.67,-2.34 5,-2.5 5.33,-2.83 5.5,-3 6,-3.16 6.16,-3.34 6.34,-3.49 6.49,-3.67 6.67,-4 7,-4 7,-4.16 7.16,-4.5 7.33,-4.5 7.5,-4.83 7.66,-5.17 8,-5.33 8.17,-5.67 8.33,-5.83 8.5,-6.33 8.99,-6.67 9.17,-7.16 9.33,-7.5 9.83,-7.83 10,-8.33 10.16,-8.83 10.33,-9.17 10.33,-9.33 10.17,-9.5 10,-9.66 9.66,-9.5 9.33,-9.5 8.83,-9.16 8.5,-9 8,-8.66 7.66,-8.67 7.17,-8.16 7,-8.17 6.49,-7.83 6.34,-7.83 5.99,-7.5 5.84,-7.49 5.49,-7.17 5.34,-7.16 5.16,-7 5,-6.83 4.67,-6.84 4.66,-6.49 4.33,-6.34 4.34,-6.33 4,-5.83 3.83,-5.67 3.5,-5.49 3.33,-5 3,-4.67 2.66,-4.33 2.5,-3.83 2.17,-3.34 1.83,-2.99 1.67,-2.5 1.17,-2 1,-1.5 0.83,-1.17 0.5,-0.83 0.33,-0.67 0.17,-0.17 v -0.16"
           style="fill:none;stroke:#000000;stroke-width:2.49938;stroke-linecap:butt;stroke-linejoin:bevel;stroke-miterlimit:10;stroke-dasharray:none;stroke-opacity:1"
           id="path3408" /><path
           d="m 3537.39,6197.34 314.92,-74.98"
           style="fill:none;stroke:#000000;stroke-width:2.49938;stroke-linecap:butt;stroke-linejoin:bevel;stroke-miterlimit:10;stroke-dasharray:none;stroke-opacity:1"
           id="path3410" /><path
           d="m 3852.31,6122.36 v -1.17 l -0.16,-1 v -1.49 l -0.17,-2.17 -0.17,-2.5 -0.16,-3.17 -0.17,-3.66 -0.33,-4.33 -0.34,-4.84 -0.5,-5.5 -0.5,-5.99 -0.5,-6.34 -0.66,-6.83 -0.67,-7.16 -0.67,-7.5 -1,-7.83 -0.83,-8.17 -1.16,-8.16 -1.17,-8.5 -1.17,-8.66 -1.5,-8.83 -1.5,-9 -1.66,-9 -1.84,-9.33 -2.16,-9.33 -2.17,-9.67 -2.5,-9.83 -2.66,-9.99 -3,-10.34 -3.34,-10.49 -3.66,-10.67 -3.83,-10.99 -4.34,-11.33 -4.66,-11.5 -4.83,-11.5 -5.34,-11.66 -5.66,-11.5 -6.17,-11.83 -6.33,-11.5 -6.5,-10.83 -6.33,-10.33 -6.5,-9.83 -6.33,-9.16 -6.33,-8.5 -6.16,-8 -6.17,-7.5 -6,-7 -6,-6.66 -5.83,-6.17 -5.83,-6 -5.83,-5.49 -5.83,-5.34 -5.67,-4.99 -5.5,-4.67 -5.66,-4.67 -5.34,-4.16 -5.33,-4.17 -5.16,-3.83 -5,-3.67 -4.67,-3.33 -4.5,-3 -4.33,-3 -3.83,-2.5 -3.5,-2.33 -3.17,-2 -2.66,-1.66 -2.33,-1.5 -1.84,-1.17 -1.5,-1 -1.16,-0.67 -0.84,-0.5 -0.5,-0.33 -0.16,-0.17 h -0.17"
           style="fill:none;stroke:#000000;stroke-width:2.49938;stroke-linecap:butt;stroke-linejoin:bevel;stroke-miterlimit:10;stroke-dasharray:none;stroke-opacity:1"
           id="path3412" /><path
           d="m 3619.87,5672.47 -0.17,0.17 -0.16,0.17 -0.34,0.5 -0.66,0.66 -0.84,1 -1.16,1.5 -1.5,1.83 -1.83,2.17 -2.34,2.83 -2.66,3.17 -3,3.5 -3.33,4.16 -3.84,4.5 -4.16,5 -4.5,5.5 -5,5.66 -5.17,6.17 -5.33,6.5 -5.83,6.83 -6,7 -6.16,7.33 -6.34,7.5 -6.49,7.66 -6.67,7.83 -6.83,8 -7,8 -7.16,8.16 -7.17,8.34 -7.33,8.33 -7.5,8.5 -7.5,8.66 -7.66,8.66 -7.83,8.84 -8,8.83 -8.17,8.99 -8.33,9.17 -8.49,9.33 -8.67,9.33 -9,9.67 -8.99,9.66 -9.34,9.83 -9.49,10 -9.83,10.16 -9.83,10.17 -9.84,10.16 -9.99,10 -10,10 -12.33,12.16 -12,11.66 -11.5,11 -10.99,10.33 -10.33,9.67 -9.83,8.99 -9.17,8.33 -8.66,7.67 -8.33,7 -7.67,6.66 -7.33,6 -7,5.67 -6.5,5.33 -6.33,5 -6,4.5 -5.83,4.33 -5.5,4 -5.33,3.83 -5,3.5 -4.83,3.33 -4.5,3.17 -4.33,2.83 -4,2.67 -3.67,2.33 -3.5,2.16 -3.16,2 -2.83,1.67 -2.34,1.5 -2.16,1.33 -1.84,1.17 -1.5,0.83 -1,0.67 -1,0.5 -0.5,0.33 -0.33,0.17 -0.17,0.17 h -0.16"
           style="fill:none;stroke:#000000;stroke-width:2.49938;stroke-linecap:butt;stroke-linejoin:bevel;stroke-miterlimit:10;stroke-dasharray:14.9963;stroke-dashoffset:0;stroke-opacity:1"
           id="path3414" /><path
           d="m 3149.99,6144.86 h -0.17 l -0.5,0.16 h -0.67 l -1.33,0.34 -1.67,0.16 -2.16,0.5 -2.67,0.33 -3.16,0.5 -3.67,0.5 -4,0.67 -4.33,0.5 -4.5,0.67 -4.83,0.66 -5,0.5 -5.33,0.5 -5.33,0.5 -5.84,0.5 -5.99,0.34 -6.34,0.33 -6.66,0.33 -7.17,0.17 h -7.49 l -8,-0.17 -8.5,-0.16 -8.5,-0.34 -9.16,-0.5 -8.83,-0.66 -8,-0.84 -7.17,-0.66 -6.16,-0.67 -5.17,-0.67 -4.33,-0.66 -3.67,-0.5 -2.83,-0.67 -2.5,-0.5 -2.16,-0.5 -1.84,-0.33 -2,-0.5 -2,-0.67 -2.16,-0.5 -2.5,-0.66 -3.17,-0.67 -3.5,-0.83 -4.33,-1 -4.83,-1.17 -5.5,-1.17 -5.83,-1.5 -6.33,-1.5 -6,-1.5 -5.67,-1.49 -4.83,-1.5 -4.16,-1.5 -3.67,-1.34 -3,-1.16 -2.33,-1.17 -2,-1.17 -1.67,-1 -1.16,-1 -1,-1 -0.67,-0.83 -0.67,-0.83 -0.33,-0.83 -0.17,-0.67 -0.16,-0.67 v -1.16 l 0.16,-0.5 v -0.5 l 0.17,-0.17 v -0.17"
           style="fill:none;stroke:#000000;stroke-width:2.49938;stroke-linecap:butt;stroke-linejoin:bevel;stroke-miterlimit:10;stroke-dasharray:14.9963;stroke-dashoffset:0;stroke-opacity:1"
           id="path3416" /><path
           d="m 3622.37,5667.47 h -0.17 l -0.33,0.34 -0.5,0.33 -0.83,0.5 -1.34,0.67 -1.66,0.83 -2,1.17 -2.5,1.33 -2.83,1.5 -3.17,1.66 -3.5,1.84 -3.83,1.83 -4.17,2 -4.5,2.17 -4.66,2 -5,2.16 -5.33,2.17 -5.83,2.16 -6.17,2.17 -6.5,2.17 -7.16,2.33 -7.83,2.17 -8.33,2.33 -9.17,2.33 -9.83,2.33 -10.66,2.34 -11,2.16 -10,1.83 -9.83,1.67 -9.83,1.5 -9.5,1.33 -9.33,1.17 -9,1.17 -8.66,1 -8.33,0.66 -8.17,0.84 -8,0.66 -7.66,0.5 -7.5,0.5 -7.33,0.34 -7.33,0.33 -7,0.33 -6.66,0.17 -6.67,0.33 -6.33,0.17 h -6 l -5.5,0.17 -5.16,0.16 h -8.84 l -3.66,0.17 h -9.83"
           style="fill:none;stroke:#000000;stroke-width:2.49938;stroke-linecap:butt;stroke-linejoin:bevel;stroke-miterlimit:10;stroke-dasharray:none;stroke-opacity:1"
           id="path3418" /><path
           d="m 3144.99,6147.35 v 10.84 l 0.16,3.49 0.17,3.84 0.17,4.33 0.16,4.83 0.34,5.17 0.5,5.5 0.5,5.83 0.5,6.16 0.83,6.33 0.83,6.67 1.17,6.83 1.17,7 1.5,7.33 1.66,7.67 2,7.83 2.17,8.16 2.5,8.5 3,9 3.33,9.33 3.66,9.83 4.34,10.33 4.66,10.66 5.33,11.17 5.67,11.66 6.17,11.67 5.83,10.49 6.16,10.33 6.17,10.17 6.16,9.66 6.33,9.5 6.17,9 6.16,8.66 6.17,8.33 6,7.83 6,7.67 5.99,7.33 6,7.17 5.84,6.83 5.83,6.66 5.83,6.5 5.66,6.17 5.67,6.16 5.66,5.83 5.5,5.67 5.5,5.5 5.17,5.33 5.16,5 4.84,4.66 4.49,4.5 4.34,4.17 4,3.66 3.66,3.5 3.17,3 2.83,2.67 2.33,2.16 2,1.84 1.5,1.33 1.17,1.17 0.83,0.66 0.5,0.5 0.17,0.17 0.16,0.17"
           style="fill:none;stroke:#000000;stroke-width:2.49938;stroke-linecap:butt;stroke-linejoin:bevel;stroke-miterlimit:10;stroke-dasharray:14.9963;stroke-dashoffset:0;stroke-opacity:1"
           id="path3420" /><path
           d="m 3304.95,5727.46 h 0.16 l 0.34,0.16 0.5,0.17 1,0.33 1.33,0.5 1.83,0.67 2.34,0.83 2.66,1 3.34,1.34 3.83,1.5 4.16,1.66 4.67,1.84 5,2.16 5.33,2.33 5.66,2.67 5.84,2.83 6.16,3 6.33,3.17 6.34,3.5 6.49,3.66 6.67,4 6.5,4.17 6.66,4.5 6.67,4.83 6.83,5.33 6.66,5.5 6.84,6 6.83,6.5 6.83,6.99 6.83,7.67 6.83,8.16 6.83,8.84 6.84,9.49 6.83,10.17 6.83,10.83 6.5,11.66 6.16,12 5.33,11.33 4.84,11.33 4.66,11.5 4.17,11.49 3.66,11.33 3.34,11.17 3.16,11.16 2.67,10.83 2.33,10.67 2,10.33 1.83,10.33 1.5,10.16 1.34,10 1.16,9.83 1,9.67 0.67,9.66 0.66,9.5 0.5,9.33 0.34,9.16 0.16,9 0.17,9 v 17.16 l -0.17,8.17 -0.16,7.83 -0.17,7.5 -0.17,6.99 -0.33,6.67 -0.33,6 -0.17,5.66 -0.33,5 -0.17,4.33 -0.17,3.84 -0.33,3.16 -0.17,2.5 v 2.17 l -0.16,1.5 v 1 l -0.17,0.66 v 0.5"
           style="fill:none;stroke:#000000;stroke-width:2.49938;stroke-linecap:butt;stroke-linejoin:bevel;stroke-miterlimit:10;stroke-dasharray:none;stroke-opacity:1"
           id="path3422" /><path
           d="m 3844.81,6129.86 -0.16,0.17 -0.17,0.16 -0.33,0.34 -0.5,0.66 -0.83,1 -1.17,1.17 -1.5,1.66 -1.83,1.84 -2.17,2.5 -2.5,2.66 -3,3.17 -3.33,3.66 -3.5,3.84 -4,4.33 -4.33,4.66 -4.67,5 -5,5.17 -5.16,5.66 -5.5,5.67 -5.66,6 -5.84,6.33 -6,6.33 -6.16,6.5 -6.5,6.66 -6.5,6.67 -6.66,7 -6.83,7 -7,6.99 -7,7.17 -7.33,7.33 -7.5,7.5 -7.66,7.5 -7.84,7.83 -7.99,7.83 -8.34,8 -8.49,8.16 -8.83,8.5 -9.17,8.5 -9.33,8.83 -9.66,8.83 -9.84,9.17 -10.16,9.16 -10.5,9.33 -10.49,9.33 -10.5,9.17 -12,10.49 -11.83,10 -11.5,9.67 -11.16,9.16 -10.66,8.83 -10.17,8.17 -9.83,7.83 -9.33,7.33 -8.83,6.83 -8.5,6.5 -8.16,6 -7.84,5.83 -7.49,5.5 -7.33,5.16 -7,5 -6.83,4.67 -6.5,4.5 -6.33,4.33 -6.17,4.16 -6,3.84 -5.66,3.66 -5.5,3.5 -5.17,3.33 -5,3.17 -4.66,3 -4.33,2.66 -4,2.5 -3.67,2.17 -3.16,2 -2.84,1.67 -2.5,1.5 -2,1.33 -1.83,1 -1.17,0.66 -1,0.67 -0.66,0.33 -0.5,0.34 -0.17,0.16 h -0.17"
           style="fill:none;stroke:#000000;stroke-width:2.49938;stroke-linecap:butt;stroke-linejoin:bevel;stroke-miterlimit:10;stroke-dasharray:none;stroke-opacity:1"
           id="path3424" /><path
           d="m 3364.93,6549.76 h -0.5 l -0.83,0.16 -1,0.17 -1.67,0.17 -1.99,0.16 -2.5,0.33 -3,0.34 -3.34,0.33 -3.83,0.33 -4.16,0.5 -4.5,0.34 -4.84,0.33 -4.99,0.33 -5.34,0.34 -5.49,0.33 -5.84,0.33 -6,0.17 -6.49,0.17 h -21.33 l -8,-0.17 -8.5,-0.33 -9.16,-0.5 -9.33,-0.67 -9.83,-0.67 -9.83,-0.83 -9.5,-1 -9.33,-1 -8.83,-1.16 -8.34,-1.17 -7.99,-1.17 -7.5,-1.16 -7.17,-1.17 -6.83,-1.33 -6.66,-1.17 -6.34,-1.33 -6.16,-1.17 -5.83,-1.33 -5.67,-1.17 -5.33,-1.16 -5,-1.17 -4.83,-1.17 -4.33,-1 -3.83,-1 -3.5,-0.83 -2.84,-0.83 -2.33,-0.5 -1.83,-0.5 -1.17,-0.34 -0.83,-0.16 -0.5,-0.17 H 3090"
           style="fill:none;stroke:#000000;stroke-width:2.49938;stroke-linecap:butt;stroke-linejoin:bevel;stroke-miterlimit:10;stroke-dasharray:none;stroke-opacity:1"
           id="path3426" /><g
           id="g3428"
           transform="scale(10)"><text
             transform="matrix(0,1,1,0,359.988,675.221)"
             style="font-style:oblique;font-variant:normal;font-weight:bold;font-size:4.49889px;font-family:Helvetica;-inkscape-font-specification:Helvetica-BoldOblique;writing-mode:lr-tb;fill:#000000;fill-opacity:1;fill-rule:nonzero;stroke:none"
             id="text3434"><tspan
               x="0"
               y="0"
               id="tspan3430">s</tspan><tspan
               x="-55.236473"
               y="-78.480438"
               id="tspan3432">t</tspan></text><text
             transform="matrix(0,1,1,0,306.001,654.226)"
             style="font-style:oblique;font-variant:normal;font-weight:bold;font-size:4.99876px;font-family:Helvetica;-inkscape-font-specification:Helvetica-BoldOblique;writing-mode:lr-tb;fill:#000000;fill-opacity:1;fill-rule:nonzero;stroke:none"
             id="text3448"><tspan
               x="0"
               y="0"
               id="tspan3436">2</tspan><tspan
               x="-46.238529"
               y="-18.995289"
               id="tspan3438">3</tspan><tspan
               x="-85.728737"
               y="22.744358"
               id="tspan3440">4</tspan><tspan
               x="-45.98859"
               y="75.481277"
               id="tspan3442">5</tspan><tspan
               x="-5.7485242"
               y="31.24225"
               id="tspan3444">6</tspan><tspan
               x="-45.488716"
               y="10.997272"
               id="tspan3446">7</tspan></text><text
             transform="matrix(0,1,1,0,390.48,569.497)"
             style="font-style:oblique;font-variant:normal;font-weight:bold;font-size:4.49889px;font-family:Helvetica;-inkscape-font-specification:Helvetica-BoldOblique;writing-mode:lr-tb;fill:#000000;fill-opacity:1;fill-rule:nonzero;stroke:none"
             id="text3452"><tspan
               x="0"
               y="0"
               id="tspan3450">r</tspan></text><text
             transform="matrix(0,1,1,0,331.994,630.981)"
             style="font-style:oblique;font-variant:normal;font-weight:bold;font-size:4.99876px;font-family:Helvetica;-inkscape-font-specification:Helvetica-BoldOblique;writing-mode:lr-tb;fill:#000000;fill-opacity:1;fill-rule:nonzero;stroke:none"
             id="text3482"><tspan
               x="0"
               y="0"
               id="tspan3454">9</tspan><tspan
               x="-38.490452 -35.71114"
               y="17.245722"
               sodipodi:role="line"
               id="tspan3456">12</tspan><tspan
               x="-40.739914 -37.960602"
               y="2.7493179"
               sodipodi:role="line"
               id="tspan3458">15</tspan><tspan
               x="26.243469 29.022781"
               y="-5.9985118"
               sodipodi:role="line"
               id="tspan3460">18</tspan><tspan
               x="4.7488022 7.5281124"
               y="-13.496652"
               sodipodi:role="line"
               id="tspan3462">14</tspan><tspan
               x="6.748311 9.5276213"
               y="32.991817"
               sodipodi:role="line"
               id="tspan3464">13</tspan><tspan
               x="-13.246729 -10.467419"
               y="38.240513"
               sodipodi:role="line"
               id="tspan3466">17</tspan><tspan
               x="-14.496384"
               y="17.995537"
               id="tspan3468">1</tspan><tspan
               x="6.2484202 9.0277309"
               y="-37.740639"
               sodipodi:role="line"
               id="tspan3470">10</tspan><tspan
               x="-41.989613 -39.210304"
               y="-21.494667"
               sodipodi:role="line"
               id="tspan3472">11</tspan><tspan
               x="-67.733177 -64.953865"
               y="16.745846"
               sodipodi:role="line"
               id="tspan3474">20</tspan><tspan
               x="-52.237072 -49.45776"
               y="52.237041"
               sodipodi:role="line"
               id="tspan3476">16</tspan><tspan
               x="-69.732735"
               y="31.992064"
               id="tspan3478">8</tspan><tspan
               x="-23.244265 -20.464954"
               y="-25.493675"
               sodipodi:role="line"
               id="tspan3480">19</tspan></text></g></g></g></g></svg>
