<?xml version="1.0" encoding="UTF-8" standalone="no"?><svg xmlns="http://www.w3.org/2000/svg" xmlns:xlink="http://www.w3.org/1999/xlink" contentStyleType="text/css" height="170px" preserveAspectRatio="none" style="width:1638px;height:170px;background:#FFFFFF;" version="1.1" viewBox="0 0 1638 170" width="1638px" zoomAndPan="magnify"><defs/><g><!--MD5=[6c4a8556bdb27702dd7a27a412a75956]
class ReliabilityAnalysis--><g id="elem_ReliabilityAnalysis"><rect fill="#F1F1F1" height="48" id="ReliabilityAnalysis" rx="2.5" ry="2.5" style="stroke:#181818;stroke-width:0.5;" width="144" x="666" y="7"/><ellipse cx="681" cy="23" fill="#ADD1B2" rx="11" ry="11" style="stroke:#181818;stroke-width:1.0;"/><path d="M676,24.1563 C676,26.6563 678.1406,28.4688 681.0625,28.4688 C682.2969,28.4688 683.4688,28.1719 684.2188,27.6563 C684.8281,27.2344 685.1563,26.8125 685.1563,26.4063 C685.1563,25.9375 684.7344,25.5313 684.2344,25.5313 C684,25.5313 683.7813,25.6094 683.5781,25.8125 C683.1406,26.25 683.1406,26.25 682.9688,26.3438 C682.5156,26.5781 681.875,26.7188 681.1094,26.7188 C679.1094,26.7188 677.8281,25.7031 677.8281,24.125 L677.8281,23.0781 C677.8281,21.375 679.0469,20.1719 680.75,20.1719 C681.3281,20.1719 681.9063,20.3125 682.375,20.5625 C682.8438,20.8281 683.0156,21.0156 683.0781,21.375 C683.2031,22.0469 683.4531,22.2969 683.9844,22.2969 C684.2656,22.2969 684.5469,22.1563 684.7344,21.9375 C684.8594,21.7656 684.9063,21.5938 684.9063,21.1563 L684.9063,19.7969 C684.9063,19.375 684.8906,19.2344 684.7656,19.0625 C684.5938,18.8125 684.3125,18.6563 683.9844,18.6563 C683.6719,18.6563 683.4688,18.7656 683.25,19.0313 C682.0781,18.5313 681.6406,18.4219 680.6875,18.4219 C678.0156,18.4219 676,20.4375 676,23.0625 L676,24.1563 Z " fill="#000000"/><text fill="#000000" font-family="sans-serif" font-size="14" lengthAdjust="spacing" textLength="112" x="695" y="27.606">ReliabilityAnalysis</text><line style="stroke:#181818;stroke-width:0.5;" x1="667" x2="809" y1="39" y2="39"/><line style="stroke:#181818;stroke-width:0.5;" x1="667" x2="809" y1="47" y2="47"/></g><!--MD5=[4fc13aa4eec6c0f0a5c48be487f4d704]
class FindDesignPoint--><g id="elem_FindDesignPoint"><rect fill="#F1F1F1" height="48" id="FindDesignPoint" rx="2.5" ry="2.5" style="stroke:#181818;stroke-width:0.5;" width="136" x="7" y="115"/><ellipse cx="22" cy="131" fill="#ADD1B2" rx="11" ry="11" style="stroke:#181818;stroke-width:1.0;"/><path d="M17,132.1563 C17,134.6563 19.1406,136.4688 22.0625,136.4688 C23.2969,136.4688 24.4688,136.1719 25.2188,135.6563 C25.8281,135.2344 26.1563,134.8125 26.1563,134.4063 C26.1563,133.9375 25.7344,133.5313 25.2344,133.5313 C25,133.5313 24.7813,133.6094 24.5781,133.8125 C24.1406,134.25 24.1406,134.25 23.9688,134.3438 C23.5156,134.5781 22.875,134.7188 22.1094,134.7188 C20.1094,134.7188 18.8281,133.7031 18.8281,132.125 L18.8281,131.0781 C18.8281,129.375 20.0469,128.1719 21.75,128.1719 C22.3281,128.1719 22.9063,128.3125 23.375,128.5625 C23.8438,128.8281 24.0156,129.0156 24.0781,129.375 C24.2031,130.0469 24.4531,130.2969 24.9844,130.2969 C25.2656,130.2969 25.5469,130.1563 25.7344,129.9375 C25.8594,129.7656 25.9063,129.5938 25.9063,129.1563 L25.9063,127.7969 C25.9063,127.375 25.8906,127.2344 25.7656,127.0625 C25.5938,126.8125 25.3125,126.6563 24.9844,126.6563 C24.6719,126.6563 24.4688,126.7656 24.25,127.0313 C23.0781,126.5313 22.6406,126.4219 21.6875,126.4219 C19.0156,126.4219 17,128.4375 17,131.0625 L17,132.1563 Z " fill="#000000"/><text fill="#000000" font-family="sans-serif" font-size="14" lengthAdjust="spacing" textLength="104" x="36" y="135.606">FindDesignPoint</text><line style="stroke:#181818;stroke-width:0.5;" x1="8" x2="142" y1="147" y2="147"/><line style="stroke:#181818;stroke-width:0.5;" x1="8" x2="142" y1="155" y2="155"/></g><!--MD5=[be97f6c6b0a052e0541a726320724cb1]
class SearchDirection--><g id="elem_SearchDirection"><rect fill="#F1F1F1" height="48" id="SearchDirection" rx="2.5" ry="2.5" style="stroke:#181818;stroke-width:0.5;" width="133" x="178.5" y="115"/><ellipse cx="193.5" cy="131" fill="#ADD1B2" rx="11" ry="11" style="stroke:#181818;stroke-width:1.0;"/><path d="M188.5,132.1563 C188.5,134.6563 190.6406,136.4688 193.5625,136.4688 C194.7969,136.4688 195.9688,136.1719 196.7188,135.6563 C197.3281,135.2344 197.6563,134.8125 197.6563,134.4063 C197.6563,133.9375 197.2344,133.5313 196.7344,133.5313 C196.5,133.5313 196.2813,133.6094 196.0781,133.8125 C195.6406,134.25 195.6406,134.25 195.4688,134.3438 C195.0156,134.5781 194.375,134.7188 193.6094,134.7188 C191.6094,134.7188 190.3281,133.7031 190.3281,132.125 L190.3281,131.0781 C190.3281,129.375 191.5469,128.1719 193.25,128.1719 C193.8281,128.1719 194.4063,128.3125 194.875,128.5625 C195.3438,128.8281 195.5156,129.0156 195.5781,129.375 C195.7031,130.0469 195.9531,130.2969 196.4844,130.2969 C196.7656,130.2969 197.0469,130.1563 197.2344,129.9375 C197.3594,129.7656 197.4063,129.5938 197.4063,129.1563 L197.4063,127.7969 C197.4063,127.375 197.3906,127.2344 197.2656,127.0625 C197.0938,126.8125 196.8125,126.6563 196.4844,126.6563 C196.1719,126.6563 195.9688,126.7656 195.75,127.0313 C194.5781,126.5313 194.1406,126.4219 193.1875,126.4219 C190.5156,126.4219 188.5,128.4375 188.5,131.0625 L188.5,132.1563 Z " fill="#000000"/><text fill="#000000" font-family="sans-serif" font-size="14" lengthAdjust="spacing" textLength="101" x="207.5" y="135.606">SearchDirection</text><line style="stroke:#181818;stroke-width:0.5;" x1="179.5" x2="310.5" y1="147" y2="147"/><line style="stroke:#181818;stroke-width:0.5;" x1="179.5" x2="310.5" y1="155" y2="155"/></g><!--MD5=[313a70217fc9c98792c0e1c8f552964e]
class StepSizeRule--><g id="elem_StepSizeRule"><rect fill="#F1F1F1" height="48" id="StepSizeRule" rx="2.5" ry="2.5" style="stroke:#181818;stroke-width:0.5;" width="117" x="346.5" y="115"/><ellipse cx="361.5" cy="131" fill="#ADD1B2" rx="11" ry="11" style="stroke:#181818;stroke-width:1.0;"/><path d="M356.5,132.1563 C356.5,134.6563 358.6406,136.4688 361.5625,136.4688 C362.7969,136.4688 363.9688,136.1719 364.7188,135.6563 C365.3281,135.2344 365.6563,134.8125 365.6563,134.4063 C365.6563,133.9375 365.2344,133.5313 364.7344,133.5313 C364.5,133.5313 364.2813,133.6094 364.0781,133.8125 C363.6406,134.25 363.6406,134.25 363.4688,134.3438 C363.0156,134.5781 362.375,134.7188 361.6094,134.7188 C359.6094,134.7188 358.3281,133.7031 358.3281,132.125 L358.3281,131.0781 C358.3281,129.375 359.5469,128.1719 361.25,128.1719 C361.8281,128.1719 362.4063,128.3125 362.875,128.5625 C363.3438,128.8281 363.5156,129.0156 363.5781,129.375 C363.7031,130.0469 363.9531,130.2969 364.4844,130.2969 C364.7656,130.2969 365.0469,130.1563 365.2344,129.9375 C365.3594,129.7656 365.4063,129.5938 365.4063,129.1563 L365.4063,127.7969 C365.4063,127.375 365.3906,127.2344 365.2656,127.0625 C365.0938,126.8125 364.8125,126.6563 364.4844,126.6563 C364.1719,126.6563 363.9688,126.7656 363.75,127.0313 C362.5781,126.5313 362.1406,126.4219 361.1875,126.4219 C358.5156,126.4219 356.5,128.4375 356.5,131.0625 L356.5,132.1563 Z " fill="#000000"/><text fill="#000000" font-family="sans-serif" font-size="14" lengthAdjust="spacing" textLength="85" x="375.5" y="135.606">StepSizeRule</text><line style="stroke:#181818;stroke-width:0.5;" x1="347.5" x2="462.5" y1="147" y2="147"/><line style="stroke:#181818;stroke-width:0.5;" x1="347.5" x2="462.5" y1="155" y2="155"/></g><!--MD5=[8dcd576fc1a14580f45a0caba34e0694]
class FindCurvatures--><g id="elem_FindCurvatures"><rect fill="#F1F1F1" height="48" id="FindCurvatures" rx="2.5" ry="2.5" style="stroke:#181818;stroke-width:0.5;" width="130" x="499" y="115"/><ellipse cx="514" cy="131" fill="#ADD1B2" rx="11" ry="11" style="stroke:#181818;stroke-width:1.0;"/><path d="M509,132.1563 C509,134.6563 511.1406,136.4688 514.0625,136.4688 C515.2969,136.4688 516.4688,136.1719 517.2188,135.6563 C517.8281,135.2344 518.1563,134.8125 518.1563,134.4063 C518.1563,133.9375 517.7344,133.5313 517.2344,133.5313 C517,133.5313 516.7813,133.6094 516.5781,133.8125 C516.1406,134.25 516.1406,134.25 515.9688,134.3438 C515.5156,134.5781 514.875,134.7188 514.1094,134.7188 C512.1094,134.7188 510.8281,133.7031 510.8281,132.125 L510.8281,131.0781 C510.8281,129.375 512.0469,128.1719 513.75,128.1719 C514.3281,128.1719 514.9063,128.3125 515.375,128.5625 C515.8438,128.8281 516.0156,129.0156 516.0781,129.375 C516.2031,130.0469 516.4531,130.2969 516.9844,130.2969 C517.2656,130.2969 517.5469,130.1563 517.7344,129.9375 C517.8594,129.7656 517.9063,129.5938 517.9063,129.1563 L517.9063,127.7969 C517.9063,127.375 517.8906,127.2344 517.7656,127.0625 C517.5938,126.8125 517.3125,126.6563 516.9844,126.6563 C516.6719,126.6563 516.4688,126.7656 516.25,127.0313 C515.0781,126.5313 514.6406,126.4219 513.6875,126.4219 C511.0156,126.4219 509,128.4375 509,131.0625 L509,132.1563 Z " fill="#000000"/><text fill="#000000" font-family="sans-serif" font-size="14" lengthAdjust="spacing" textLength="98" x="528" y="135.606">FindCurvatures</text><line style="stroke:#181818;stroke-width:0.5;" x1="500" x2="628" y1="147" y2="147"/><line style="stroke:#181818;stroke-width:0.5;" x1="500" x2="628" y1="155" y2="155"/></g><!--MD5=[351997ef1e204500522f7626b91070f1]
class FunctionEvaluator--><g id="elem_FunctionEvaluator"><rect fill="#F1F1F1" height="48" id="FunctionEvaluator" rx="2.5" ry="2.5" style="stroke:#181818;stroke-width:0.5;" width="147" x="664.5" y="115"/><ellipse cx="679.5" cy="131" fill="#ADD1B2" rx="11" ry="11" style="stroke:#181818;stroke-width:1.0;"/><path d="M674.5,132.1563 C674.5,134.6563 676.6406,136.4688 679.5625,136.4688 C680.7969,136.4688 681.9688,136.1719 682.7188,135.6563 C683.3281,135.2344 683.6563,134.8125 683.6563,134.4063 C683.6563,133.9375 683.2344,133.5313 682.7344,133.5313 C682.5,133.5313 682.2813,133.6094 682.0781,133.8125 C681.6406,134.25 681.6406,134.25 681.4688,134.3438 C681.0156,134.5781 680.375,134.7188 679.6094,134.7188 C677.6094,134.7188 676.3281,133.7031 676.3281,132.125 L676.3281,131.0781 C676.3281,129.375 677.5469,128.1719 679.25,128.1719 C679.8281,128.1719 680.4063,128.3125 680.875,128.5625 C681.3438,128.8281 681.5156,129.0156 681.5781,129.375 C681.7031,130.0469 681.9531,130.2969 682.4844,130.2969 C682.7656,130.2969 683.0469,130.1563 683.2344,129.9375 C683.3594,129.7656 683.4063,129.5938 683.4063,129.1563 L683.4063,127.7969 C683.4063,127.375 683.3906,127.2344 683.2656,127.0625 C683.0938,126.8125 682.8125,126.6563 682.4844,126.6563 C682.1719,126.6563 681.9688,126.7656 681.75,127.0313 C680.5781,126.5313 680.1406,126.4219 679.1875,126.4219 C676.5156,126.4219 674.5,128.4375 674.5,131.0625 L674.5,132.1563 Z " fill="#000000"/><text fill="#000000" font-family="sans-serif" font-size="14" lengthAdjust="spacing" textLength="115" x="693.5" y="135.606">FunctionEvaluator</text><line style="stroke:#181818;stroke-width:0.5;" x1="665.5" x2="810.5" y1="147" y2="147"/><line style="stroke:#181818;stroke-width:0.5;" x1="665.5" x2="810.5" y1="155" y2="155"/></g><!--MD5=[a0daf2c367ac232cbeb2b06462e64fd3]
class RandomNuberGenerator--><g id="elem_RandomNuberGenerator"><rect fill="#F1F1F1" height="48" id="RandomNuberGenerator" rx="2.5" ry="2.5" style="stroke:#181818;stroke-width:0.5;" width="190" x="847" y="115"/><ellipse cx="862" cy="131" fill="#ADD1B2" rx="11" ry="11" style="stroke:#181818;stroke-width:1.0;"/><path d="M857,132.1563 C857,134.6563 859.1406,136.4688 862.0625,136.4688 C863.2969,136.4688 864.4688,136.1719 865.2188,135.6563 C865.8281,135.2344 866.1563,134.8125 866.1563,134.4063 C866.1563,133.9375 865.7344,133.5313 865.2344,133.5313 C865,133.5313 864.7813,133.6094 864.5781,133.8125 C864.1406,134.25 864.1406,134.25 863.9688,134.3438 C863.5156,134.5781 862.875,134.7188 862.1094,134.7188 C860.1094,134.7188 858.8281,133.7031 858.8281,132.125 L858.8281,131.0781 C858.8281,129.375 860.0469,128.1719 861.75,128.1719 C862.3281,128.1719 862.9063,128.3125 863.375,128.5625 C863.8438,128.8281 864.0156,129.0156 864.0781,129.375 C864.2031,130.0469 864.4531,130.2969 864.9844,130.2969 C865.2656,130.2969 865.5469,130.1563 865.7344,129.9375 C865.8594,129.7656 865.9063,129.5938 865.9063,129.1563 L865.9063,127.7969 C865.9063,127.375 865.8906,127.2344 865.7656,127.0625 C865.5938,126.8125 865.3125,126.6563 864.9844,126.6563 C864.6719,126.6563 864.4688,126.7656 864.25,127.0313 C863.0781,126.5313 862.6406,126.4219 861.6875,126.4219 C859.0156,126.4219 857,128.4375 857,131.0625 L857,132.1563 Z " fill="#000000"/><text fill="#000000" font-family="sans-serif" font-size="14" lengthAdjust="spacing" textLength="158" x="876" y="135.606">RandomNuberGenerator</text><line style="stroke:#181818;stroke-width:0.5;" x1="848" x2="1036" y1="147" y2="147"/><line style="stroke:#181818;stroke-width:0.5;" x1="848" x2="1036" y1="155" y2="155"/></g><!--MD5=[123746bb80392d5c2768f45bf8fa3b17]
class GradGEvaluator--><g id="elem_GradGEvaluator"><rect fill="#F1F1F1" height="48" id="GradGEvaluator" rx="2.5" ry="2.5" style="stroke:#181818;stroke-width:0.5;" width="135" x="1072.5" y="115"/><ellipse cx="1087.5" cy="131" fill="#ADD1B2" rx="11" ry="11" style="stroke:#181818;stroke-width:1.0;"/><path d="M1082.5,132.1563 C1082.5,134.6563 1084.6406,136.4688 1087.5625,136.4688 C1088.7969,136.4688 1089.9688,136.1719 1090.7188,135.6563 C1091.3281,135.2344 1091.6563,134.8125 1091.6563,134.4063 C1091.6563,133.9375 1091.2344,133.5313 1090.7344,133.5313 C1090.5,133.5313 1090.2813,133.6094 1090.0781,133.8125 C1089.6406,134.25 1089.6406,134.25 1089.4688,134.3438 C1089.0156,134.5781 1088.375,134.7188 1087.6094,134.7188 C1085.6094,134.7188 1084.3281,133.7031 1084.3281,132.125 L1084.3281,131.0781 C1084.3281,129.375 1085.5469,128.1719 1087.25,128.1719 C1087.8281,128.1719 1088.4063,128.3125 1088.875,128.5625 C1089.3438,128.8281 1089.5156,129.0156 1089.5781,129.375 C1089.7031,130.0469 1089.9531,130.2969 1090.4844,130.2969 C1090.7656,130.2969 1091.0469,130.1563 1091.2344,129.9375 C1091.3594,129.7656 1091.4063,129.5938 1091.4063,129.1563 L1091.4063,127.7969 C1091.4063,127.375 1091.3906,127.2344 1091.2656,127.0625 C1091.0938,126.8125 1090.8125,126.6563 1090.4844,126.6563 C1090.1719,126.6563 1089.9688,126.7656 1089.75,127.0313 C1088.5781,126.5313 1088.1406,126.4219 1087.1875,126.4219 C1084.5156,126.4219 1082.5,128.4375 1082.5,131.0625 L1082.5,132.1563 Z " fill="#000000"/><text fill="#000000" font-family="sans-serif" font-size="14" lengthAdjust="spacing" textLength="103" x="1101.5" y="135.606">GradGEvaluator</text><line style="stroke:#181818;stroke-width:0.5;" x1="1073.5" x2="1206.5" y1="147" y2="147"/><line style="stroke:#181818;stroke-width:0.5;" x1="1073.5" x2="1206.5" y1="155" y2="155"/></g><!--MD5=[6227d6e3289294619065f4a1a8ce9805]
class ProbabilityTransformation--><g id="elem_ProbabilityTransformation"><rect fill="#F1F1F1" height="48" id="ProbabilityTransformation" rx="2.5" ry="2.5" style="stroke:#181818;stroke-width:0.5;" width="195" x="1242.5" y="115"/><ellipse cx="1257.5" cy="131" fill="#ADD1B2" rx="11" ry="11" style="stroke:#181818;stroke-width:1.0;"/><path d="M1252.5,132.1563 C1252.5,134.6563 1254.6406,136.4688 1257.5625,136.4688 C1258.7969,136.4688 1259.9688,136.1719 1260.7188,135.6563 C1261.3281,135.2344 1261.6563,134.8125 1261.6563,134.4063 C1261.6563,133.9375 1261.2344,133.5313 1260.7344,133.5313 C1260.5,133.5313 1260.2813,133.6094 1260.0781,133.8125 C1259.6406,134.25 1259.6406,134.25 1259.4688,134.3438 C1259.0156,134.5781 1258.375,134.7188 1257.6094,134.7188 C1255.6094,134.7188 1254.3281,133.7031 1254.3281,132.125 L1254.3281,131.0781 C1254.3281,129.375 1255.5469,128.1719 1257.25,128.1719 C1257.8281,128.1719 1258.4063,128.3125 1258.875,128.5625 C1259.3438,128.8281 1259.5156,129.0156 1259.5781,129.375 C1259.7031,130.0469 1259.9531,130.2969 1260.4844,130.2969 C1260.7656,130.2969 1261.0469,130.1563 1261.2344,129.9375 C1261.3594,129.7656 1261.4063,129.5938 1261.4063,129.1563 L1261.4063,127.7969 C1261.4063,127.375 1261.3906,127.2344 1261.2656,127.0625 C1261.0938,126.8125 1260.8125,126.6563 1260.4844,126.6563 C1260.1719,126.6563 1259.9688,126.7656 1259.75,127.0313 C1258.5781,126.5313 1258.1406,126.4219 1257.1875,126.4219 C1254.5156,126.4219 1252.5,128.4375 1252.5,131.0625 L1252.5,132.1563 Z " fill="#000000"/><text fill="#000000" font-family="sans-serif" font-size="14" lengthAdjust="spacing" textLength="163" x="1271.5" y="135.606">ProbabilityTransformation</text><line style="stroke:#181818;stroke-width:0.5;" x1="1243.5" x2="1436.5" y1="147" y2="147"/><line style="stroke:#181818;stroke-width:0.5;" x1="1243.5" x2="1436.5" y1="155" y2="155"/></g><!--MD5=[c635e9170d0825f3d1df5babfeea189b]
class MeritFunctionCheck--><g id="elem_MeritFunctionCheck"><rect fill="#F1F1F1" height="48" id="MeritFunctionCheck" rx="2.5" ry="2.5" style="stroke:#181818;stroke-width:0.5;" width="159" x="1472.5" y="115"/><ellipse cx="1487.5" cy="131" fill="#ADD1B2" rx="11" ry="11" style="stroke:#181818;stroke-width:1.0;"/><path d="M1482.5,132.1563 C1482.5,134.6563 1484.6406,136.4688 1487.5625,136.4688 C1488.7969,136.4688 1489.9688,136.1719 1490.7188,135.6563 C1491.3281,135.2344 1491.6563,134.8125 1491.6563,134.4063 C1491.6563,133.9375 1491.2344,133.5313 1490.7344,133.5313 C1490.5,133.5313 1490.2813,133.6094 1490.0781,133.8125 C1489.6406,134.25 1489.6406,134.25 1489.4688,134.3438 C1489.0156,134.5781 1488.375,134.7188 1487.6094,134.7188 C1485.6094,134.7188 1484.3281,133.7031 1484.3281,132.125 L1484.3281,131.0781 C1484.3281,129.375 1485.5469,128.1719 1487.25,128.1719 C1487.8281,128.1719 1488.4063,128.3125 1488.875,128.5625 C1489.3438,128.8281 1489.5156,129.0156 1489.5781,129.375 C1489.7031,130.0469 1489.9531,130.2969 1490.4844,130.2969 C1490.7656,130.2969 1491.0469,130.1563 1491.2344,129.9375 C1491.3594,129.7656 1491.4063,129.5938 1491.4063,129.1563 L1491.4063,127.7969 C1491.4063,127.375 1491.3906,127.2344 1491.2656,127.0625 C1491.0938,126.8125 1490.8125,126.6563 1490.4844,126.6563 C1490.1719,126.6563 1489.9688,126.7656 1489.75,127.0313 C1488.5781,126.5313 1488.1406,126.4219 1487.1875,126.4219 C1484.5156,126.4219 1482.5,128.4375 1482.5,131.0625 L1482.5,132.1563 Z " fill="#000000"/><text fill="#000000" font-family="sans-serif" font-size="14" lengthAdjust="spacing" textLength="127" x="1501.5" y="135.606">MeritFunctionCheck</text><line style="stroke:#181818;stroke-width:0.5;" x1="1473.5" x2="1630.5" y1="147" y2="147"/><line style="stroke:#181818;stroke-width:0.5;" x1="1473.5" x2="1630.5" y1="155" y2="155"/></g><!--MD5=[fc72e29c5be0562523b0daa7b77651a6]
class ConvergenceCheck--><g id="elem_ConvergenceCheck"><rect fill="#F1F1F1" height="48" id="ConvergenceCheck" rx="2.5" ry="2.5" style="stroke:#181818;stroke-width:0.5;" width="157" x="845.5" y="7"/><ellipse cx="860.5" cy="23" fill="#ADD1B2" rx="11" ry="11" style="stroke:#181818;stroke-width:1.0;"/><path d="M855.5,24.1563 C855.5,26.6563 857.6406,28.4688 860.5625,28.4688 C861.7969,28.4688 862.9688,28.1719 863.7188,27.6563 C864.3281,27.2344 864.6563,26.8125 864.6563,26.4063 C864.6563,25.9375 864.2344,25.5313 863.7344,25.5313 C863.5,25.5313 863.2813,25.6094 863.0781,25.8125 C862.6406,26.25 862.6406,26.25 862.4688,26.3438 C862.0156,26.5781 861.375,26.7188 860.6094,26.7188 C858.6094,26.7188 857.3281,25.7031 857.3281,24.125 L857.3281,23.0781 C857.3281,21.375 858.5469,20.1719 860.25,20.1719 C860.8281,20.1719 861.4063,20.3125 861.875,20.5625 C862.3438,20.8281 862.5156,21.0156 862.5781,21.375 C862.7031,22.0469 862.9531,22.2969 863.4844,22.2969 C863.7656,22.2969 864.0469,22.1563 864.2344,21.9375 C864.3594,21.7656 864.4063,21.5938 864.4063,21.1563 L864.4063,19.7969 C864.4063,19.375 864.3906,19.2344 864.2656,19.0625 C864.0938,18.8125 863.8125,18.6563 863.4844,18.6563 C863.1719,18.6563 862.9688,18.7656 862.75,19.0313 C861.5781,18.5313 861.1406,18.4219 860.1875,18.4219 C857.5156,18.4219 855.5,20.4375 855.5,23.0625 L855.5,24.1563 Z " fill="#000000"/><text fill="#000000" font-family="sans-serif" font-size="14" lengthAdjust="spacing" textLength="125" x="874.5" y="27.606">ConvergenceCheck</text><line style="stroke:#181818;stroke-width:0.5;" x1="846.5" x2="1001.5" y1="39" y2="39"/><line style="stroke:#181818;stroke-width:0.5;" x1="846.5" x2="1001.5" y1="47" y2="47"/></g><!--MD5=[33ea19ae8fd469f7b144423b32201b2a]
reverse link ReliabilityAnalysis to FindDesignPoint--><g id="link_ReliabilityAnalysis_FindDesignPoint"><path codeLine="1" d="M652.57,41.08 C539.46,53.84 334.09,79.53 161,115 C155.25,116.18 149.31,117.51 143.36,118.93 " fill="none" id="ReliabilityAnalysis-backto-FindDesignPoint" style="stroke:#181818;stroke-width:1.0;"/><polygon fill="none" points="665.56,39.63,659.1534,36.3202,653.634,40.961,660.0407,44.2708,665.56,39.63" style="stroke:#181818;stroke-width:1.0;"/></g><!--MD5=[bb88b7a0e6d16af0eadb09095872ca03]
reverse link ReliabilityAnalysis to SearchDirection--><g id="link_ReliabilityAnalysis_SearchDirection"><path codeLine="2" d="M652.73,47.58 C569.74,63.15 440.23,88.52 329,115 C323.41,116.33 317.63,117.77 311.84,119.26 " fill="none" id="ReliabilityAnalysis-backto-SearchDirection" style="stroke:#181818;stroke-width:1.0;"/><polygon fill="none" points="665.64,45.16,659.0081,42.3284,653.8436,47.3611,660.4755,50.1927,665.64,45.16" style="stroke:#181818;stroke-width:1.0;"/></g><!--MD5=[b0e534de82168218eeeba554ee1826f0]
reverse link ReliabilityAnalysis to StepSizeRule--><g id="link_ReliabilityAnalysis_StepSizeRule"><path codeLine="3" d="M653,59.06 C593.67,77.94 516.02,102.66 463.54,119.37 " fill="none" id="ReliabilityAnalysis-backto-StepSizeRule" style="stroke:#181818;stroke-width:1.0;"/><polygon fill="none" points="665.74,55,658.8093,53.0085,654.3054,58.6401,661.2361,60.6316,665.74,55" style="stroke:#181818;stroke-width:1.0;"/></g><!--MD5=[05f432594a54f4b3434619fbc56b3d83]
reverse link ReliabilityAnalysis to FindCurvatures--><g id="link_ReliabilityAnalysis_FindCurvatures"><path codeLine="4" d="M688.87,61.93 C661.32,78.71 627.48,99.33 601.98,114.86 " fill="none" id="ReliabilityAnalysis-backto-FindCurvatures" style="stroke:#181818;stroke-width:1.0;"/><polygon fill="none" points="700.24,55,693.035,54.7032,689.9899,61.2398,697.1949,61.5366,700.24,55" style="stroke:#181818;stroke-width:1.0;"/></g><!--MD5=[3d682cdc2c2479fe1dfd8a0857265183]
reverse link ReliabilityAnalysis to FunctionEvaluator--><g id="link_ReliabilityAnalysis_FunctionEvaluator"><path codeLine="5" d="M738,68.34 C738,83.68 738,101.1 738,114.68 " fill="none" id="ReliabilityAnalysis-backto-FunctionEvaluator" style="stroke:#181818;stroke-width:1.0;"/><polygon fill="none" points="738,55,734,61,738,67,742,61,738,55" style="stroke:#181818;stroke-width:1.0;"/></g><!--MD5=[15f861d03e3d474dd303d23f85dbc154]
reverse link ReliabilityAnalysis to RandomNuberGenerator--><g id="link_ReliabilityAnalysis_RandomNuberGenerator"><path codeLine="6" d="M793.88,61.04 C826.48,77.98 867.04,99.05 897.47,114.86 " fill="none" id="ReliabilityAnalysis-backto-RandomNuberGenerator" style="stroke:#181818;stroke-width:1.0;"/><polygon fill="none" points="782.26,55,785.7357,61.3182,792.9047,60.54,789.429,54.2218,782.26,55" style="stroke:#181818;stroke-width:1.0;"/></g><!--MD5=[9c4c7d5ca5f3a6b33faa92bfc2d5ee9e]
reverse link ReliabilityAnalysis to GradGEvaluator--><g id="link_ReliabilityAnalysis_GradGEvaluator"><path codeLine="7" d="M822.94,54.04 C886.8,70.66 976.44,94.09 1055,115 C1060.61,116.49 1066.43,118.05 1072.28,119.62 " fill="none" id="ReliabilityAnalysis-backto-GradGEvaluator" style="stroke:#181818;stroke-width:1.0;"/><polygon fill="none" points="810.12,50.7,814.9207,56.0808,821.7341,53.7189,816.9333,48.3381,810.12,50.7" style="stroke:#181818;stroke-width:1.0;"/></g><!--MD5=[f4b94b27e2c00c8142e46a46ec615e19]
reverse link ReliabilityAnalysis to ProbabilityTransformation--><g id="link_ReliabilityAnalysis_ProbabilityTransformation"><path codeLine="8" d="M823.02,53.97 C824.7,54.32 826.36,54.67 828,55 C1002.89,90.47 1049.24,84.16 1225,115 C1230.72,116 1236.58,117.07 1242.5,118.17 " fill="none" id="ReliabilityAnalysis-backto-ProbabilityTransformation" style="stroke:#181818;stroke-width:1.0;"/><polygon fill="none" points="810.06,51.09,815.0513,56.2945,821.7752,53.689,816.7839,48.4844,810.06,51.09" style="stroke:#181818;stroke-width:1.0;"/></g><!--MD5=[ca7eeec68300c3df96428c6662f46053]
reverse link ReliabilityAnalysis to MeritFunctionCheck--><g id="link_ReliabilityAnalysis_MeritFunctionCheck"><path codeLine="9" d="M823.41,54.17 C824.95,54.46 826.48,54.73 828,55 C1103.77,103.13 1178.82,69.27 1455,115 C1460.63,115.93 1466.43,117.01 1472.25,118.17 " fill="none" id="ReliabilityAnalysis-backto-MeritFunctionCheck" style="stroke:#181818;stroke-width:1.0;"/><polygon fill="none" points="810.49,51.55,815.5802,56.6578,822.2529,53.9237,817.1627,48.8159,810.49,51.55" style="stroke:#181818;stroke-width:1.0;"/></g><!--MD5=[b8b531aa33355bf51b90cf2b0b97b2fb]
reverse link ReliabilityAnalysis to ConvergenceCheck--><g id="link_ReliabilityAnalysis_ConvergenceCheck"><path codeLine="10" d="M823.45,31 C830.76,31 838.07,31 845.38,31 " fill="none" id="ReliabilityAnalysis-backto-ConvergenceCheck" style="stroke:#181818;stroke-width:1.0;"/><polygon fill="none" points="810.29,31,816.29,35,822.29,31,816.29,27,810.29,31" style="stroke:#181818;stroke-width:1.0;"/></g><!--MD5=[9499f9c401733bd8b2c6c7a879a80660]
@startuml
ReliabilityAnalysis o- - FindDesignPoint
ReliabilityAnalysis o- - SearchDirection 
ReliabilityAnalysis o- - StepSizeRule 
ReliabilityAnalysis o- - FindCurvatures 
ReliabilityAnalysis o- - FunctionEvaluator 
ReliabilityAnalysis o- - RandomNuberGenerator
ReliabilityAnalysis o- - GradGEvaluator 
ReliabilityAnalysis o- - ProbabilityTransformation 
ReliabilityAnalysis o- - MeritFunctionCheck
ReliabilityAnalysis o- ConvergenceCheck 
@enduml

PlantUML version 1.2022.4(Sat Apr 09 06:29:17 PDT 2022)
(GPL source distribution)
Java Runtime: OpenJDK Runtime Environment
JVM: OpenJDK 64-Bit Server VM
Default Encoding: UTF-8
Language: en
Country: US
--></g></svg>