<?xml version="1.0" encoding="UTF-8" standalone="no"?><svg xmlns="http://www.w3.org/2000/svg" xmlns:xlink="http://www.w3.org/1999/xlink" contentStyleType="text/css" height="339px" preserveAspectRatio="none" style="width:413px;height:339px;background:#FFFFFF;" version="1.1" viewBox="0 0 413 339" width="413px" zoomAndPan="magnify"><defs/><g><!--MD5=[1607c3002aad8e2462dfde7f812aa8df]
class TimeSeries--><g id="elem_TimeSeries"><rect codeLine="1" fill="#F1F1F1" height="48" id="TimeSeries" rx="2.5" ry="2.5" style="stroke:#181818;stroke-width:0.5;" width="104" x="302" y="284"/><ellipse cx="317" cy="300" fill="#A9DCDF" rx="11" ry="11" style="stroke:#181818;stroke-width:1.0;"/><path d="M318.5313,301.9375 L318.8594,302.7344 L318.5781,302.7344 C318.125,302.7344 318,302.7656 317.8281,302.875 C317.5469,303.0156 317.375,303.3125 317.375,303.6094 C317.375,303.9063 317.5156,304.1563 317.75,304.3281 C317.9219,304.4531 318.1563,304.5 318.5781,304.5 L320.9375,304.5 C321.2969,304.5 321.5469,304.4688 321.6875,304.375 C321.9531,304.2344 322.125,303.9219 322.125,303.6094 C322.125,303.3438 321.9844,303.0781 321.75,302.9063 C321.5625,302.7813 321.4063,302.75 320.9531,302.7344 L317.5625,294.9063 L313.8438,294.9063 C313.3906,294.9063 313.25,294.9219 313.0781,295.0313 C312.8125,295.2031 312.6406,295.4844 312.6406,295.7813 C312.6406,296.0625 312.7813,296.3281 313.0313,296.5 C313.2031,296.625 313.3906,296.6563 313.8438,296.6563 L314.8125,296.6563 L312.2344,302.7344 C311.4844,302.7344 311.0781,303.0313 311.0781,303.6094 C311.0781,304.2188 311.4688,304.5 312.2656,304.5 L314.5313,304.5 C314.8906,304.5 315.1406,304.4688 315.2813,304.375 C315.5469,304.2188 315.7188,303.9219 315.7188,303.6094 C315.7188,303.3438 315.5781,303.0781 315.3438,302.9063 C315.1563,302.7656 315,302.7344 314.5313,302.7344 L314.2344,302.7344 L314.5781,301.9375 L318.5313,301.9375 Z M317.7656,300.1875 L315.3125,300.1875 L316.5469,297.3125 L317.7656,300.1875 Z " fill="#000000"/><text fill="#000000" font-family="sans-serif" font-size="14" font-style="italic" lengthAdjust="spacing" textLength="72" x="331" y="305.95">TimeSeries</text><line style="stroke:#181818;stroke-width:0.5;" x1="303" x2="405" y1="316" y2="316"/><line style="stroke:#181818;stroke-width:0.5;" x1="303" x2="405" y1="324" y2="324"/></g><!--MD5=[b2a017c0ddb7ba8753d2c03a7785c56c]
class LoadPattern--><g id="elem_LoadPattern"><rect fill="#F1F1F1" height="48" id="LoadPattern" rx="2.5" ry="2.5" style="stroke:#181818;stroke-width:0.5;" width="110" x="48" y="7"/><ellipse cx="63" cy="23" fill="#ADD1B2" rx="11" ry="11" style="stroke:#181818;stroke-width:1.0;"/><path d="M58,24.1563 C58,26.6563 60.1406,28.4688 63.0625,28.4688 C64.2969,28.4688 65.4688,28.1719 66.2188,27.6563 C66.8281,27.2344 67.1563,26.8125 67.1563,26.4063 C67.1563,25.9375 66.7344,25.5313 66.2344,25.5313 C66,25.5313 65.7813,25.6094 65.5781,25.8125 C65.1406,26.25 65.1406,26.25 64.9688,26.3438 C64.5156,26.5781 63.875,26.7188 63.1094,26.7188 C61.1094,26.7188 59.8281,25.7031 59.8281,24.125 L59.8281,23.0781 C59.8281,21.375 61.0469,20.1719 62.75,20.1719 C63.3281,20.1719 63.9063,20.3125 64.375,20.5625 C64.8438,20.8281 65.0156,21.0156 65.0781,21.375 C65.2031,22.0469 65.4531,22.2969 65.9844,22.2969 C66.2656,22.2969 66.5469,22.1563 66.7344,21.9375 C66.8594,21.7656 66.9063,21.5938 66.9063,21.1563 L66.9063,19.7969 C66.9063,19.375 66.8906,19.2344 66.7656,19.0625 C66.5938,18.8125 66.3125,18.6563 65.9844,18.6563 C65.6719,18.6563 65.4688,18.7656 65.25,19.0313 C64.0781,18.5313 63.6406,18.4219 62.6875,18.4219 C60.0156,18.4219 58,20.4375 58,23.0625 L58,24.1563 Z " fill="#000000"/><text fill="#000000" font-family="sans-serif" font-size="14" lengthAdjust="spacing" textLength="78" x="77" y="27.606">LoadPattern</text><line style="stroke:#181818;stroke-width:0.5;" x1="49" x2="157" y1="39" y2="39"/><line style="stroke:#181818;stroke-width:0.5;" x1="49" x2="157" y1="47" y2="47"/></g><!--MD5=[10ed9c958cec0cabea82e45e52355583]
class MultipleSupportExcitation--><g id="elem_MultipleSupportExcitation"><rect fill="#F1F1F1" height="48" id="MultipleSupportExcitation" rx="2.5" ry="2.5" style="stroke:#181818;stroke-width:0.5;" width="192" x="7" y="115"/><ellipse cx="22" cy="131" fill="#ADD1B2" rx="11" ry="11" style="stroke:#181818;stroke-width:1.0;"/><path d="M17,132.1563 C17,134.6563 19.1406,136.4688 22.0625,136.4688 C23.2969,136.4688 24.4688,136.1719 25.2188,135.6563 C25.8281,135.2344 26.1563,134.8125 26.1563,134.4063 C26.1563,133.9375 25.7344,133.5313 25.2344,133.5313 C25,133.5313 24.7813,133.6094 24.5781,133.8125 C24.1406,134.25 24.1406,134.25 23.9688,134.3438 C23.5156,134.5781 22.875,134.7188 22.1094,134.7188 C20.1094,134.7188 18.8281,133.7031 18.8281,132.125 L18.8281,131.0781 C18.8281,129.375 20.0469,128.1719 21.75,128.1719 C22.3281,128.1719 22.9063,128.3125 23.375,128.5625 C23.8438,128.8281 24.0156,129.0156 24.0781,129.375 C24.2031,130.0469 24.4531,130.2969 24.9844,130.2969 C25.2656,130.2969 25.5469,130.1563 25.7344,129.9375 C25.8594,129.7656 25.9063,129.5938 25.9063,129.1563 L25.9063,127.7969 C25.9063,127.375 25.8906,127.2344 25.7656,127.0625 C25.5938,126.8125 25.3125,126.6563 24.9844,126.6563 C24.6719,126.6563 24.4688,126.7656 24.25,127.0313 C23.0781,126.5313 22.6406,126.4219 21.6875,126.4219 C19.0156,126.4219 17,128.4375 17,131.0625 L17,132.1563 Z " fill="#000000"/><text fill="#000000" font-family="sans-serif" font-size="14" lengthAdjust="spacing" textLength="160" x="36" y="135.606">MultipleSupportExcitation</text><line style="stroke:#181818;stroke-width:0.5;" x1="8" x2="198" y1="147" y2="147"/><line style="stroke:#181818;stroke-width:0.5;" x1="8" x2="198" y1="155" y2="155"/></g><!--MD5=[e443d9a8f28cadd942e0a1039ae1fb49]
class GroundMotion--><g id="elem_GroundMotion"><rect fill="#F1F1F1" height="48" id="GroundMotion" rx="2.5" ry="2.5" style="stroke:#181818;stroke-width:0.5;" width="123" x="143.5" y="284"/><ellipse cx="158.5" cy="300" fill="#ADD1B2" rx="11" ry="11" style="stroke:#181818;stroke-width:1.0;"/><path d="M153.5,301.1563 C153.5,303.6563 155.6406,305.4688 158.5625,305.4688 C159.7969,305.4688 160.9688,305.1719 161.7188,304.6563 C162.3281,304.2344 162.6563,303.8125 162.6563,303.4063 C162.6563,302.9375 162.2344,302.5313 161.7344,302.5313 C161.5,302.5313 161.2813,302.6094 161.0781,302.8125 C160.6406,303.25 160.6406,303.25 160.4688,303.3438 C160.0156,303.5781 159.375,303.7188 158.6094,303.7188 C156.6094,303.7188 155.3281,302.7031 155.3281,301.125 L155.3281,300.0781 C155.3281,298.375 156.5469,297.1719 158.25,297.1719 C158.8281,297.1719 159.4063,297.3125 159.875,297.5625 C160.3438,297.8281 160.5156,298.0156 160.5781,298.375 C160.7031,299.0469 160.9531,299.2969 161.4844,299.2969 C161.7656,299.2969 162.0469,299.1563 162.2344,298.9375 C162.3594,298.7656 162.4063,298.5938 162.4063,298.1563 L162.4063,296.7969 C162.4063,296.375 162.3906,296.2344 162.2656,296.0625 C162.0938,295.8125 161.8125,295.6563 161.4844,295.6563 C161.1719,295.6563 160.9688,295.7656 160.75,296.0313 C159.5781,295.5313 159.1406,295.4219 158.1875,295.4219 C155.5156,295.4219 153.5,297.4375 153.5,300.0625 L153.5,301.1563 Z " fill="#000000"/><text fill="#000000" font-family="sans-serif" font-size="14" lengthAdjust="spacing" textLength="91" x="172.5" y="304.606">GroundMotion</text><line style="stroke:#181818;stroke-width:0.5;" x1="144.5" x2="265.5" y1="316" y2="316"/><line style="stroke:#181818;stroke-width:0.5;" x1="144.5" x2="265.5" y1="324" y2="324"/></g><!--MD5=[d17ee430da9f2ad7fab0733943ee99be]
class ImposedMotionSP--><g id="elem_ImposedMotionSP"><rect fill="#F1F1F1" height="48" id="ImposedMotionSP" rx="2.5" ry="2.5" style="stroke:#181818;stroke-width:0.5;" width="148" x="234" y="115"/><ellipse cx="249" cy="131" fill="#ADD1B2" rx="11" ry="11" style="stroke:#181818;stroke-width:1.0;"/><path d="M244,132.1563 C244,134.6563 246.1406,136.4688 249.0625,136.4688 C250.2969,136.4688 251.4688,136.1719 252.2188,135.6563 C252.8281,135.2344 253.1563,134.8125 253.1563,134.4063 C253.1563,133.9375 252.7344,133.5313 252.2344,133.5313 C252,133.5313 251.7813,133.6094 251.5781,133.8125 C251.1406,134.25 251.1406,134.25 250.9688,134.3438 C250.5156,134.5781 249.875,134.7188 249.1094,134.7188 C247.1094,134.7188 245.8281,133.7031 245.8281,132.125 L245.8281,131.0781 C245.8281,129.375 247.0469,128.1719 248.75,128.1719 C249.3281,128.1719 249.9063,128.3125 250.375,128.5625 C250.8438,128.8281 251.0156,129.0156 251.0781,129.375 C251.2031,130.0469 251.4531,130.2969 251.9844,130.2969 C252.2656,130.2969 252.5469,130.1563 252.7344,129.9375 C252.8594,129.7656 252.9063,129.5938 252.9063,129.1563 L252.9063,127.7969 C252.9063,127.375 252.8906,127.2344 252.7656,127.0625 C252.5938,126.8125 252.3125,126.6563 251.9844,126.6563 C251.6719,126.6563 251.4688,126.7656 251.25,127.0313 C250.0781,126.5313 249.6406,126.4219 248.6875,126.4219 C246.0156,126.4219 244,128.4375 244,131.0625 L244,132.1563 Z " fill="#000000"/><text fill="#000000" font-family="sans-serif" font-size="14" lengthAdjust="spacing" textLength="116" x="263" y="135.606">ImposedMotionSP</text><line style="stroke:#181818;stroke-width:0.5;" x1="235" x2="381" y1="147" y2="147"/><line style="stroke:#181818;stroke-width:0.5;" x1="235" x2="381" y1="155" y2="155"/></g><!--MD5=[95e1a2d5209ac864d79d2289e8993545]
class SP_Constraint--><g id="elem_SP_Constraint"><rect fill="#F1F1F1" height="48" id="SP_Constraint" rx="2.5" ry="2.5" style="stroke:#181818;stroke-width:0.5;" width="123" x="246.5" y="7"/><ellipse cx="261.5" cy="23" fill="#ADD1B2" rx="11" ry="11" style="stroke:#181818;stroke-width:1.0;"/><path d="M256.5,24.1563 C256.5,26.6563 258.6406,28.4688 261.5625,28.4688 C262.7969,28.4688 263.9688,28.1719 264.7188,27.6563 C265.3281,27.2344 265.6563,26.8125 265.6563,26.4063 C265.6563,25.9375 265.2344,25.5313 264.7344,25.5313 C264.5,25.5313 264.2813,25.6094 264.0781,25.8125 C263.6406,26.25 263.6406,26.25 263.4688,26.3438 C263.0156,26.5781 262.375,26.7188 261.6094,26.7188 C259.6094,26.7188 258.3281,25.7031 258.3281,24.125 L258.3281,23.0781 C258.3281,21.375 259.5469,20.1719 261.25,20.1719 C261.8281,20.1719 262.4063,20.3125 262.875,20.5625 C263.3438,20.8281 263.5156,21.0156 263.5781,21.375 C263.7031,22.0469 263.9531,22.2969 264.4844,22.2969 C264.7656,22.2969 265.0469,22.1563 265.2344,21.9375 C265.3594,21.7656 265.4063,21.5938 265.4063,21.1563 L265.4063,19.7969 C265.4063,19.375 265.3906,19.2344 265.2656,19.0625 C265.0938,18.8125 264.8125,18.6563 264.4844,18.6563 C264.1719,18.6563 263.9688,18.7656 263.75,19.0313 C262.5781,18.5313 262.1406,18.4219 261.1875,18.4219 C258.5156,18.4219 256.5,20.4375 256.5,23.0625 L256.5,24.1563 Z " fill="#000000"/><text fill="#000000" font-family="sans-serif" font-size="14" lengthAdjust="spacing" textLength="91" x="275.5" y="27.606">SP_Constraint</text><line style="stroke:#181818;stroke-width:0.5;" x1="247.5" x2="368.5" y1="39" y2="39"/><line style="stroke:#181818;stroke-width:0.5;" x1="247.5" x2="368.5" y1="47" y2="47"/></g><!--MD5=[a3f415a8726b473fb09f28eb97b1375b]
reverse link LoadPattern to MultipleSupportExcitation--><g id="link_LoadPattern_MultipleSupportExcitation"><path codeLine="2" d="M103,75.02 C103,88.58 103,103.04 103,114.68 " fill="none" id="LoadPattern-backto-MultipleSupportExcitation" style="stroke:#181818;stroke-width:1.0;"/><polygon fill="none" points="96,75,103,55,110,75,96,75" style="stroke:#181818;stroke-width:1.0;"/></g><!--MD5=[31f747535c2f2123ac123b85a1b086f0]
reverse link MultipleSupportExcitation to GroundMotion--><g id="link_MultipleSupportExcitation_GroundMotion"><path codeLine="3" d="M124.09,174.53 C144.11,207.3 173.64,255.65 190.94,283.98 " fill="none" id="MultipleSupportExcitation-backto-GroundMotion" style="stroke:#181818;stroke-width:1.0;"/><polygon fill="none" points="117.18,163.22,116.9008,170.4257,123.4449,173.4548,123.724,166.2491,117.18,163.22" style="stroke:#181818;stroke-width:1.0;"/></g><!--MD5=[0f7f4153195063f53c02ad572c34d18e]
reverse link MultipleSupportExcitation to ImposedMotionSP--><g id="link_MultipleSupportExcitation_ImposedMotionSP"><path codeLine="4" d="M212.18,139 C219.44,139 226.71,139 233.98,139 " fill="none" id="MultipleSupportExcitation-backto-ImposedMotionSP" style="stroke:#181818;stroke-width:1.0;"/><polygon fill="none" points="199.09,139,205.09,143,211.09,139,205.09,135,199.09,139" style="stroke:#181818;stroke-width:1.0;"/></g><!--MD5=[61a663c06e377834d39a6762a71069c1]
link ImposedMotionSP to GroundMotion--><g id="link_ImposedMotionSP_GroundMotion"><path codeLine="5" d="M293.68,163.22 C274,195.13 238.81,252.17 219.2,283.98 " fill="none" id="ImposedMotionSP-GroundMotion" style="stroke:#181818;stroke-width:1.0;"/></g><!--MD5=[e8cab72ad54379e1ec382cef62f6efb6]
reverse link SP_Constraint to ImposedMotionSP--><g id="link_SP_Constraint_ImposedMotionSP"><path codeLine="6" d="M308,75.02 C308,88.58 308,103.04 308,114.68 " fill="none" id="SP_Constraint-backto-ImposedMotionSP" style="stroke:#181818;stroke-width:1.0;"/><polygon fill="none" points="301,75,308,55,315,75,301,75" style="stroke:#181818;stroke-width:1.0;"/></g><!--MD5=[62817713a49d5ecbf337d7c36bcfd2fa]
reverse link GroundMotion to TimeSeries--><g id="link_GroundMotion_TimeSeries"><path codeLine="7" d="M279.87,308 C287.19,308 294.5,308 301.82,308 " fill="none" id="GroundMotion-backto-TimeSeries" style="stroke:#181818;stroke-width:1.0;"/><polygon fill="none" points="266.7,308,272.7,312,278.7,308,272.7,304,266.7,308" style="stroke:#181818;stroke-width:1.0;"/></g><!--MD5=[4af254b4fe97a6d75ac1961d1d65d4ce]
@startuml
abstract class TimeSeries 
LoadPattern <|- - MultipleSupportExcitation 
MultipleSupportExcitation o- GroundMotion
MultipleSupportExcitation o- ImposedMotionSP 
ImposedMotionSP - - - GroundMotion 
SP_Constraint <|- - ImposedMotionSP 
GroundMotion o- TimeSeries 
@enduml

PlantUML version 1.2022.4(Sat Apr 09 06:29:17 PDT 2022)
(GPL source distribution)
Java Runtime: OpenJDK Runtime Environment
JVM: OpenJDK 64-Bit Server VM
Default Encoding: UTF-8
Language: en
Country: US
--></g></svg>