<?xml version="1.0" standalone="no"?>
<!DOCTYPE svg PUBLIC "-//W3C//DTD SVG 20010904//EN"
 "http://www.w3.org/TR/2001/REC-SVG-20010904/DTD/svg10.dtd">
<svg version="1.0" xmlns="http://www.w3.org/2000/svg"
 width="1798.000000pt" height="247.000000pt" viewBox="0 0 1798.000000 247.000000"
 preserveAspectRatio="xMidYMid meet">
<metadata>
Created by potrace 1.16, written by Peter Selinger 2001-2019
</metadata>
<g transform="translate(0.000000,247.000000) scale(0.100000,-0.100000)"
fill="#000000" stroke="none">
<path d="M0 1235 l0 -1235 8990 0 8990 0 0 1235 0 1235 -8990 0 -8990 0 0
-1235z m5350 800 l0 -295 -300 0 -300 0 0 295 0 295 300 0 300 0 0 -295z m840
0 l0 -295 -280 0 -280 0 0 -280 0 -280 -2740 0 c-2429 0 -2740 2 -2740 15 0
13 309 15 2720 15 l2720 0 0 560 0 560 300 0 300 0 0 -295z m840 135 c0 -153
-1 -160 -20 -160 -19 0 -20 7 -20 145 l0 145 -260 0 -260 0 0 -265 0 -265 400
0 400 0 0 280 0 280 300 0 300 0 0 -440 c0 -433 0 -440 -20 -440 -20 0 -20 7
-20 425 l0 425 -260 0 -260 0 0 -280 0 -280 -440 0 -440 0 0 295 0 295 300 0
300 0 0 -160z m2360 145 c0 -13 -44 -15 -340 -15 l-340 0 0 -280 0 -280 -220
0 c-189 0 -220 2 -220 15 0 13 29 15 200 15 l200 0 0 280 0 280 360 0 c313 0
360 -2 360 -15z m720 -145 c0 -153 -1 -160 -20 -160 -19 0 -20 7 -20 145 l0
145 -260 0 -260 0 0 -265 0 -265 340 0 c296 0 340 -2 340 -15 0 -13 -47 -15
-360 -15 l-360 0 0 295 0 295 300 0 300 0 0 -160z m840 0 c0 -153 -1 -160 -20
-160 -19 0 -20 7 -20 145 l0 145 -260 0 -260 0 0 -265 0 -265 540 0 540 0 0
280 0 280 360 0 c313 0 360 -2 360 -15 0 -13 -44 -15 -340 -15 l-340 0 0 -280
0 -280 -580 0 -580 0 0 295 0 295 300 0 300 0 0 -160z m-4280 -965 c0 -110 -4
-175 -10 -175 -6 0 -10 63 -10 168 0 148 3 182 17 182 2 0 3 -79 3 -175z
m2880 154 c0 -14 -5 -19 -17 -17 -26 5 -29 38 -4 38 15 0 21 -6 21 -21z m348
15 c39 -11 24 -24 -28 -24 -55 0 -74 -19 -68 -68 3 -24 8 -27 46 -30 56 -4 54
-22 -3 -22 l-45 0 0 -100 c0 -60 -4 -100 -10 -100 -6 0 -10 40 -10 100 l0 100
-30 0 c-38 0 -40 18 -2 22 24 3 27 8 30 43 6 67 51 97 120 79z m1052 -15 c0
-25 -33 -22 -38 4 -2 12 3 17 17 17 15 0 21 -6 21 -21z m-3658 -146 l3 -158
39 -1 c22 0 42 -6 44 -12 2 -8 -11 -12 -41 -12 -73 0 -77 9 -77 176 l0 144
-40 0 c-22 0 -40 5 -40 10 0 6 25 10 55 10 l54 0 3 -157z m1960 0 l3 -158 39
-1 c22 0 42 -6 44 -12 2 -8 -11 -12 -41 -12 -73 0 -77 9 -77 176 l0 144 -40 0
c-22 0 -40 5 -40 10 0 6 25 10 55 10 l54 0 3 -157z m-3304 117 c26 -16 32 -26
32 -55 0 -22 -8 -43 -21 -56 -17 -17 -19 -23 -8 -30 8 -5 17 -9 20 -9 4 0 12
-13 19 -30 10 -24 10 -36 -1 -61 -16 -39 -60 -59 -134 -59 l-55 0 0 160 0 160
58 0 c39 0 67 -6 90 -20z m2838 6 c28 -21 15 -26 -32 -14 -97 26 -165 -66
-134 -181 19 -73 74 -106 134 -82 44 17 48 17 53 5 6 -16 -42 -34 -91 -34 -79
0 -128 62 -128 160 0 100 49 160 131 160 26 0 56 -6 67 -14z m-2567 -71 c29
-15 51 -58 51 -101 0 -23 -2 -24 -85 -24 -53 0 -85 -4 -85 -10 0 -6 7 -24 15
-40 18 -35 57 -48 98 -32 37 14 57 4 32 -15 -11 -7 -40 -13 -66 -13 -59 0 -95
32 -105 95 -16 110 61 184 145 140z m331 -25 c0 -29 -4 -40 -15 -40 -9 0 -15
10 -15 26 0 37 -38 28 -68 -16 -19 -28 -22 -45 -20 -95 3 -54 5 -60 26 -63 46
-7 20 -22 -38 -22 -33 0 -60 4 -60 10 0 6 9 10 20 10 19 0 20 7 20 100 0 93
-1 100 -20 100 -11 0 -20 5 -20 10 0 6 16 10 35 10 30 0 35 -3 35 -24 l0 -24
29 29 c20 19 40 29 60 29 29 0 31 -2 31 -40z m509 25 c29 -15 51 -58 51 -101
0 -23 -2 -24 -85 -24 -53 0 -85 -4 -85 -10 0 -6 7 -24 15 -40 18 -35 57 -48
98 -32 37 14 57 4 32 -15 -11 -7 -40 -13 -66 -13 -59 0 -95 32 -105 95 -16
110 61 184 145 140z m560 0 c29 -15 51 -58 51 -101 0 -23 -2 -24 -85 -24 -53
0 -85 -4 -85 -10 0 -6 7 -24 15 -40 18 -35 57 -48 98 -32 37 14 57 4 32 -15
-11 -7 -40 -13 -66 -13 -59 0 -95 32 -105 95 -16 110 61 184 145 140z m1410
-9 c12 -13 17 -40 19 -111 3 -61 8 -95 15 -95 8 0 8 -3 0 -11 -8 -8 -17 -7
-32 2 -16 11 -23 11 -33 1 -18 -18 -88 -15 -110 5 -20 18 -24 64 -8 93 11 20
66 40 113 40 30 0 36 23 14 54 -11 14 -24 17 -65 15 -35 -3 -52 0 -52 8 0 27
111 26 139 -1z m1110 9 c48 -24 66 -111 37 -180 -17 -39 -42 -55 -86 -55 -63
0 -100 45 -100 120 0 102 70 156 149 115z m331 -25 c0 -29 -4 -40 -15 -40 -9
0 -15 10 -15 26 0 37 -38 28 -68 -16 -19 -28 -22 -45 -20 -95 3 -54 5 -60 26
-63 46 -7 20 -22 -38 -22 -33 0 -60 4 -60 10 0 6 9 10 20 10 19 0 20 7 20 100
0 93 -1 100 -20 100 -11 0 -20 5 -20 10 0 6 16 10 35 10 30 0 35 -3 35 -24 l0
-24 29 29 c20 19 40 29 60 29 29 0 31 -2 31 -40z m250 20 c17 -17 20 -33 20
-125 0 -87 -3 -105 -15 -105 -12 0 -15 18 -15 99 0 113 -12 138 -59 126 -53
-13 -61 -30 -61 -132 0 -76 -3 -93 -15 -93 -12 0 -15 20 -15 120 0 108 7 139
25 111 3 -6 19 -4 38 4 45 20 74 18 97 -5z m549 -4 c12 -13 17 -40 19 -111 3
-61 8 -95 15 -95 8 0 8 -3 0 -11 -8 -8 -17 -7 -32 2 -16 11 -23 11 -33 1 -18
-18 -88 -15 -110 5 -20 18 -24 64 -8 93 11 20 66 40 113 40 30 0 36 23 14 54
-11 14 -24 17 -65 15 -35 -3 -52 0 -52 8 0 27 111 26 139 -1z m-4493 -37 l-58
-52 68 -68 c51 -52 64 -69 49 -69 -11 0 -50 30 -87 67 l-68 67 52 53 c35 36
60 53 77 53 22 0 19 -5 -33 -51z m1033 -46 c19 -54 37 -101 41 -106 3 -4 21
40 40 98 20 62 39 105 47 105 7 0 13 -3 13 -6 0 -4 -21 -65 -47 -136 -47 -132
-76 -181 -113 -191 -27 -7 -27 20 0 28 11 4 27 16 35 28 13 20 10 32 -24 127
-54 146 -55 150 -39 150 8 0 27 -39 47 -97z m1751 -13 l0 -110 35 0 c19 0 35
-4 35 -10 0 -6 -37 -10 -90 -10 -88 0 -126 16 -52 22 l37 3 3 98 3 97 -41 0
c-22 0 -40 5 -40 10 0 6 25 10 55 10 l55 0 0 -110z m1400 0 l0 -110 35 0 c19
0 35 -4 35 -10 0 -6 -37 -10 -90 -10 -88 0 -126 16 -52 22 l37 3 3 98 3 97
-41 0 c-22 0 -40 5 -40 10 0 6 25 10 55 10 l55 0 0 -110z m6830 35 c0 -13
-349 -15 -3080 -15 -2731 0 -3080 2 -3080 15 0 13 349 15 3080 15 2731 0 3080
-2 3080 -15z m-9632 -125 c4 -34 -35 -120 -54 -120 -13 0 -14 7 -8 33 5 17 8
46 7 62 -2 45 4 57 29 53 16 -2 24 -11 26 -28z m-1085 -272 c32 -17 57 -70 57
-123 0 -64 -28 -111 -78 -132 -32 -13 -42 -14 -77 -2 -55 19 -85 67 -85 134 0
109 91 170 183 123z m427 -136 c0 -152 6 -167 70 -167 64 0 70 15 70 167 0
107 2 128 15 128 13 0 15 -21 15 -131 l0 -131 -29 -29 c-24 -23 -38 -29 -74
-29 -38 0 -49 5 -71 31 -25 29 -26 35 -26 160 0 108 2 129 15 129 13 0 15 -21
15 -128z m446 114 c28 -21 15 -26 -32 -14 -97 26 -165 -66 -134 -181 19 -73
74 -106 134 -82 44 17 48 17 53 5 6 -16 -42 -34 -91 -34 -79 0 -128 62 -128
160 0 100 49 160 131 160 26 0 56 -6 67 -14z m546 -13 c32 -33 30 -89 -4 -118
-15 -13 -33 -25 -40 -27 -9 -3 -1 -22 27 -64 60 -88 58 -84 38 -84 -12 0 -34
25 -62 70 -37 61 -47 70 -72 70 l-29 0 0 -70 c0 -56 -3 -70 -15 -70 -13 0 -15
25 -15 161 l0 161 75 -4 c61 -3 79 -8 97 -25z m1308 -23 c0 -28 2 -30 40 -30
22 0 40 -4 40 -10 0 -5 -18 -10 -40 -10 l-40 0 0 -89 c0 -102 9 -117 66 -108
25 4 34 2 31 -6 -6 -20 -86 -21 -108 -1 -16 14 -19 31 -19 111 l0 93 -30 0
c-38 0 -40 18 -2 22 21 2 28 9 30 31 5 38 32 36 32 -3z m-720 -25 c0 -10 -10
-15 -32 -15 -29 0 -30 -1 -15 -18 21 -23 22 -71 3 -97 -9 -13 -31 -21 -67 -25
-46 -4 -54 -8 -54 -25 0 -17 9 -21 64 -26 50 -5 69 -11 83 -29 24 -29 23 -46
-5 -74 -45 -45 -168 -41 -182 5 -10 30 0 34 24 10 29 -29 110 -29 137 0 30 33
8 53 -65 59 -74 6 -101 28 -77 65 12 18 11 24 -5 44 -26 31 -24 64 5 98 24 28
30 29 169 41 9 1 17 -5 17 -13z m-341 -10 c29 -15 51 -58 51 -101 0 -23 -2
-24 -85 -24 -53 0 -85 -4 -85 -10 0 -6 7 -24 15 -40 18 -35 57 -48 98 -32 37
14 57 4 32 -15 -11 -7 -40 -13 -66 -13 -59 0 -95 32 -105 95 -16 110 61 184
145 140z m560 0 c29 -15 51 -58 51 -101 0 -23 -2 -24 -85 -24 -53 0 -85 -4
-85 -10 0 -6 7 -24 15 -40 18 -35 57 -48 98 -32 37 14 57 4 32 -15 -11 -7 -40
-13 -66 -13 -59 0 -95 32 -105 95 -16 110 61 184 145 140z m301 -5 c17 -17 20
-33 20 -125 0 -87 -3 -105 -15 -105 -12 0 -15 18 -15 99 0 113 -12 138 -59
126 -53 -13 -61 -30 -61 -132 0 -76 -3 -93 -15 -93 -12 0 -15 20 -15 120 0
108 7 139 25 111 3 -6 19 -4 38 4 45 20 74 18 97 -5z m544 10 c44 -16 29 -27
-35 -26 -49 1 -64 -3 -73 -17 -14 -22 9 -42 67 -58 75 -20 101 -79 51 -118
-31 -24 -105 -28 -143 -7 -30 17 -12 30 24 16 39 -15 70 -12 95 8 36 29 19 58
-47 79 -67 21 -92 51 -74 89 18 39 80 55 135 34z"/>
<path d="M4790 2035 l0 -265 260 0 260 0 0 265 0 265 -260 0 -260 0 0 -265z"/>
<path d="M5630 2035 l0 -265 260 0 260 0 0 265 0 265 -260 0 -260 0 0 -265z"/>
<path d="M5830 1271 l0 -61 41 0 c58 0 79 14 79 54 0 42 -18 57 -75 64 l-45 5
0 -62z"/>
<path d="M5830 1120 l0 -61 57 3 c51 3 59 6 73 31 13 24 13 30 0 55 -14 24
-22 27 -73 30 l-57 3 0 -61z"/>
<path d="M6128 1233 c-9 -10 -19 -28 -22 -40 -7 -22 -5 -23 63 -23 78 0 88 11
55 58 -19 27 -74 30 -96 5z"/>
<path d="M6968 1233 c-9 -10 -19 -28 -22 -40 -7 -22 -5 -23 63 -23 78 0 88 11
55 58 -19 27 -74 30 -96 5z"/>
<path d="M7528 1233 c-9 -10 -19 -28 -22 -40 -7 -22 -5 -23 63 -23 78 0 88 11
55 58 -19 27 -74 30 -96 5z"/>
<path d="M8930 1147 c-28 -14 -39 -59 -19 -83 15 -19 59 -18 87 2 18 12 22 24
20 52 -3 33 -6 37 -33 40 -16 1 -41 -4 -55 -11z"/>
<path d="M10062 1250 c-27 -11 -42 -47 -42 -104 0 -86 73 -128 120 -68 18 22
21 37 18 85 -6 76 -41 108 -96 87z"/>
<path d="M11170 1147 c-28 -14 -39 -59 -19 -83 15 -19 59 -18 87 2 18 12 22
24 20 52 -3 33 -6 37 -33 40 -16 1 -41 -4 -55 -11z"/>
<path d="M6975 791 c-44 -19 -60 -50 -60 -117 0 -56 3 -67 28 -91 40 -41 99
-39 138 5 25 27 29 41 29 87 0 46 -5 60 -27 85 -30 32 -75 45 -108 31z m82
-48 c3 -8 -6 -10 -30 -6 -28 4 -37 1 -51 -18 -21 -31 -20 -61 3 -90 17 -22 22
-23 50 -12 25 9 31 9 31 -2 0 -7 -7 -16 -16 -19 -57 -22 -104 14 -104 79 0 56
29 87 78 83 19 -2 37 -8 39 -15z"/>
<path d="M8358 764 c-5 -4 -8 -34 -8 -66 l0 -58 48 0 c55 0 78 14 87 51 9 39
-21 70 -75 76 -25 3 -48 1 -52 -3z"/>
<path d="M8920 680 c-11 -11 -20 -31 -20 -45 0 -29 32 -65 58 -65 34 0 62 29
62 64 0 59 -59 87 -100 46z"/>
<path d="M8648 673 c-9 -10 -19 -28 -22 -40 -7 -22 -5 -23 63 -23 78 0 88 11
55 58 -19 27 -74 30 -96 5z"/>
<path d="M9208 673 c-9 -10 -19 -28 -22 -40 -7 -22 -5 -23 63 -23 78 0 88 11
55 58 -19 27 -74 30 -96 5z"/>
</g>
</svg>
