<?xml version="1.0" encoding="UTF-8" standalone="no"?><svg xmlns="http://www.w3.org/2000/svg" xmlns:xlink="http://www.w3.org/1999/xlink" contentStyleType="text/css" height="62px" preserveAspectRatio="none" style="width:226px;height:62px;background:#FFFFFF;" version="1.1" viewBox="0 0 226 62" width="226px" zoomAndPan="magnify"><defs/><g><!--MD5=[ffb2a01035e5becad206ba42498f440a]
class FiberSection--><g id="elem_FiberSection"><rect fill="#F1F1F1" height="48" id="FiberSection" rx="2.5" ry="2.5" style="stroke:#181818;stroke-width:0.5;" width="112" x="7" y="7"/><ellipse cx="22" cy="23" fill="#ADD1B2" rx="11" ry="11" style="stroke:#181818;stroke-width:1.0;"/><path d="M17,24.1563 C17,26.6563 19.1406,28.4688 22.0625,28.4688 C23.2969,28.4688 24.4688,28.1719 25.2188,27.6563 C25.8281,27.2344 26.1563,26.8125 26.1563,26.4063 C26.1563,25.9375 25.7344,25.5313 25.2344,25.5313 C25,25.5313 24.7813,25.6094 24.5781,25.8125 C24.1406,26.25 24.1406,26.25 23.9688,26.3438 C23.5156,26.5781 22.875,26.7188 22.1094,26.7188 C20.1094,26.7188 18.8281,25.7031 18.8281,24.125 L18.8281,23.0781 C18.8281,21.375 20.0469,20.1719 21.75,20.1719 C22.3281,20.1719 22.9063,20.3125 23.375,20.5625 C23.8438,20.8281 24.0156,21.0156 24.0781,21.375 C24.2031,22.0469 24.4531,22.2969 24.9844,22.2969 C25.2656,22.2969 25.5469,22.1563 25.7344,21.9375 C25.8594,21.7656 25.9063,21.5938 25.9063,21.1563 L25.9063,19.7969 C25.9063,19.375 25.8906,19.2344 25.7656,19.0625 C25.5938,18.8125 25.3125,18.6563 24.9844,18.6563 C24.6719,18.6563 24.4688,18.7656 24.25,19.0313 C23.0781,18.5313 22.6406,18.4219 21.6875,18.4219 C19.0156,18.4219 17,20.4375 17,23.0625 L17,24.1563 Z " fill="#000000"/><text fill="#000000" font-family="sans-serif" font-size="14" lengthAdjust="spacing" textLength="80" x="36" y="27.606">FiberSection</text><line style="stroke:#181818;stroke-width:0.5;" x1="8" x2="118" y1="39" y2="39"/><line style="stroke:#181818;stroke-width:0.5;" x1="8" x2="118" y1="47" y2="47"/></g><!--MD5=[8830888f92f7500c77a6c4c31c3f266b]
class Fiber--><g id="elem_Fiber"><rect fill="#F1F1F1" height="48" id="Fiber" rx="2.5" ry="2.5" style="stroke:#181818;stroke-width:0.5;" width="65" x="154.5" y="7"/><ellipse cx="169.5" cy="23" fill="#ADD1B2" rx="11" ry="11" style="stroke:#181818;stroke-width:1.0;"/><path d="M164.5,24.1563 C164.5,26.6563 166.6406,28.4688 169.5625,28.4688 C170.7969,28.4688 171.9688,28.1719 172.7188,27.6563 C173.3281,27.2344 173.6563,26.8125 173.6563,26.4063 C173.6563,25.9375 173.2344,25.5313 172.7344,25.5313 C172.5,25.5313 172.2813,25.6094 172.0781,25.8125 C171.6406,26.25 171.6406,26.25 171.4688,26.3438 C171.0156,26.5781 170.375,26.7188 169.6094,26.7188 C167.6094,26.7188 166.3281,25.7031 166.3281,24.125 L166.3281,23.0781 C166.3281,21.375 167.5469,20.1719 169.25,20.1719 C169.8281,20.1719 170.4063,20.3125 170.875,20.5625 C171.3438,20.8281 171.5156,21.0156 171.5781,21.375 C171.7031,22.0469 171.9531,22.2969 172.4844,22.2969 C172.7656,22.2969 173.0469,22.1563 173.2344,21.9375 C173.3594,21.7656 173.4063,21.5938 173.4063,21.1563 L173.4063,19.7969 C173.4063,19.375 173.3906,19.2344 173.2656,19.0625 C173.0938,18.8125 172.8125,18.6563 172.4844,18.6563 C172.1719,18.6563 171.9688,18.7656 171.75,19.0313 C170.5781,18.5313 170.1406,18.4219 169.1875,18.4219 C166.5156,18.4219 164.5,20.4375 164.5,23.0625 L164.5,24.1563 Z " fill="#000000"/><text fill="#000000" font-family="sans-serif" font-size="14" lengthAdjust="spacing" textLength="33" x="183.5" y="27.606">Fiber</text><line style="stroke:#181818;stroke-width:0.5;" x1="155.5" x2="218.5" y1="39" y2="39"/><line style="stroke:#181818;stroke-width:0.5;" x1="155.5" x2="218.5" y1="47" y2="47"/></g><!--MD5=[40665d458f9ecc7c952f99359c6e3606]
reverse link FiberSection to Fiber--><g id="link_FiberSection_Fiber"><path codeLine="1" d="M132.4,31 C139.74,31 147.08,31 154.42,31 " fill="none" id="FiberSection-backto-Fiber" style="stroke:#181818;stroke-width:1.0;"/><polygon fill="none" points="119.19,31,125.19,35,131.19,31,125.19,27,119.19,31" style="stroke:#181818;stroke-width:1.0;"/></g><!--MD5=[afa0d55a104d735448b40e7128e9c478]
@startuml
FiberSection o- Fiber 
@enduml

PlantUML version 1.2022.4(Sat Apr 09 06:29:17 PDT 2022)
(GPL source distribution)
Java Runtime: OpenJDK Runtime Environment
JVM: OpenJDK 64-Bit Server VM
Default Encoding: UTF-8
Language: en
Country: US
--></g></svg>