<?xml version="1.0" encoding="UTF-8" standalone="no"?><svg xmlns="http://www.w3.org/2000/svg" xmlns:xlink="http://www.w3.org/1999/xlink" contentStyleType="text/css" height="243.75px" preserveAspectRatio="none" style="width:873px;height:243px;background:#00000000;" version="1.1" viewBox="0 0 873 243" width="873.9583px" zoomAndPan="magnify"><defs><linearGradient id="gwt4gg6nrcj6m0" x1="50%" x2="50%" y1="0%" y2="100%"><stop offset="0%" stop-color="#F3F3F3"/><stop offset="100%" stop-color="#E2E2E2"/></linearGradient><linearGradient id="gwt4gg6nrcj6m1" x1="50%" x2="50%" y1="0%" y2="100%"><stop offset="0%" stop-color="#F3F3F3"/><stop offset="100%" stop-color="#888888"/></linearGradient></defs><g><!--MD5=[ebcb423187bcee200f322be0d6d631c0]
cluster OpenSees Model--><g id="cluster_OpenSees Model"><path d="M24.4792,86.6667 L203.6458,86.6667 A11.7188,11.7188 0 0 1 211.4583,94.4792 L218.75,138.75 L853.6458,138.75 A7.8125,7.8125 0 0 1 861.4583,146.5625 L861.4583,223.6458 A7.8125,7.8125 0 0 1 853.6458,231.4583 L24.4792,231.4583 A7.8125,7.8125 0 0 1 16.6667,223.6458 L16.6667,94.4792 A7.8125,7.8125 0 0 1 24.4792,86.6667 " fill="#DDDDDD" style="stroke:#F3F3F3;stroke-width:2.0833333333333335;"/><line style="stroke:#F3F3F3;stroke-width:2.0833333333333335;" x1="16.6667" x2="218.75" y1="138.75" y2="138.75"/><text fill="#FFFFFF" font-family="&quot;Verdana&quot;" font-size="20.8333" font-weight="bold" lengthAdjust="spacing" textLength="167.7083" x="31.25" y="118.5208">OpenSees Model</text></g><!--MD5=[95174e42ee347a14b6cb78d6855f19b5]
class Element--><a href="./element/Element" target="_top" title="./element/Element" xlink:actuate="onRequest" xlink:href="./element/Element" xlink:show="new" xlink:title="./element/Element" xlink:type="simple"><g id="elem_Element"><rect codeLine="3" fill="url(#gwt4gg6nrcj6m0)" height="63.3853" id="Element" rx="7.8125" ry="7.8125" style="stroke:#F3F3F3;stroke-width:1.0416666666666667;" width="92.7083" x="752.6042" y="151.25"/><rect fill="url(#gwt4gg6nrcj6m1)" height="46.7186" rx="7.8125" ry="7.8125" style="stroke:url(#gwt4gg6nrcj6m1);stroke-width:1.0416666666666667;" width="92.7083" x="752.6042" y="151.25"/><rect fill="url(#gwt4gg6nrcj6m1)" height="7.8125" style="stroke:url(#gwt4gg6nrcj6m1);stroke-width:1.0416666666666667;" width="92.7083" x="752.6042" y="190.1561"/><rect codeLine="3" fill="none" height="63.3853" id="Element" rx="7.8125" ry="7.8125" style="stroke:#F3F3F3;stroke-width:1.0416666666666667;" width="92.7083" x="752.6042" y="151.25"/><ellipse cx="767.1875" cy="174.6093" rx="10.4167" ry="10.4167" style="stroke:#888888;stroke-width:1.0416666666666667;fill:none;"/><path d="M768.7174,175.8463 L768.9616,176.4322 L768.7337,176.4322 C768.4245,176.4322 768.3105,176.4648 768.1966,176.5299 C767.985,176.6438 767.8711,176.8554 767.8711,177.0833 C767.8711,177.2949 767.9688,177.4902 768.1478,177.6041 C768.2617,177.7018 768.4408,177.7343 768.7337,177.7343 L770.4753,177.7343 C770.7357,177.7343 770.931,177.7018 771.0286,177.6529 C771.224,177.539 771.3542,177.3111 771.3542,177.0833 C771.3542,176.888 771.2565,176.6764 771.0775,176.5624 C770.9473,176.4648 770.8333,176.4485 770.4915,176.4322 L768.0013,170.6868 L765.2669,170.6868 C764.9251,170.6868 764.8275,170.7031 764.6973,170.7682 C764.502,170.8984 764.3717,171.11 764.3717,171.3216 C764.3717,171.5331 764.4857,171.7285 764.6647,171.8424 C764.7949,171.94 764.9251,171.9726 765.2669,171.9726 L765.9831,171.9726 L764.0788,176.4322 C763.5254,176.4322 763.2324,176.6601 763.2324,177.0833 C763.2324,177.5227 763.5091,177.7343 764.1113,177.7343 L765.7715,177.7343 C766.0319,177.7343 766.2109,177.7018 766.3086,177.6529 C766.5202,177.5227 766.6341,177.3111 766.6341,177.0833 C766.6341,176.888 766.5365,176.6764 766.3737,176.5624 C766.2272,176.4648 766.1133,176.4322 765.7715,176.4322 L765.5599,176.4322 L765.804,175.8463 L768.7174,175.8463 Z M768.1478,174.5605 L766.3411,174.5605 L767.2526,172.4446 L768.1478,174.5605 Z " fill="#336699"/><text fill="#303030" font-family="&quot;Verdana&quot;" font-size="11.4583" font-style="italic" lengthAdjust="spacing" textLength="40.625" x="791.1458" y="179.4791">Element</text><line style="stroke:#F3F3F3;stroke-width:1.0416666666666667;" x1="753.6458" x2="844.2708" y1="197.9686" y2="197.9686"/><line style="stroke:#F3F3F3;stroke-width:1.0416666666666667;" x1="753.6458" x2="844.2708" y1="206.302" y2="206.302"/></g></a><!--MD5=[1f8fbffc1445fbdf7e25af61c62ad345]
class Domain--><a href="./Domain" target="_top" title="./Domain" xlink:actuate="onRequest" xlink:href="./Domain" xlink:show="new" xlink:title="./Domain" xlink:type="simple"><g id="elem_Domain"><rect codeLine="4" fill="url(#gwt4gg6nrcj6m0)" height="61.6666" id="Domain" rx="7.8125" ry="7.8125" style="stroke:#F3F3F3;stroke-width:1.0416666666666667;" width="90.625" x="33.8542" y="152.2917"/><rect fill="url(#gwt4gg6nrcj6m1)" height="44.9999" rx="7.8125" ry="7.8125" style="stroke:url(#gwt4gg6nrcj6m1);stroke-width:1.0416666666666667;" width="90.625" x="33.8542" y="152.2917"/><rect fill="url(#gwt4gg6nrcj6m1)" height="7.8125" style="stroke:url(#gwt4gg6nrcj6m1);stroke-width:1.0416666666666667;" width="90.625" x="33.8542" y="189.4791"/><rect codeLine="4" fill="none" height="61.6666" id="Domain" rx="7.8125" ry="7.8125" style="stroke:#F3F3F3;stroke-width:1.0416666666666667;" width="90.625" x="33.8542" y="152.2917"/><ellipse cx="48.4375" cy="174.7916" rx="10.4167" ry="10.4167" style="stroke:#888888;stroke-width:1.0416666666666667;fill:none;"/><path d="M44.6289,175.6868 C44.6289,177.526 46.2077,178.8606 48.3561,178.8606 C49.2676,178.8606 50.1302,178.6328 50.6836,178.2584 C51.1393,177.9492 51.3672,177.6399 51.3672,177.347 C51.3672,177.0052 51.0579,176.6959 50.6999,176.6959 C50.5208,176.6959 50.3581,176.761 50.2116,176.9075 C49.8861,177.2167 49.8861,177.2167 49.7559,177.2981 C49.4303,177.4772 48.9583,177.5748 48.3887,177.5748 C46.9238,177.5748 45.9798,176.8261 45.9798,175.6542 L45.9798,174.9055 C45.9798,173.6523 46.8913,172.7571 48.1283,172.7571 C48.5514,172.7571 48.9909,172.8548 49.3164,173.0501 C49.6745,173.2291 49.7884,173.3756 49.8535,173.6523 C49.9349,174.1406 50.1139,174.3196 50.5046,174.3196 C50.7161,174.3196 50.9277,174.222 51.0579,174.0592 C51.1556,173.929 51.1882,173.7988 51.1882,173.4895 L51.1882,172.4804 C51.1882,172.1712 51.1719,172.0735 51.0905,171.9433 C50.9603,171.7643 50.7487,171.6503 50.5046,171.6503 C50.2767,171.6503 50.1302,171.7154 49.9674,171.927 C49.1048,171.5527 48.7793,171.4713 48.0794,171.4713 C46.1263,171.4713 44.6289,172.9524 44.6289,174.8893 L44.6289,175.6868 Z " fill="#336699"/><text fill="#303030" font-family="&quot;Verdana&quot;" font-size="11.4583" lengthAdjust="spacing" textLength="38.5417" x="72.3958" y="178.5614">Domain</text><line style="stroke:#F3F3F3;stroke-width:1.0416666666666667;" x1="34.8958" x2="123.4375" y1="197.2916" y2="197.2916"/><line style="stroke:#F3F3F3;stroke-width:1.0416666666666667;" x1="34.8958" x2="123.4375" y1="205.6249" y2="205.6249"/></g></a><!--MD5=[3fee75583bb7a64f68d843a3c9534ab3]
class Node--><g id="elem_Node"><rect fill="url(#gwt4gg6nrcj6m0)" height="61.6666" id="Node" rx="7.8125" ry="7.8125" style="stroke:#F3F3F3;stroke-width:1.0416666666666667;" width="79.1667" x="636.4583" y="152.2917"/><rect fill="url(#gwt4gg6nrcj6m1)" height="44.9999" rx="7.8125" ry="7.8125" style="stroke:url(#gwt4gg6nrcj6m1);stroke-width:1.0416666666666667;" width="79.1667" x="636.4583" y="152.2917"/><rect fill="url(#gwt4gg6nrcj6m1)" height="7.8125" style="stroke:url(#gwt4gg6nrcj6m1);stroke-width:1.0416666666666667;" width="79.1667" x="636.4583" y="189.4791"/><rect fill="none" height="61.6666" id="Node" rx="7.8125" ry="7.8125" style="stroke:#F3F3F3;stroke-width:1.0416666666666667;" width="79.1667" x="636.4583" y="152.2917"/><ellipse cx="651.0417" cy="174.7916" rx="10.4167" ry="10.4167" style="stroke:#888888;stroke-width:1.0416666666666667;fill:none;"/><path d="M647.2331,175.6868 C647.2331,177.526 648.8118,178.8606 650.9603,178.8606 C651.8717,178.8606 652.7344,178.6328 653.2878,178.2584 C653.7435,177.9492 653.9714,177.6399 653.9714,177.347 C653.9714,177.0052 653.6621,176.6959 653.304,176.6959 C653.125,176.6959 652.9622,176.761 652.8158,176.9075 C652.4902,177.2167 652.4902,177.2167 652.36,177.2981 C652.0345,177.4772 651.5625,177.5748 650.9928,177.5748 C649.528,177.5748 648.584,176.8261 648.584,175.6542 L648.584,174.9055 C648.584,173.6523 649.4954,172.7571 650.7324,172.7571 C651.1556,172.7571 651.5951,172.8548 651.9206,173.0501 C652.2786,173.2291 652.3926,173.3756 652.4577,173.6523 C652.5391,174.1406 652.7181,174.3196 653.1087,174.3196 C653.3203,174.3196 653.5319,174.222 653.6621,174.0592 C653.7598,173.929 653.7923,173.7988 653.7923,173.4895 L653.7923,172.4804 C653.7923,172.1712 653.776,172.0735 653.6947,171.9433 C653.5645,171.7643 653.3529,171.6503 653.1087,171.6503 C652.8809,171.6503 652.7344,171.7154 652.5716,171.927 C651.709,171.5527 651.3835,171.4713 650.6836,171.4713 C648.7305,171.4713 647.2331,172.9524 647.2331,174.8893 L647.2331,175.6868 Z " fill="#336699"/><text fill="#303030" font-family="&quot;Verdana&quot;" font-size="11.4583" lengthAdjust="spacing" textLength="27.0833" x="675" y="178.5614">Node</text><line style="stroke:#F3F3F3;stroke-width:1.0416666666666667;" x1="637.5" x2="714.5833" y1="197.2916" y2="197.2916"/><line style="stroke:#F3F3F3;stroke-width:1.0416666666666667;" x1="637.5" x2="714.5833" y1="205.6249" y2="205.6249"/></g><!--MD5=[95e1a2d5209ac864d79d2289e8993545]
class SP_Constraint--><g id="elem_SP_Constraint"><rect fill="url(#gwt4gg6nrcj6m0)" height="61.6666" id="SP_Constraint" rx="7.8125" ry="7.8125" style="stroke:#F3F3F3;stroke-width:1.0416666666666667;" width="125" x="475" y="152.2917"/><rect fill="url(#gwt4gg6nrcj6m1)" height="44.9999" rx="7.8125" ry="7.8125" style="stroke:url(#gwt4gg6nrcj6m1);stroke-width:1.0416666666666667;" width="125" x="475" y="152.2917"/><rect fill="url(#gwt4gg6nrcj6m1)" height="7.8125" style="stroke:url(#gwt4gg6nrcj6m1);stroke-width:1.0416666666666667;" width="125" x="475" y="189.4791"/><rect fill="none" height="61.6666" id="SP_Constraint" rx="7.8125" ry="7.8125" style="stroke:#F3F3F3;stroke-width:1.0416666666666667;" width="125" x="475" y="152.2917"/><ellipse cx="489.5833" cy="174.7916" rx="10.4167" ry="10.4167" style="stroke:#888888;stroke-width:1.0416666666666667;fill:none;"/><path d="M485.7747,175.6868 C485.7747,177.526 487.3535,178.8606 489.502,178.8606 C490.4134,178.8606 491.276,178.6328 491.8294,178.2584 C492.2852,177.9492 492.513,177.6399 492.513,177.347 C492.513,177.0052 492.2038,176.6959 491.8457,176.6959 C491.6667,176.6959 491.5039,176.761 491.3574,176.9075 C491.0319,177.2167 491.0319,177.2167 490.9017,177.2981 C490.5762,177.4772 490.1042,177.5748 489.5345,177.5748 C488.0697,177.5748 487.1257,176.8261 487.1257,175.6542 L487.1257,174.9055 C487.1257,173.6523 488.0371,172.7571 489.2741,172.7571 C489.6973,172.7571 490.1367,172.8548 490.4622,173.0501 C490.8203,173.2291 490.9342,173.3756 490.9993,173.6523 C491.0807,174.1406 491.2598,174.3196 491.6504,174.3196 C491.862,174.3196 492.0736,174.222 492.2038,174.0592 C492.3014,173.929 492.334,173.7988 492.334,173.4895 L492.334,172.4804 C492.334,172.1712 492.3177,172.0735 492.2363,171.9433 C492.1061,171.7643 491.8945,171.6503 491.6504,171.6503 C491.4225,171.6503 491.276,171.7154 491.1133,171.927 C490.2507,171.5527 489.9251,171.4713 489.2253,171.4713 C487.2721,171.4713 485.7747,172.9524 485.7747,174.8893 L485.7747,175.6868 Z " fill="#336699"/><text fill="#303030" font-family="&quot;Verdana&quot;" font-size="11.4583" lengthAdjust="spacing" textLength="72.9167" x="513.5417" y="178.5614">SP_Constraint</text><line style="stroke:#F3F3F3;stroke-width:1.0416666666666667;" x1="476.0417" x2="598.9583" y1="197.2916" y2="197.2916"/><line style="stroke:#F3F3F3;stroke-width:1.0416666666666667;" x1="476.0417" x2="598.9583" y1="205.6249" y2="205.6249"/></g><!--MD5=[5e37a920c7a59c7535e16c00cd6e0494]
class MP_Constraint--><g id="elem_MP_Constraint"><rect fill="url(#gwt4gg6nrcj6m0)" height="61.6666" id="MP_Constraint" rx="7.8125" ry="7.8125" style="stroke:#F3F3F3;stroke-width:1.0416666666666667;" width="127.0833" x="311.4583" y="152.2917"/><rect fill="url(#gwt4gg6nrcj6m1)" height="44.9999" rx="7.8125" ry="7.8125" style="stroke:url(#gwt4gg6nrcj6m1);stroke-width:1.0416666666666667;" width="127.0833" x="311.4583" y="152.2917"/><rect fill="url(#gwt4gg6nrcj6m1)" height="7.8125" style="stroke:url(#gwt4gg6nrcj6m1);stroke-width:1.0416666666666667;" width="127.0833" x="311.4583" y="189.4791"/><rect fill="none" height="61.6666" id="MP_Constraint" rx="7.8125" ry="7.8125" style="stroke:#F3F3F3;stroke-width:1.0416666666666667;" width="127.0833" x="311.4583" y="152.2917"/><ellipse cx="326.0417" cy="174.7916" rx="10.4167" ry="10.4167" style="stroke:#888888;stroke-width:1.0416666666666667;fill:none;"/><path d="M322.2331,175.6868 C322.2331,177.526 323.8118,178.8606 325.9603,178.8606 C326.8717,178.8606 327.7344,178.6328 328.2878,178.2584 C328.7435,177.9492 328.9714,177.6399 328.9714,177.347 C328.9714,177.0052 328.6621,176.6959 328.304,176.6959 C328.125,176.6959 327.9622,176.761 327.8158,176.9075 C327.4902,177.2167 327.4902,177.2167 327.36,177.2981 C327.0345,177.4772 326.5625,177.5748 325.9928,177.5748 C324.528,177.5748 323.584,176.8261 323.584,175.6542 L323.584,174.9055 C323.584,173.6523 324.4954,172.7571 325.7324,172.7571 C326.1556,172.7571 326.5951,172.8548 326.9206,173.0501 C327.2786,173.2291 327.3926,173.3756 327.4577,173.6523 C327.5391,174.1406 327.7181,174.3196 328.1087,174.3196 C328.3203,174.3196 328.5319,174.222 328.6621,174.0592 C328.7598,173.929 328.7923,173.7988 328.7923,173.4895 L328.7923,172.4804 C328.7923,172.1712 328.776,172.0735 328.6947,171.9433 C328.5645,171.7643 328.3529,171.6503 328.1087,171.6503 C327.8809,171.6503 327.7344,171.7154 327.5716,171.927 C326.709,171.5527 326.3835,171.4713 325.6836,171.4713 C323.7305,171.4713 322.2331,172.9524 322.2331,174.8893 L322.2331,175.6868 Z " fill="#336699"/><text fill="#303030" font-family="&quot;Verdana&quot;" font-size="11.4583" lengthAdjust="spacing" textLength="75" x="350" y="178.5614">MP_Constraint</text><line style="stroke:#F3F3F3;stroke-width:1.0416666666666667;" x1="312.5" x2="437.5" y1="197.2916" y2="197.2916"/><line style="stroke:#F3F3F3;stroke-width:1.0416666666666667;" x1="312.5" x2="437.5" y1="205.6249" y2="205.6249"/></g><!--MD5=[b2a017c0ddb7ba8753d2c03a7785c56c]
class LoadPattern--><g id="elem_LoadPattern"><rect fill="url(#gwt4gg6nrcj6m0)" height="61.6666" id="LoadPattern" rx="7.8125" ry="7.8125" style="stroke:#F3F3F3;stroke-width:1.0416666666666667;" width="113.5417" x="160.9375" y="152.2917"/><rect fill="url(#gwt4gg6nrcj6m1)" height="44.9999" rx="7.8125" ry="7.8125" style="stroke:url(#gwt4gg6nrcj6m1);stroke-width:1.0416666666666667;" width="113.5417" x="160.9375" y="152.2917"/><rect fill="url(#gwt4gg6nrcj6m1)" height="7.8125" style="stroke:url(#gwt4gg6nrcj6m1);stroke-width:1.0416666666666667;" width="113.5417" x="160.9375" y="189.4791"/><rect fill="none" height="61.6666" id="LoadPattern" rx="7.8125" ry="7.8125" style="stroke:#F3F3F3;stroke-width:1.0416666666666667;" width="113.5417" x="160.9375" y="152.2917"/><ellipse cx="175.5208" cy="174.7916" rx="10.4167" ry="10.4167" style="stroke:#888888;stroke-width:1.0416666666666667;fill:none;"/><path d="M171.7122,175.6868 C171.7122,177.526 173.291,178.8606 175.4395,178.8606 C176.3509,178.8606 177.2135,178.6328 177.7669,178.2584 C178.2227,177.9492 178.4505,177.6399 178.4505,177.347 C178.4505,177.0052 178.1413,176.6959 177.7832,176.6959 C177.6042,176.6959 177.4414,176.761 177.2949,176.9075 C176.9694,177.2167 176.9694,177.2167 176.8392,177.2981 C176.5137,177.4772 176.0417,177.5748 175.472,177.5748 C174.0072,177.5748 173.0632,176.8261 173.0632,175.6542 L173.0632,174.9055 C173.0632,173.6523 173.9746,172.7571 175.2116,172.7571 C175.6348,172.7571 176.0742,172.8548 176.3997,173.0501 C176.7578,173.2291 176.8717,173.3756 176.9368,173.6523 C177.0182,174.1406 177.1973,174.3196 177.5879,174.3196 C177.7995,174.3196 178.0111,174.222 178.1413,174.0592 C178.2389,173.929 178.2715,173.7988 178.2715,173.4895 L178.2715,172.4804 C178.2715,172.1712 178.2552,172.0735 178.1738,171.9433 C178.0436,171.7643 177.832,171.6503 177.5879,171.6503 C177.36,171.6503 177.2135,171.7154 177.0508,171.927 C176.1882,171.5527 175.8626,171.4713 175.1628,171.4713 C173.2096,171.4713 171.7122,172.9524 171.7122,174.8893 L171.7122,175.6868 Z " fill="#336699"/><text fill="#303030" font-family="&quot;Verdana&quot;" font-size="11.4583" lengthAdjust="spacing" textLength="61.4583" x="199.4792" y="178.5614">LoadPattern</text><line style="stroke:#F3F3F3;stroke-width:1.0416666666666667;" x1="161.9792" x2="273.4375" y1="197.2916" y2="197.2916"/><line style="stroke:#F3F3F3;stroke-width:1.0416666666666667;" x1="161.9792" x2="273.4375" y1="205.6249" y2="205.6249"/></g><!--MD5=[60fc4c8c4ecee819134e39ee98e73ca5]
reverse link Domain to Element--><g id="link_Domain_Element"><path codeLine="6" d="M92.5104,139.1875 C104.75,107.3854 126.3229,66.6562 160.9375,47.0833 C214.6354,16.7187 662.3646,16.8646 716.1458,47.0833 C755.4167,69.1458 778.25,118.2188 789.6563,150.9688 " fill="none" id="Domain-backto-Element" style="stroke:#E2E2E2;stroke-width:3.125;"/><polygon fill="none" points="87.8229,152.1771,93.8642,147.7131,92.0671,140.4197,86.0259,144.8836,87.8229,152.1771" style="stroke:#E2E2E2;stroke-width:3.125;"/></g><!--MD5=[b9fc3d255ef6f2d12769a5e2ae0cc620]
reverse link Domain to Node--><g id="link_Domain_Node"><path codeLine="7" d="M92.5104,139.1875 C104.75,107.3854 126.3229,66.6562 160.9375,47.0833 C203.4583,23.0417 558.1667,22.7604 600.5208,47.0833 C639.1458,69.2708 659.3542,119.3229 668.8438,152.1146 " fill="none" id="Domain-backto-Node" style="stroke:#E2E2E2;stroke-width:3.125;"/><polygon fill="none" points="87.8229,152.1771,93.8642,147.7131,92.0671,140.4197,86.0259,144.8836,87.8229,152.1771" style="stroke:#E2E2E2;stroke-width:3.125;"/></g><!--MD5=[8b1e458745bffb05b66cd86b2241519f]
reverse link Domain to SP_Constraint--><g id="link_Domain_SP_Constraint"><path codeLine="8" d="M92.5104,139.1875 C104.75,107.3854 126.3229,66.6562 160.9375,47.0833 C214.7396,16.6667 384.0104,18.9792 439.0625,47.0833 C482.0104,69.0104 510.5729,119.3958 525.3958,152.2917 " fill="none" id="Domain-backto-SP_Constraint" style="stroke:#E2E2E2;stroke-width:3.125;"/><polygon fill="none" points="87.8229,152.1771,93.8642,147.7131,92.0671,140.4197,86.0259,144.8836,87.8229,152.1771" style="stroke:#E2E2E2;stroke-width:3.125;"/></g><!--MD5=[8b5cddc2f17c5f0be6c2537465f5aaab]
reverse link Domain to MP_Constraint--><g id="link_Domain_MP_Constraint"><path codeLine="9" d="M92.5104,139.1875 C104.75,107.3854 126.3229,66.6562 160.9375,47.0833 C204.8646,22.25 229.4167,24.3646 274.4792,47.0833 C317.8542,68.9583 347.1563,119.3646 362.4583,152.2708 " fill="none" id="Domain-backto-MP_Constraint" style="stroke:#E2E2E2;stroke-width:3.125;"/><polygon fill="none" points="87.8229,152.1771,93.8642,147.7131,92.0671,140.4197,86.0259,144.8836,87.8229,152.1771" style="stroke:#E2E2E2;stroke-width:3.125;"/></g><!--MD5=[cf76f61eb6ee9fe265fdbc2d98e10331]
reverse link Domain to LoadPattern--><g id="link_Domain_LoadPattern"><path codeLine="10" d="M138.4063,183.0208 C145.8125,183.0208 153.2188,183.0208 160.625,183.0208 " fill="none" id="Domain-backto-LoadPattern" style="stroke:#E2E2E2;stroke-width:3.125;"/><polygon fill="none" points="124.625,183.0208,130.875,187.1875,137.125,183.0208,130.875,178.8542,124.625,183.0208" style="stroke:#E2E2E2;stroke-width:3.125;"/></g><!--MD5=[e12c4f8ffb0fec30ad48972da6b9bf9b]
@startuml
!theme lightgray
package "OpenSees Model" #DDDDDD {
abstract class Element [[./element/Element]]
class Domain [[./Domain]]

Domain o- Element 
Domain o- Node 
Domain o- SP_Constraint 
Domain o- MP_Constraint 
Domain o- LoadPattern
}
@enduml

@startuml



skinparam backgroundColor transparent
skinparam useBetaStyle false






<style>
  root {
    BackgroundColor transparent
    FontColor #336699
    HyperLinkColor $ORANGE
    LineColor #888888
    LineThickness 1
    Margin 10
    Padding 6
    Shadowing 0.0
  }
  node {
   Padding 15
   roundcorner 20
   BackgroundColor #e2e2e2-#888888
  }
  caption {
    LineThickness 0
  }
  footer {
    LineThickness 0
  }
  groupHeader {
    BackgroundColor #d2d2d2
    FontColor #336699
    FontStyle bold
  }
  header {
    LineThickness 0
  }
  referenceHeader {
    BackgroundColor transparent
    FontColor #303030
    FontStyle bold
  }
  separator {
    BackgroundColor #303030
    FontColor transparent
    FontStyle bold
  }
  title {
	FontSize 20
	BorderRoundCorner            8
	BorderThickness 	         1
	BackgroundColor  #dbdbdb-#d2d2d2
	FontColor #e2e2e2
	BorderColor #d2d2d2
  }
  nwdiagDiagram {
	network {
			FontColor #336699
	BorderColor #f3f3f3
	BackgroundColor #f3f3f3-#e2e2e2    
		LineColor #e2e2e2
		LineThickness 1.0
		FontColor #888888
	}
	server {
			FontColor #336699
	BorderColor #f3f3f3
	BackgroundColor #f3f3f3-#e2e2e2
	}
	arrow {
		FontColor #888888
		LineColor #888888
	}
	group {
		BackGroundColor #fcfcfc
		LineColor $LIGHT_DARK
		LineThickness 2.0
		Margin 5
		Padding 5
	}
  }
  ganttDiagram {
	task {
			FontColor #336699
	BorderColor #f3f3f3
	BackgroundColor #f3f3f3-#e2e2e2
		LineColor #e2e2e2
		Margin 10
		Padding 6
	}
	note {
		FontColor #FFF
		LineColor #29527a
		BackGroundColor #336699
	}
	separator {
		LineColor #d2d2d2
		BackGroundColor #d2d2d2-#a8a8a8
		FontColor white
	}
	milestone {
		FontColor #336699
		FontSize 16
		FontStyle italic
		BackGroundColor #d2d2d2
		LineColor #a8a8a8
	}
	timeline {
		BackgroundColor #d2d2d2
		FontColor white
	}
	closed {
		BackgroundColor #cc8b35
		FontColor #FFF
	}
  }
</style>
skinparam defaultFontName        "Verdana"
skinparam defaultFontSize        12
skinparam dpi                    100
skinparam shadowing              false
skinparam roundcorner            15
skinparam ParticipantPadding     30
skinparam BoxPadding             30
skinparam Padding                10
skinparam ArrowColor             #737373
skinparam stereotype {
    CBackgroundColor #dbdbdb
    CBorderColor #a8a8a8
    ABackgroundColor #5cad5c
    ABorderColor #297a29
    IBackgroundColor #ff5c5c
    IBorderColor #cc2929
    EBackgroundColor #ffbe68
    EBorderColor #cc8b35
    NBackgroundColor #5c85ad
    NBorderColor #29527a
}
skinparam title {
	FontColor	                 white
	BorderColor	                 #d2d2d2
	FontSize	    	         20
	BorderRoundCorner            8
	BorderThickness 	         1
	BackgroundColor              #dbdbdb-#d2d2d2
}


skinparam legend {
	BackgroundColor #e2e2e2
	BorderColor #888888
	FontColor #336699
}

skinparam swimlane {
	BorderColor #336699
	BorderThickness 2
	TitleBackgroundColor  #dbdbdb-#d2d2d2
	TitleFontColor #e2e2e2
}


skinparam activity {
		FontColor #336699
	BorderColor #f3f3f3
	BackgroundColor #f3f3f3-#e2e2e2
	BarColor #339933
	StartColor #336699
	EndColor #336699
	DiamondBackgroundColor #d2d2d2-#a8a8a8
  	DiamondBorderColor #a8a8a8
	DiamondFontColor white
}


skinparam participant {
		FontColor #336699
	BorderColor #f3f3f3
	BackgroundColor #f3f3f3-#e2e2e2
	ParticipantBorderThickness 2
}


skinparam actor {
		FontColor #336699
	BorderColor #f3f3f3
	BackgroundColor #f3f3f3-#e2e2e2
}


skinparam arrow {
	Thickness 3
	Color #e2e2e2
	FontColor #303030
}


skinparam sequence {
	BorderColor #e2e2e2
	TitleFontColor white
	BackgroundColor transparent
	StartColor #e2e2e2
	EndColor #e2e2e2
	BoxBackgroundColor #fcfcfc
	BoxBorderColor #737373
	BoxFontColor #303030
	DelayFontColor #303030
	LifeLineBorderColor #a8a8a8
	LifeLineBorderThickness 2
	LifeLineBackgroundColor #dbdbdb
	GroupBorderColor #737373
	GroupFontColor #303030
	GroupHeaderFontColor #336699
	DividerBackgroundColor #FFF-#fcfcfc
    DividerBorderColor #737373
    DividerBorderThickness 2
    DividerFontColor #303030
	ReferenceBackgroundColor transparent
	ReferenceBorderColor #737373
	ReferenceFontColor #303030
	ReferenceHeaderFontColor #336699
	StereotypeFontColor #336699
}


skinparam partition {
	BorderColor #e2e2e2
	FontColor #888888
	BackgroundColor transparent
}


skinparam collections {
		FontColor #336699
	BorderColor #f3f3f3
	BackgroundColor #f3f3f3-#e2e2e2
}


skinparam control {
		FontColor #336699
	BorderColor #f3f3f3
	BackgroundColor #f3f3f3-#e2e2e2
}


skinparam entity {
		FontColor #336699
	BorderColor #f3f3f3
	BackgroundColor #f3f3f3-#e2e2e2
}


skinparam boundary {
		FontColor #336699
	BorderColor #f3f3f3
	BackgroundColor #f3f3f3-#e2e2e2
}


skinparam agent {
	BackgroundColor #orange
	BorderColor #999999
	FontColor #333333
}


skinparam note {
	BorderThickness 1
	BackgroundColor #5c85ad-#336699
	BorderColor #336699
	FontColor #FFF
}


skinparam artifact {
	BackgroundColor white-#fcfcfc
	BorderColor #a8a8a8
	FontColor #a8a8a8
}


skinparam component {
		FontColor #336699
	BorderColor #f3f3f3
	BackgroundColor #f3f3f3-#e2e2e2
}


skinparam interface {
	BackgroundColor  #ff5c5c
	BorderColor  #ff3333
	FontColor #303030
}


skinparam storage {
	BackgroundColor #ffbe68-#ffae42
  	BorderColor #ffae42
	FontColor #FFF
}


skinparam node {
	BackgroundColor transparent
	BorderColor #f3f3f3
	FontColor #336699
}


skinparam cloud {
	BackgroundColor #F2FCFE-#eeeeee
	BorderColor $F2FCFE
	FontColor #336699
}


skinparam database {
		FontColor #336699
	BorderColor #f3f3f3
	BackgroundColor #f3f3f3-#e2e2e2
	BackgroundColor  transparent
}


skinparam class {
		FontColor #336699
	BorderColor #f3f3f3
	BackgroundColor #f3f3f3-#e2e2e2
	HeaderBackgroundColor #f3f3f3-#888888
	StereotypeFontColor #303030
	StereotypeFontSize 9
	BorderThickness 1
	AttributeFontColor #303030
	AttributeFontSize 11
}


skinparam object {
		FontColor #336699
	BorderColor #f3f3f3
	BackgroundColor #f3f3f3-#e2e2e2
	StereotypeFontColor #fcfcfc
	BorderThickness 1
	AttributeFontColor #303030
	AttributeFontSize 11
}


skinparam usecase {
		FontColor #336699
	BorderColor #f3f3f3
	BackgroundColor #f3f3f3-#e2e2e2
	BorderThickness 2
	StereotypeFontColor #e2e2e2
}


skinparam rectangle {
		FontColor #336699
	BorderColor #f3f3f3
	BackgroundColor #f3f3f3-#e2e2e2
	BackgroundColor transparent
	BorderThickness 2
	StereotypeFontColor #e2e2e2
}


skinparam package {
		FontColor #336699
	BorderColor #f3f3f3
	BackgroundColor #f3f3f3-#e2e2e2
	BackgroundColor transparent
	BorderThickness 2
}


skinparam folder {
	BackgroundColor #f3f3f3
  	BorderColor #ffae42
	FontColor #ffae42
	BorderThickness 2
}


skinparam frame {
	BackgroundColor #f3f3f3
  	BorderColor #336699
	FontColor #336699
	BorderThickness 2
}


skinparam state {
		FontColor #336699
	BorderColor #f3f3f3
	BackgroundColor #f3f3f3-#e2e2e2
	BorderColor #888888
	StartColor #336699
	EndColor #336699
	AttributeFontColor white
	AttributeFontSize 11
}


skinparam queue {
		FontColor #336699
	BorderColor #f3f3f3
	BackgroundColor #f3f3f3-#e2e2e2
}


skinparam card {
	BackgroundColor #5c85ad-#336699
	BorderColor #336699
	FontColor #FFF
}


skinparam file {
	BackgroundColor #dbdbdb-#d2d2d2
	BorderColor #a8a8a8
	FontColor white

}


skinparam stack {
		FontColor #336699
	BorderColor #f3f3f3
	BackgroundColor #f3f3f3-#e2e2e2
}
package "OpenSees Model" #DDDDDD {
abstract class Element [[./element/Element]]
class Domain [[./Domain]]

Domain o- Element 
Domain o- Node 
Domain o- SP_Constraint 
Domain o- MP_Constraint 
Domain o- LoadPattern
}
@enduml

PlantUML version 1.2022.4(Sat Apr 09 06:29:17 PDT 2022)
(GPL source distribution)
Java Runtime: OpenJDK Runtime Environment
JVM: OpenJDK 64-Bit Server VM
Default Encoding: UTF-8
Language: en
Country: US
--></g></svg>