<?xml version="1.0" encoding="UTF-8" standalone="no"?><svg xmlns="http://www.w3.org/2000/svg" xmlns:xlink="http://www.w3.org/1999/xlink" contentStyleType="text/css" height="170px" preserveAspectRatio="none" style="width:1216px;height:170px;background:#FFFFFF;" version="1.1" viewBox="0 0 1216 170" width="1216px" zoomAndPan="magnify"><defs/><g><!--MD5=[0644504cef8ea477ff0902b8a4fd0138]
class ReliabilityDomain--><g id="elem_ReliabilityDomain"><rect fill="#F1F1F1" height="48" id="ReliabilityDomain" rx="2.5" ry="2.5" style="stroke:#181818;stroke-width:0.5;" width="141" x="634.5" y="7"/><ellipse cx="649.5" cy="23" fill="#ADD1B2" rx="11" ry="11" style="stroke:#181818;stroke-width:1.0;"/><path d="M644.5,24.1563 C644.5,26.6563 646.6406,28.4688 649.5625,28.4688 C650.7969,28.4688 651.9688,28.1719 652.7188,27.6563 C653.3281,27.2344 653.6563,26.8125 653.6563,26.4063 C653.6563,25.9375 653.2344,25.5313 652.7344,25.5313 C652.5,25.5313 652.2813,25.6094 652.0781,25.8125 C651.6406,26.25 651.6406,26.25 651.4688,26.3438 C651.0156,26.5781 650.375,26.7188 649.6094,26.7188 C647.6094,26.7188 646.3281,25.7031 646.3281,24.125 L646.3281,23.0781 C646.3281,21.375 647.5469,20.1719 649.25,20.1719 C649.8281,20.1719 650.4063,20.3125 650.875,20.5625 C651.3438,20.8281 651.5156,21.0156 651.5781,21.375 C651.7031,22.0469 651.9531,22.2969 652.4844,22.2969 C652.7656,22.2969 653.0469,22.1563 653.2344,21.9375 C653.3594,21.7656 653.4063,21.5938 653.4063,21.1563 L653.4063,19.7969 C653.4063,19.375 653.3906,19.2344 653.2656,19.0625 C653.0938,18.8125 652.8125,18.6563 652.4844,18.6563 C652.1719,18.6563 651.9688,18.7656 651.75,19.0313 C650.5781,18.5313 650.1406,18.4219 649.1875,18.4219 C646.5156,18.4219 644.5,20.4375 644.5,23.0625 L644.5,24.1563 Z " fill="#000000"/><text fill="#000000" font-family="sans-serif" font-size="14" lengthAdjust="spacing" textLength="109" x="663.5" y="27.606">ReliabilityDomain</text><line style="stroke:#181818;stroke-width:0.5;" x1="635.5" x2="774.5" y1="39" y2="39"/><line style="stroke:#181818;stroke-width:0.5;" x1="635.5" x2="774.5" y1="47" y2="47"/></g><!--MD5=[dcfddbc7b492a0bef0db4fd9873e7565]
class RandomVariable--><g id="elem_RandomVariable"><rect fill="#F1F1F1" height="48" id="RandomVariable" rx="2.5" ry="2.5" style="stroke:#181818;stroke-width:0.5;" width="138" x="7" y="115"/><ellipse cx="22" cy="131" fill="#ADD1B2" rx="11" ry="11" style="stroke:#181818;stroke-width:1.0;"/><path d="M17,132.1563 C17,134.6563 19.1406,136.4688 22.0625,136.4688 C23.2969,136.4688 24.4688,136.1719 25.2188,135.6563 C25.8281,135.2344 26.1563,134.8125 26.1563,134.4063 C26.1563,133.9375 25.7344,133.5313 25.2344,133.5313 C25,133.5313 24.7813,133.6094 24.5781,133.8125 C24.1406,134.25 24.1406,134.25 23.9688,134.3438 C23.5156,134.5781 22.875,134.7188 22.1094,134.7188 C20.1094,134.7188 18.8281,133.7031 18.8281,132.125 L18.8281,131.0781 C18.8281,129.375 20.0469,128.1719 21.75,128.1719 C22.3281,128.1719 22.9063,128.3125 23.375,128.5625 C23.8438,128.8281 24.0156,129.0156 24.0781,129.375 C24.2031,130.0469 24.4531,130.2969 24.9844,130.2969 C25.2656,130.2969 25.5469,130.1563 25.7344,129.9375 C25.8594,129.7656 25.9063,129.5938 25.9063,129.1563 L25.9063,127.7969 C25.9063,127.375 25.8906,127.2344 25.7656,127.0625 C25.5938,126.8125 25.3125,126.6563 24.9844,126.6563 C24.6719,126.6563 24.4688,126.7656 24.25,127.0313 C23.0781,126.5313 22.6406,126.4219 21.6875,126.4219 C19.0156,126.4219 17,128.4375 17,131.0625 L17,132.1563 Z " fill="#000000"/><text fill="#000000" font-family="sans-serif" font-size="14" lengthAdjust="spacing" textLength="106" x="36" y="135.606">RandomVariable</text><line style="stroke:#181818;stroke-width:0.5;" x1="8" x2="144" y1="147" y2="147"/><line style="stroke:#181818;stroke-width:0.5;" x1="8" x2="144" y1="155" y2="155"/></g><!--MD5=[3a3e2ee025371ab7639e9c5d755805dd]
class RandomVariablePositioner--><g id="elem_RandomVariablePositioner"><rect fill="#F1F1F1" height="48" id="RandomVariablePositioner" rx="2.5" ry="2.5" style="stroke:#181818;stroke-width:0.5;" width="201" x="180.5" y="115"/><ellipse cx="195.5" cy="131" fill="#ADD1B2" rx="11" ry="11" style="stroke:#181818;stroke-width:1.0;"/><path d="M190.5,132.1563 C190.5,134.6563 192.6406,136.4688 195.5625,136.4688 C196.7969,136.4688 197.9688,136.1719 198.7188,135.6563 C199.3281,135.2344 199.6563,134.8125 199.6563,134.4063 C199.6563,133.9375 199.2344,133.5313 198.7344,133.5313 C198.5,133.5313 198.2813,133.6094 198.0781,133.8125 C197.6406,134.25 197.6406,134.25 197.4688,134.3438 C197.0156,134.5781 196.375,134.7188 195.6094,134.7188 C193.6094,134.7188 192.3281,133.7031 192.3281,132.125 L192.3281,131.0781 C192.3281,129.375 193.5469,128.1719 195.25,128.1719 C195.8281,128.1719 196.4063,128.3125 196.875,128.5625 C197.3438,128.8281 197.5156,129.0156 197.5781,129.375 C197.7031,130.0469 197.9531,130.2969 198.4844,130.2969 C198.7656,130.2969 199.0469,130.1563 199.2344,129.9375 C199.3594,129.7656 199.4063,129.5938 199.4063,129.1563 L199.4063,127.7969 C199.4063,127.375 199.3906,127.2344 199.2656,127.0625 C199.0938,126.8125 198.8125,126.6563 198.4844,126.6563 C198.1719,126.6563 197.9688,126.7656 197.75,127.0313 C196.5781,126.5313 196.1406,126.4219 195.1875,126.4219 C192.5156,126.4219 190.5,128.4375 190.5,131.0625 L190.5,132.1563 Z " fill="#000000"/><text fill="#000000" font-family="sans-serif" font-size="14" lengthAdjust="spacing" textLength="169" x="209.5" y="135.606">RandomVariablePositioner</text><line style="stroke:#181818;stroke-width:0.5;" x1="181.5" x2="380.5" y1="147" y2="147"/><line style="stroke:#181818;stroke-width:0.5;" x1="181.5" x2="380.5" y1="155" y2="155"/></g><!--MD5=[428835b7a79eff69aca353ef81174568]
class CorrelationCoefficient--><g id="elem_CorrelationCoefficient"><rect fill="#F1F1F1" height="48" id="CorrelationCoefficient" rx="2.5" ry="2.5" style="stroke:#181818;stroke-width:0.5;" width="169" x="416.5" y="115"/><ellipse cx="431.5" cy="131" fill="#ADD1B2" rx="11" ry="11" style="stroke:#181818;stroke-width:1.0;"/><path d="M426.5,132.1563 C426.5,134.6563 428.6406,136.4688 431.5625,136.4688 C432.7969,136.4688 433.9688,136.1719 434.7188,135.6563 C435.3281,135.2344 435.6563,134.8125 435.6563,134.4063 C435.6563,133.9375 435.2344,133.5313 434.7344,133.5313 C434.5,133.5313 434.2813,133.6094 434.0781,133.8125 C433.6406,134.25 433.6406,134.25 433.4688,134.3438 C433.0156,134.5781 432.375,134.7188 431.6094,134.7188 C429.6094,134.7188 428.3281,133.7031 428.3281,132.125 L428.3281,131.0781 C428.3281,129.375 429.5469,128.1719 431.25,128.1719 C431.8281,128.1719 432.4063,128.3125 432.875,128.5625 C433.3438,128.8281 433.5156,129.0156 433.5781,129.375 C433.7031,130.0469 433.9531,130.2969 434.4844,130.2969 C434.7656,130.2969 435.0469,130.1563 435.2344,129.9375 C435.3594,129.7656 435.4063,129.5938 435.4063,129.1563 L435.4063,127.7969 C435.4063,127.375 435.3906,127.2344 435.2656,127.0625 C435.0938,126.8125 434.8125,126.6563 434.4844,126.6563 C434.1719,126.6563 433.9688,126.7656 433.75,127.0313 C432.5781,126.5313 432.1406,126.4219 431.1875,126.4219 C428.5156,126.4219 426.5,128.4375 426.5,131.0625 L426.5,132.1563 Z " fill="#000000"/><text fill="#000000" font-family="sans-serif" font-size="14" lengthAdjust="spacing" textLength="137" x="445.5" y="135.606">CorrelationCoefficient</text><line style="stroke:#181818;stroke-width:0.5;" x1="417.5" x2="584.5" y1="147" y2="147"/><line style="stroke:#181818;stroke-width:0.5;" x1="417.5" x2="584.5" y1="155" y2="155"/></g><!--MD5=[8df32e6c903e5e69072c4ad4d11d286f]
class PerformanceFunction--><g id="elem_PerformanceFunction"><rect fill="#F1F1F1" height="48" id="PerformanceFunction" rx="2.5" ry="2.5" style="stroke:#181818;stroke-width:0.5;" width="169" x="620.5" y="115"/><ellipse cx="635.5" cy="131" fill="#ADD1B2" rx="11" ry="11" style="stroke:#181818;stroke-width:1.0;"/><path d="M630.5,132.1563 C630.5,134.6563 632.6406,136.4688 635.5625,136.4688 C636.7969,136.4688 637.9688,136.1719 638.7188,135.6563 C639.3281,135.2344 639.6563,134.8125 639.6563,134.4063 C639.6563,133.9375 639.2344,133.5313 638.7344,133.5313 C638.5,133.5313 638.2813,133.6094 638.0781,133.8125 C637.6406,134.25 637.6406,134.25 637.4688,134.3438 C637.0156,134.5781 636.375,134.7188 635.6094,134.7188 C633.6094,134.7188 632.3281,133.7031 632.3281,132.125 L632.3281,131.0781 C632.3281,129.375 633.5469,128.1719 635.25,128.1719 C635.8281,128.1719 636.4063,128.3125 636.875,128.5625 C637.3438,128.8281 637.5156,129.0156 637.5781,129.375 C637.7031,130.0469 637.9531,130.2969 638.4844,130.2969 C638.7656,130.2969 639.0469,130.1563 639.2344,129.9375 C639.3594,129.7656 639.4063,129.5938 639.4063,129.1563 L639.4063,127.7969 C639.4063,127.375 639.3906,127.2344 639.2656,127.0625 C639.0938,126.8125 638.8125,126.6563 638.4844,126.6563 C638.1719,126.6563 637.9688,126.7656 637.75,127.0313 C636.5781,126.5313 636.1406,126.4219 635.1875,126.4219 C632.5156,126.4219 630.5,128.4375 630.5,131.0625 L630.5,132.1563 Z " fill="#000000"/><text fill="#000000" font-family="sans-serif" font-size="14" lengthAdjust="spacing" textLength="137" x="649.5" y="135.606">PerformanceFunction</text><line style="stroke:#181818;stroke-width:0.5;" x1="621.5" x2="788.5" y1="147" y2="147"/><line style="stroke:#181818;stroke-width:0.5;" x1="621.5" x2="788.5" y1="155" y2="155"/></g><!--MD5=[bddb511951cf0a1d6a79f67b0c2ed87d]
class Filter--><g id="elem_Filter"><rect fill="#F1F1F1" height="48" id="Filter" rx="2.5" ry="2.5" style="stroke:#181818;stroke-width:0.5;" width="64" x="825" y="115"/><ellipse cx="840" cy="131" fill="#ADD1B2" rx="11" ry="11" style="stroke:#181818;stroke-width:1.0;"/><path d="M835,132.1563 C835,134.6563 837.1406,136.4688 840.0625,136.4688 C841.2969,136.4688 842.4688,136.1719 843.2188,135.6563 C843.8281,135.2344 844.1563,134.8125 844.1563,134.4063 C844.1563,133.9375 843.7344,133.5313 843.2344,133.5313 C843,133.5313 842.7813,133.6094 842.5781,133.8125 C842.1406,134.25 842.1406,134.25 841.9688,134.3438 C841.5156,134.5781 840.875,134.7188 840.1094,134.7188 C838.1094,134.7188 836.8281,133.7031 836.8281,132.125 L836.8281,131.0781 C836.8281,129.375 838.0469,128.1719 839.75,128.1719 C840.3281,128.1719 840.9063,128.3125 841.375,128.5625 C841.8438,128.8281 842.0156,129.0156 842.0781,129.375 C842.2031,130.0469 842.4531,130.2969 842.9844,130.2969 C843.2656,130.2969 843.5469,130.1563 843.7344,129.9375 C843.8594,129.7656 843.9063,129.5938 843.9063,129.1563 L843.9063,127.7969 C843.9063,127.375 843.8906,127.2344 843.7656,127.0625 C843.5938,126.8125 843.3125,126.6563 842.9844,126.6563 C842.6719,126.6563 842.4688,126.7656 842.25,127.0313 C841.0781,126.5313 840.6406,126.4219 839.6875,126.4219 C837.0156,126.4219 835,128.4375 835,131.0625 L835,132.1563 Z " fill="#000000"/><text fill="#000000" font-family="sans-serif" font-size="14" lengthAdjust="spacing" textLength="32" x="854" y="135.606">Filter</text><line style="stroke:#181818;stroke-width:0.5;" x1="826" x2="888" y1="147" y2="147"/><line style="stroke:#181818;stroke-width:0.5;" x1="826" x2="888" y1="155" y2="155"/></g><!--MD5=[3a1e18dd4b7ecc2d912f1cea56970380]
class ModulatingFunction--><g id="elem_ModulatingFunction"><rect fill="#F1F1F1" height="48" id="ModulatingFunction" rx="2.5" ry="2.5" style="stroke:#181818;stroke-width:0.5;" width="157" x="924.5" y="115"/><ellipse cx="939.5" cy="131" fill="#ADD1B2" rx="11" ry="11" style="stroke:#181818;stroke-width:1.0;"/><path d="M934.5,132.1563 C934.5,134.6563 936.6406,136.4688 939.5625,136.4688 C940.7969,136.4688 941.9688,136.1719 942.7188,135.6563 C943.3281,135.2344 943.6563,134.8125 943.6563,134.4063 C943.6563,133.9375 943.2344,133.5313 942.7344,133.5313 C942.5,133.5313 942.2813,133.6094 942.0781,133.8125 C941.6406,134.25 941.6406,134.25 941.4688,134.3438 C941.0156,134.5781 940.375,134.7188 939.6094,134.7188 C937.6094,134.7188 936.3281,133.7031 936.3281,132.125 L936.3281,131.0781 C936.3281,129.375 937.5469,128.1719 939.25,128.1719 C939.8281,128.1719 940.4063,128.3125 940.875,128.5625 C941.3438,128.8281 941.5156,129.0156 941.5781,129.375 C941.7031,130.0469 941.9531,130.2969 942.4844,130.2969 C942.7656,130.2969 943.0469,130.1563 943.2344,129.9375 C943.3594,129.7656 943.4063,129.5938 943.4063,129.1563 L943.4063,127.7969 C943.4063,127.375 943.3906,127.2344 943.2656,127.0625 C943.0938,126.8125 942.8125,126.6563 942.4844,126.6563 C942.1719,126.6563 941.9688,126.7656 941.75,127.0313 C940.5781,126.5313 940.1406,126.4219 939.1875,126.4219 C936.5156,126.4219 934.5,128.4375 934.5,131.0625 L934.5,132.1563 Z " fill="#000000"/><text fill="#000000" font-family="sans-serif" font-size="14" lengthAdjust="spacing" textLength="125" x="953.5" y="135.606">ModulatingFunction</text><line style="stroke:#181818;stroke-width:0.5;" x1="925.5" x2="1080.5" y1="147" y2="147"/><line style="stroke:#181818;stroke-width:0.5;" x1="925.5" x2="1080.5" y1="155" y2="155"/></g><!--MD5=[c72e0f1d657745ecae4651dbc538eb54]
class Spectrum--><g id="elem_Spectrum"><rect fill="#F1F1F1" height="48" id="Spectrum" rx="2.5" ry="2.5" style="stroke:#181818;stroke-width:0.5;" width="93" x="1116.5" y="115"/><ellipse cx="1131.5" cy="131" fill="#ADD1B2" rx="11" ry="11" style="stroke:#181818;stroke-width:1.0;"/><path d="M1126.5,132.1563 C1126.5,134.6563 1128.6406,136.4688 1131.5625,136.4688 C1132.7969,136.4688 1133.9688,136.1719 1134.7188,135.6563 C1135.3281,135.2344 1135.6563,134.8125 1135.6563,134.4063 C1135.6563,133.9375 1135.2344,133.5313 1134.7344,133.5313 C1134.5,133.5313 1134.2813,133.6094 1134.0781,133.8125 C1133.6406,134.25 1133.6406,134.25 1133.4688,134.3438 C1133.0156,134.5781 1132.375,134.7188 1131.6094,134.7188 C1129.6094,134.7188 1128.3281,133.7031 1128.3281,132.125 L1128.3281,131.0781 C1128.3281,129.375 1129.5469,128.1719 1131.25,128.1719 C1131.8281,128.1719 1132.4063,128.3125 1132.875,128.5625 C1133.3438,128.8281 1133.5156,129.0156 1133.5781,129.375 C1133.7031,130.0469 1133.9531,130.2969 1134.4844,130.2969 C1134.7656,130.2969 1135.0469,130.1563 1135.2344,129.9375 C1135.3594,129.7656 1135.4063,129.5938 1135.4063,129.1563 L1135.4063,127.7969 C1135.4063,127.375 1135.3906,127.2344 1135.2656,127.0625 C1135.0938,126.8125 1134.8125,126.6563 1134.4844,126.6563 C1134.1719,126.6563 1133.9688,126.7656 1133.75,127.0313 C1132.5781,126.5313 1132.1406,126.4219 1131.1875,126.4219 C1128.5156,126.4219 1126.5,128.4375 1126.5,131.0625 L1126.5,132.1563 Z " fill="#000000"/><text fill="#000000" font-family="sans-serif" font-size="14" lengthAdjust="spacing" textLength="61" x="1145.5" y="135.606">Spectrum</text><line style="stroke:#181818;stroke-width:0.5;" x1="1117.5" x2="1208.5" y1="147" y2="147"/><line style="stroke:#181818;stroke-width:0.5;" x1="1117.5" x2="1208.5" y1="155" y2="155"/></g><!--MD5=[76709551eb222fe5a865e56a1709457f]
reverse link ReliabilityDomain to RandomVariable--><g id="link_ReliabilityDomain_RandomVariable"><path codeLine="1" d="M621.48,41.98 C514.61,55.4 324.04,81.48 163,115 C157.19,116.21 151.18,117.57 145.17,119 " fill="none" id="ReliabilityDomain-backto-RandomVariable" style="stroke:#181818;stroke-width:1.0;"/><polygon fill="none" points="634.41,40.37,627.9633,37.1389,622.5013,41.8471,628.948,45.0781,634.41,40.37" style="stroke:#181818;stroke-width:1.0;"/></g><!--MD5=[5fb034c8771364d3d7d58e7db4d053dc]
reverse link ReliabilityDomain to RandomVariablePositioner--><g id="link_ReliabilityDomain_RandomVariablePositioner"><path codeLine="2" d="M621.07,52.98 C549.61,70.85 447.12,96.47 373.36,114.91 " fill="none" id="ReliabilityDomain-backto-RandomVariablePositioner" style="stroke:#181818;stroke-width:1.0;"/><polygon fill="none" points="634.03,49.74,627.2409,47.3092,622.386,52.6411,629.175,55.0719,634.03,49.74" style="stroke:#181818;stroke-width:1.0;"/></g><!--MD5=[0e5e80e36057e237c3e5c4b160d937c9]
reverse link ReliabilityDomain to CorrelationCoefficient--><g id="link_ReliabilityDomain_CorrelationCoefficient"><path codeLine="3" d="M649.12,61.04 C616.52,77.98 575.96,99.05 545.53,114.86 " fill="none" id="ReliabilityDomain-backto-CorrelationCoefficient" style="stroke:#181818;stroke-width:1.0;"/><polygon fill="none" points="660.74,55,653.571,54.2218,650.0953,60.54,657.2643,61.3182,660.74,55" style="stroke:#181818;stroke-width:1.0;"/></g><!--MD5=[190854d94948cfc21c8181a8cf8fc9df]
reverse link ReliabilityDomain to PerformanceFunction--><g id="link_ReliabilityDomain_PerformanceFunction"><path codeLine="4" d="M705,68.34 C705,83.68 705,101.1 705,114.68 " fill="none" id="ReliabilityDomain-backto-PerformanceFunction" style="stroke:#181818;stroke-width:1.0;"/><polygon fill="none" points="705,55,701,61,705,67,709,61,705,55" style="stroke:#181818;stroke-width:1.0;"/></g><!--MD5=[d29b0f20dea62848d3f84d297dbb4456]
reverse link ReliabilityDomain to Filter--><g id="link_ReliabilityDomain_Filter"><path codeLine="5" d="M748.72,62.49 C773.01,79.43 802.72,100.15 824.86,115.59 " fill="none" id="ReliabilityDomain-backto-Filter" style="stroke:#181818;stroke-width:1.0;"/><polygon fill="none" points="737.98,55,740.613,61.7132,747.8225,61.8647,745.1895,55.1515,737.98,55" style="stroke:#181818;stroke-width:1.0;"/></g><!--MD5=[3814caa16c96b005f062342e0d9d9d6c]
reverse link ReliabilityDomain to ModulatingFunction--><g id="link_ReliabilityDomain_ModulatingFunction"><path codeLine="6" d="M781.99,59.39 C830.45,76.62 892.27,98.61 938.21,114.95 " fill="none" id="ReliabilityDomain-backto-ModulatingFunction" style="stroke:#181818;stroke-width:1.0;"/><polygon fill="none" points="769.66,55,773.9715,60.7802,780.9654,59.0235,776.6539,53.2433,769.66,55" style="stroke:#181818;stroke-width:1.0;"/></g><!--MD5=[214baa7c7fd8055fc2e36877167dd95c]
reverse link ReliabilityDomain to Spectrum--><g id="link_ReliabilityDomain_Spectrum"><path codeLine="7" d="M788.81,46.2 C869.13,60.62 993.41,85.06 1099,115 C1104.68,116.61 1110.58,118.47 1116.4,120.42 " fill="none" id="ReliabilityDomain-backto-Spectrum" style="stroke:#181818;stroke-width:1.0;"/><polygon fill="none" points="775.82,43.89,781.0288,48.8768,787.6354,45.9867,782.4266,40.9999,775.82,43.89" style="stroke:#181818;stroke-width:1.0;"/></g><!--MD5=[fafd547c4b03705f3b75babff00b908d]
@startuml
ReliabilityDomain o- - RandomVariable 
ReliabilityDomain o- - RandomVariablePositioner 
ReliabilityDomain o- - CorrelationCoefficient
ReliabilityDomain o- - PerformanceFunction 
ReliabilityDomain o- - Filter
ReliabilityDomain o- - ModulatingFunction 
ReliabilityDomain o- - Spectrum
@enduml

PlantUML version 1.2022.4(Sat Apr 09 06:29:17 PDT 2022)
(GPL source distribution)
Java Runtime: OpenJDK Runtime Environment
JVM: OpenJDK 64-Bit Server VM
Default Encoding: UTF-8
Language: en
Country: US
--></g></svg>