<?xml version="1.0" encoding="UTF-8" standalone="no"?><svg xmlns="http://www.w3.org/2000/svg" xmlns:xlink="http://www.w3.org/1999/xlink" contentStyleType="text/css" height="128px" preserveAspectRatio="none" style="width:1003px;height:128px;background:#FFFFFF;" version="1.1" viewBox="0 0 1003 128" width="1003px" zoomAndPan="magnify"><defs/><g><!--MD5=[6d4d181dd14f5fb52cd1fbc084a7cb52]
class Integrator--><g id="elem_Integrator"><rect codeLine="2" fill="#F1F1F1" height="48" id="Integrator" rx="2.5" ry="2.5" style="stroke:#181818;stroke-width:0.5;" width="94" x="281" y="73.08"/><ellipse cx="296" cy="89.08" fill="#A9DCDF" rx="11" ry="11" style="stroke:#181818;stroke-width:1.0;"/><path d="M297.5313,91.0175 L297.8594,91.8144 L297.5781,91.8144 C297.125,91.8144 297,91.8456 296.8281,91.955 C296.5469,92.0956 296.375,92.3925 296.375,92.6894 C296.375,92.9863 296.5156,93.2363 296.75,93.4081 C296.9219,93.5331 297.1563,93.58 297.5781,93.58 L299.9375,93.58 C300.2969,93.58 300.5469,93.5488 300.6875,93.455 C300.9531,93.3144 301.125,93.0019 301.125,92.6894 C301.125,92.4238 300.9844,92.1581 300.75,91.9863 C300.5625,91.8613 300.4063,91.83 299.9531,91.8144 L296.5625,83.9863 L292.8438,83.9863 C292.3906,83.9863 292.25,84.0019 292.0781,84.1113 C291.8125,84.2831 291.6406,84.5644 291.6406,84.8613 C291.6406,85.1425 291.7813,85.4081 292.0313,85.58 C292.2031,85.705 292.3906,85.7363 292.8438,85.7363 L293.8125,85.7363 L291.2344,91.8144 C290.4844,91.8144 290.0781,92.1113 290.0781,92.6894 C290.0781,93.2988 290.4688,93.58 291.2656,93.58 L293.5313,93.58 C293.8906,93.58 294.1406,93.5488 294.2813,93.455 C294.5469,93.2988 294.7188,93.0019 294.7188,92.6894 C294.7188,92.4238 294.5781,92.1581 294.3438,91.9863 C294.1563,91.8456 294,91.8144 293.5313,91.8144 L293.2344,91.8144 L293.5781,91.0175 L297.5313,91.0175 Z M296.7656,89.2675 L294.3125,89.2675 L295.5469,86.3925 L296.7656,89.2675 Z " fill="#000000"/><text fill="#000000" font-family="sans-serif" font-size="14" font-style="italic" lengthAdjust="spacing" textLength="62" x="310" y="95.03">Integrator</text><line style="stroke:#181818;stroke-width:0.5;" x1="282" x2="374" y1="105.08" y2="105.08"/><line style="stroke:#181818;stroke-width:0.5;" x1="282" x2="374" y1="113.08" y2="113.08"/></g><!--MD5=[05d04b564e9d963c5556604ff8f07e7e]
class Analysis--><g id="elem_Analysis"><rect codeLine="3" fill="#F1F1F1" height="48" id="Analysis" rx="2.5" ry="2.5" style="stroke:#181818;stroke-width:0.5;" width="84" x="7" y="73.08"/><ellipse cx="22" cy="89.08" fill="#A9DCDF" rx="11" ry="11" style="stroke:#181818;stroke-width:1.0;"/><path d="M23.5313,91.0175 L23.8594,91.8144 L23.5781,91.8144 C23.125,91.8144 23,91.8456 22.8281,91.955 C22.5469,92.0956 22.375,92.3925 22.375,92.6894 C22.375,92.9863 22.5156,93.2363 22.75,93.4081 C22.9219,93.5331 23.1563,93.58 23.5781,93.58 L25.9375,93.58 C26.2969,93.58 26.5469,93.5488 26.6875,93.455 C26.9531,93.3144 27.125,93.0019 27.125,92.6894 C27.125,92.4238 26.9844,92.1581 26.75,91.9863 C26.5625,91.8613 26.4063,91.83 25.9531,91.8144 L22.5625,83.9863 L18.8438,83.9863 C18.3906,83.9863 18.25,84.0019 18.0781,84.1113 C17.8125,84.2831 17.6406,84.5644 17.6406,84.8613 C17.6406,85.1425 17.7813,85.4081 18.0313,85.58 C18.2031,85.705 18.3906,85.7363 18.8438,85.7363 L19.8125,85.7363 L17.2344,91.8144 C16.4844,91.8144 16.0781,92.1113 16.0781,92.6894 C16.0781,93.2988 16.4688,93.58 17.2656,93.58 L19.5313,93.58 C19.8906,93.58 20.1406,93.5488 20.2813,93.455 C20.5469,93.2988 20.7188,93.0019 20.7188,92.6894 C20.7188,92.4238 20.5781,92.1581 20.3438,91.9863 C20.1563,91.8456 20,91.8144 19.5313,91.8144 L19.2344,91.8144 L19.5781,91.0175 L23.5313,91.0175 Z M22.7656,89.2675 L20.3125,89.2675 L21.5469,86.3925 L22.7656,89.2675 Z " fill="#000000"/><text fill="#000000" font-family="sans-serif" font-size="14" font-style="italic" lengthAdjust="spacing" textLength="52" x="36" y="95.03">Analysis</text><line style="stroke:#181818;stroke-width:0.5;" x1="8" x2="90" y1="105.08" y2="105.08"/><line style="stroke:#181818;stroke-width:0.5;" x1="8" x2="90" y1="113.08" y2="113.08"/></g><!--MD5=[868fdec9bb0f96d9fbf35105ee6becb4]
class SystemOfEqn--><g id="elem_SystemOfEqn"><rect codeLine="4" fill="#F1F1F1" height="48" id="SystemOfEqn" rx="2.5" ry="2.5" style="stroke:#181818;stroke-width:0.5;" width="119" x="126.5" y="73.08"/><ellipse cx="141.5" cy="89.08" fill="#A9DCDF" rx="11" ry="11" style="stroke:#181818;stroke-width:1.0;"/><path d="M143.0313,91.0175 L143.3594,91.8144 L143.0781,91.8144 C142.625,91.8144 142.5,91.8456 142.3281,91.955 C142.0469,92.0956 141.875,92.3925 141.875,92.6894 C141.875,92.9863 142.0156,93.2363 142.25,93.4081 C142.4219,93.5331 142.6563,93.58 143.0781,93.58 L145.4375,93.58 C145.7969,93.58 146.0469,93.5488 146.1875,93.455 C146.4531,93.3144 146.625,93.0019 146.625,92.6894 C146.625,92.4238 146.4844,92.1581 146.25,91.9863 C146.0625,91.8613 145.9063,91.83 145.4531,91.8144 L142.0625,83.9863 L138.3438,83.9863 C137.8906,83.9863 137.75,84.0019 137.5781,84.1113 C137.3125,84.2831 137.1406,84.5644 137.1406,84.8613 C137.1406,85.1425 137.2813,85.4081 137.5313,85.58 C137.7031,85.705 137.8906,85.7363 138.3438,85.7363 L139.3125,85.7363 L136.7344,91.8144 C135.9844,91.8144 135.5781,92.1113 135.5781,92.6894 C135.5781,93.2988 135.9688,93.58 136.7656,93.58 L139.0313,93.58 C139.3906,93.58 139.6406,93.5488 139.7813,93.455 C140.0469,93.2988 140.2188,93.0019 140.2188,92.6894 C140.2188,92.4238 140.0781,92.1581 139.8438,91.9863 C139.6563,91.8456 139.5,91.8144 139.0313,91.8144 L138.7344,91.8144 L139.0781,91.0175 L143.0313,91.0175 Z M142.2656,89.2675 L139.8125,89.2675 L141.0469,86.3925 L142.2656,89.2675 Z " fill="#000000"/><text fill="#000000" font-family="sans-serif" font-size="14" font-style="italic" lengthAdjust="spacing" textLength="87" x="155.5" y="95.03">SystemOfEqn</text><line style="stroke:#181818;stroke-width:0.5;" x1="127.5" x2="244.5" y1="105.08" y2="105.08"/><line style="stroke:#181818;stroke-width:0.5;" x1="127.5" x2="244.5" y1="113.08" y2="113.08"/></g><!--MD5=[806a85b8ffc9189da6f69af0b39696b5]
class ConvergenceTest--><g id="elem_ConvergenceTest"><rect codeLine="5" fill="#F1F1F1" height="48" id="ConvergenceTest" rx="2.5" ry="2.5" style="stroke:#181818;stroke-width:0.5;" width="145" x="410.5" y="73.08"/><ellipse cx="425.5" cy="89.08" fill="#A9DCDF" rx="11" ry="11" style="stroke:#181818;stroke-width:1.0;"/><path d="M427.0313,91.0175 L427.3594,91.8144 L427.0781,91.8144 C426.625,91.8144 426.5,91.8456 426.3281,91.955 C426.0469,92.0956 425.875,92.3925 425.875,92.6894 C425.875,92.9863 426.0156,93.2363 426.25,93.4081 C426.4219,93.5331 426.6563,93.58 427.0781,93.58 L429.4375,93.58 C429.7969,93.58 430.0469,93.5488 430.1875,93.455 C430.4531,93.3144 430.625,93.0019 430.625,92.6894 C430.625,92.4238 430.4844,92.1581 430.25,91.9863 C430.0625,91.8613 429.9063,91.83 429.4531,91.8144 L426.0625,83.9863 L422.3438,83.9863 C421.8906,83.9863 421.75,84.0019 421.5781,84.1113 C421.3125,84.2831 421.1406,84.5644 421.1406,84.8613 C421.1406,85.1425 421.2813,85.4081 421.5313,85.58 C421.7031,85.705 421.8906,85.7363 422.3438,85.7363 L423.3125,85.7363 L420.7344,91.8144 C419.9844,91.8144 419.5781,92.1113 419.5781,92.6894 C419.5781,93.2988 419.9688,93.58 420.7656,93.58 L423.0313,93.58 C423.3906,93.58 423.6406,93.5488 423.7813,93.455 C424.0469,93.2988 424.2188,93.0019 424.2188,92.6894 C424.2188,92.4238 424.0781,92.1581 423.8438,91.9863 C423.6563,91.8456 423.5,91.8144 423.0313,91.8144 L422.7344,91.8144 L423.0781,91.0175 L427.0313,91.0175 Z M426.2656,89.2675 L423.8125,89.2675 L425.0469,86.3925 L426.2656,89.2675 Z " fill="#000000"/><text fill="#000000" font-family="sans-serif" font-size="14" font-style="italic" lengthAdjust="spacing" textLength="113" x="439.5" y="95.03">ConvergenceTest</text><line style="stroke:#181818;stroke-width:0.5;" x1="411.5" x2="554.5" y1="105.08" y2="105.08"/><line style="stroke:#181818;stroke-width:0.5;" x1="411.5" x2="554.5" y1="113.08" y2="113.08"/></g><!--MD5=[8900b8126f988052b90f9f1b0582e804]
class Algorithm--><g id="elem_Algorithm"><rect codeLine="6" fill="#F1F1F1" height="48" id="Algorithm" rx="2.5" ry="2.5" style="stroke:#181818;stroke-width:0.5;" width="92" x="591" y="73.08"/><ellipse cx="606" cy="89.08" fill="#A9DCDF" rx="11" ry="11" style="stroke:#181818;stroke-width:1.0;"/><path d="M607.5313,91.0175 L607.8594,91.8144 L607.5781,91.8144 C607.125,91.8144 607,91.8456 606.8281,91.955 C606.5469,92.0956 606.375,92.3925 606.375,92.6894 C606.375,92.9863 606.5156,93.2363 606.75,93.4081 C606.9219,93.5331 607.1563,93.58 607.5781,93.58 L609.9375,93.58 C610.2969,93.58 610.5469,93.5488 610.6875,93.455 C610.9531,93.3144 611.125,93.0019 611.125,92.6894 C611.125,92.4238 610.9844,92.1581 610.75,91.9863 C610.5625,91.8613 610.4063,91.83 609.9531,91.8144 L606.5625,83.9863 L602.8438,83.9863 C602.3906,83.9863 602.25,84.0019 602.0781,84.1113 C601.8125,84.2831 601.6406,84.5644 601.6406,84.8613 C601.6406,85.1425 601.7813,85.4081 602.0313,85.58 C602.2031,85.705 602.3906,85.7363 602.8438,85.7363 L603.8125,85.7363 L601.2344,91.8144 C600.4844,91.8144 600.0781,92.1113 600.0781,92.6894 C600.0781,93.2988 600.4688,93.58 601.2656,93.58 L603.5313,93.58 C603.8906,93.58 604.1406,93.5488 604.2813,93.455 C604.5469,93.2988 604.7188,93.0019 604.7188,92.6894 C604.7188,92.4238 604.5781,92.1581 604.3438,91.9863 C604.1563,91.8456 604,91.8144 603.5313,91.8144 L603.2344,91.8144 L603.5781,91.0175 L607.5313,91.0175 Z M606.7656,89.2675 L604.3125,89.2675 L605.5469,86.3925 L606.7656,89.2675 Z " fill="#000000"/><text fill="#000000" font-family="sans-serif" font-size="14" font-style="italic" lengthAdjust="spacing" textLength="60" x="620" y="95.03">Algorithm</text><line style="stroke:#181818;stroke-width:0.5;" x1="592" x2="682" y1="105.08" y2="105.08"/><line style="stroke:#181818;stroke-width:0.5;" x1="592" x2="682" y1="113.08" y2="113.08"/></g><!--MD5=[ecdc9b889f6f362838021927aaa787eb]
class ConstraintHandler--><g id="elem_ConstraintHandler"><rect fill="#F1F1F1" height="48" id="ConstraintHandler" rx="2.5" ry="2.5" style="stroke:#181818;stroke-width:0.5;" width="147" x="849.5" y="73.08"/><ellipse cx="864.5" cy="89.08" fill="#ADD1B2" rx="11" ry="11" style="stroke:#181818;stroke-width:1.0;"/><path d="M859.5,90.2363 C859.5,92.7363 861.6406,94.5488 864.5625,94.5488 C865.7969,94.5488 866.9688,94.2519 867.7188,93.7363 C868.3281,93.3144 868.6563,92.8925 868.6563,92.4863 C868.6563,92.0175 868.2344,91.6113 867.7344,91.6113 C867.5,91.6113 867.2813,91.6894 867.0781,91.8925 C866.6406,92.33 866.6406,92.33 866.4688,92.4238 C866.0156,92.6581 865.375,92.7988 864.6094,92.7988 C862.6094,92.7988 861.3281,91.7831 861.3281,90.205 L861.3281,89.1581 C861.3281,87.455 862.5469,86.2519 864.25,86.2519 C864.8281,86.2519 865.4063,86.3925 865.875,86.6425 C866.3438,86.9081 866.5156,87.0956 866.5781,87.455 C866.7031,88.1269 866.9531,88.3769 867.4844,88.3769 C867.7656,88.3769 868.0469,88.2363 868.2344,88.0175 C868.3594,87.8456 868.4063,87.6738 868.4063,87.2363 L868.4063,85.8769 C868.4063,85.455 868.3906,85.3144 868.2656,85.1425 C868.0938,84.8925 867.8125,84.7363 867.4844,84.7363 C867.1719,84.7363 866.9688,84.8456 866.75,85.1113 C865.5781,84.6113 865.1406,84.5019 864.1875,84.5019 C861.5156,84.5019 859.5,86.5175 859.5,89.1425 L859.5,90.2363 Z " fill="#000000"/><text fill="#000000" font-family="sans-serif" font-size="14" lengthAdjust="spacing" textLength="115" x="878.5" y="93.686">ConstraintHandler</text><line style="stroke:#181818;stroke-width:0.5;" x1="850.5" x2="995.5" y1="105.08" y2="105.08"/><line style="stroke:#181818;stroke-width:0.5;" x1="850.5" x2="995.5" y1="113.08" y2="113.08"/></g><!--MD5=[0057d1e70e840415f87a441992fd84e9]
class Numberer--><g id="elem_Numberer"><rect fill="#F1F1F1" height="48" id="Numberer" rx="2.5" ry="2.5" style="stroke:#181818;stroke-width:0.5;" width="96" x="718" y="73.08"/><ellipse cx="733" cy="89.08" fill="#ADD1B2" rx="11" ry="11" style="stroke:#181818;stroke-width:1.0;"/><path d="M728,90.2363 C728,92.7363 730.1406,94.5488 733.0625,94.5488 C734.2969,94.5488 735.4688,94.2519 736.2188,93.7363 C736.8281,93.3144 737.1563,92.8925 737.1563,92.4863 C737.1563,92.0175 736.7344,91.6113 736.2344,91.6113 C736,91.6113 735.7813,91.6894 735.5781,91.8925 C735.1406,92.33 735.1406,92.33 734.9688,92.4238 C734.5156,92.6581 733.875,92.7988 733.1094,92.7988 C731.1094,92.7988 729.8281,91.7831 729.8281,90.205 L729.8281,89.1581 C729.8281,87.455 731.0469,86.2519 732.75,86.2519 C733.3281,86.2519 733.9063,86.3925 734.375,86.6425 C734.8438,86.9081 735.0156,87.0956 735.0781,87.455 C735.2031,88.1269 735.4531,88.3769 735.9844,88.3769 C736.2656,88.3769 736.5469,88.2363 736.7344,88.0175 C736.8594,87.8456 736.9063,87.6738 736.9063,87.2363 L736.9063,85.8769 C736.9063,85.455 736.8906,85.3144 736.7656,85.1425 C736.5938,84.8925 736.3125,84.7363 735.9844,84.7363 C735.6719,84.7363 735.4688,84.8456 735.25,85.1113 C734.0781,84.6113 733.6406,84.5019 732.6875,84.5019 C730.0156,84.5019 728,86.5175 728,89.1425 L728,90.2363 Z " fill="#000000"/><text fill="#000000" font-family="sans-serif" font-size="14" lengthAdjust="spacing" textLength="64" x="747" y="93.686">Numberer</text><line style="stroke:#181818;stroke-width:0.5;" x1="719" x2="813" y1="105.08" y2="105.08"/><line style="stroke:#181818;stroke-width:0.5;" x1="719" x2="813" y1="113.08" y2="113.08"/></g><!--MD5=[ecbff9dc7032144ef9717cb0b3a5020e]
reverse link Analysis to ConstraintHandler--><g id="link_Analysis_ConstraintHandler"><path codeLine="7" d="M85.69,64.74 C97.85,55.96 112.01,47.63 126.5,43.08 C199.43,20.18 740.08,25.59 814.5,43.08 C839.49,48.95 865.3,61.49 885.48,73.01 " fill="none" id="Analysis-backto-ConstraintHandler" style="stroke:#181818;stroke-width:1.0;"/><polygon fill="none" points="75.13,72.83,82.3252,72.3509,84.6503,65.5249,77.4551,66.004,75.13,72.83" style="stroke:#181818;stroke-width:1.0;"/></g><!--MD5=[8b089732d1ef4020270f1a8bb4bcc0bc]
reverse link Analysis to Numberer--><g id="link_Analysis_Numberer"><path codeLine="8" d="M85.69,64.74 C97.85,55.96 112.01,47.63 126.5,43.08 C244.59,6 564.88,7.71 683.5,43.08 C703.35,49 722.87,61.39 737.93,72.81 " fill="none" id="Analysis-backto-Numberer" style="stroke:#181818;stroke-width:1.0;"/><polygon fill="none" points="75.13,72.83,82.3252,72.3509,84.6503,65.5249,77.4551,66.004,75.13,72.83" style="stroke:#181818;stroke-width:1.0;"/></g><!--MD5=[ff50e5c4878f80c30a1cfc485347929d]
reverse link Analysis to Algorithm--><g id="link_Analysis_Algorithm"><path codeLine="9" d="M85.69,64.74 C97.85,55.96 112.01,47.63 126.5,43.08 C217.45,14.52 464.22,15.58 555.5,43.08 C575.16,49 594.45,61.39 609.32,72.81 " fill="none" id="Analysis-backto-Algorithm" style="stroke:#181818;stroke-width:1.0;"/><polygon fill="none" points="75.13,72.83,82.3252,72.3509,84.6503,65.5249,77.4551,66.004,75.13,72.83" style="stroke:#181818;stroke-width:1.0;"/></g><!--MD5=[7513132b2f4b7770ee40bac2354e4989]
reverse link Analysis to ConvergenceTest--><g id="link_Analysis_ConvergenceTest"><path codeLine="10" d="M85.69,64.74 C97.85,55.96 112.01,47.63 126.5,43.08 C232.08,9.92 267.82,17.55 375.5,43.08 C400.29,48.96 425.87,61.5 445.85,73.01 " fill="none" id="Analysis-backto-ConvergenceTest" style="stroke:#181818;stroke-width:1.0;"/><polygon fill="none" points="75.13,72.83,82.3252,72.3509,84.6503,65.5249,77.4551,66.004,75.13,72.83" style="stroke:#181818;stroke-width:1.0;"/></g><!--MD5=[e278be6fe1063a385f03e53fbdb1191d]
reverse link Analysis to Integrator--><g id="link_Analysis_Integrator"><path codeLine="11" d="M85.69,64.74 C97.85,55.96 112.01,47.63 126.5,43.08 C176.96,27.23 194.82,27.97 245.5,43.08 C265.35,49 284.87,61.39 299.93,72.81 " fill="none" id="Analysis-backto-Integrator" style="stroke:#181818;stroke-width:1.0;"/><polygon fill="none" points="75.13,72.83,82.3252,72.3509,84.6503,65.5249,77.4551,66.004,75.13,72.83" style="stroke:#181818;stroke-width:1.0;"/></g><!--MD5=[7f22873b2b6edb4a7308b3e86c7aeb03]
reverse link Analysis to SystemOfEqn--><g id="link_Analysis_SystemOfEqn"><path codeLine="12" d="M104.23,97.08 C111.57,97.08 118.92,97.08 126.26,97.08 " fill="none" id="Analysis-backto-SystemOfEqn" style="stroke:#181818;stroke-width:1.0;"/><polygon fill="none" points="91.01,97.08,97.01,101.08,103.01,97.08,97.01,93.08,91.01,97.08" style="stroke:#181818;stroke-width:1.0;"/></g><!--MD5=[592fa084cee35ad468532e9b6d7b9d04]
@startuml
'package "OpenSees Analysis" #DDDDDD {
abstract class Integrator 
abstract class Analysis 
abstract class SystemOfEqn 
abstract Class ConvergenceTest 
abstract class Algorithm
Analysis o- ConstraintHandler 
Analysis o- Numberer 
Analysis o- Algorithm
Analysis o- ConvergenceTest 
Analysis o- Integrator 
Analysis o- SystemOfEqn 
'}
@enduml

@startuml
abstract class Integrator 
abstract class Analysis 
abstract class SystemOfEqn 
abstract Class ConvergenceTest 
abstract class Algorithm
Analysis o- ConstraintHandler 
Analysis o- Numberer 
Analysis o- Algorithm
Analysis o- ConvergenceTest 
Analysis o- Integrator 
Analysis o- SystemOfEqn 
@enduml

PlantUML version 1.2022.4(Sat Apr 09 06:29:17 PDT 2022)
(GPL source distribution)
Java Runtime: OpenJDK Runtime Environment
JVM: OpenJDK 64-Bit Server VM
Default Encoding: UTF-8
Language: en
Country: US
--></g></svg>