<?xml version="1.0" encoding="UTF-8" standalone="no"?>
<!-- Created with Inkscape (http://www.inkscape.org/) -->

<svg
   version="1.1"
   id="svg132"
   width="115.86026"
   height="115.582"
   viewBox="0 0 115.86026 115.582"
   sodipodi:docname="2022-03_aghagholizadeh-and-makris_final.pdf"
   xmlns:inkscape="http://www.inkscape.org/namespaces/inkscape"
   xmlns:sodipodi="http://sodipodi.sourceforge.net/DTD/sodipodi-0.dtd"
   xmlns="http://www.w3.org/2000/svg"
   xmlns:svg="http://www.w3.org/2000/svg">
  <defs
     id="defs136" />
  <sodipodi:namedview
     id="namedview134"
     pagecolor="#ffffff"
     bordercolor="#666666"
     borderopacity="1.0"
     inkscape:showpageshadow="2"
     inkscape:pageopacity="0.0"
     inkscape:pagecheckerboard="0"
     inkscape:deskcolor="#d1d1d1"
     showgrid="false" />
  <g
     id="g138"
     inkscape:groupmode="layer"
     inkscape:label="2022-03_aghagholizadeh-and-makris_final"
     transform="matrix(1.3333333,0,0,-1.3333333,-331.50931,897.8403)">
    <g
       id="g188"
       transform="translate(248.63199,633.44804)"
       style="fill:#000000;fill-opacity:1">
      <path
         d="M 0,0 V -4.492 L 4.604,-9.096 V 0 Z"
         style="fill:#000000;fill-opacity:1;fill-rule:nonzero;stroke:none"
         id="path190" />
    </g>
    <g
       id="g192"
       transform="translate(253.15089,638.21994)"
       style="fill:#000000;fill-opacity:1">
      <path
         d="m 0,0 v -13.783 l 0.921,-0.921 V 0.921 Z"
         style="fill:#000000;fill-opacity:1;fill-rule:nonzero;stroke:none"
         id="path194" />
    </g>
    <g
       id="g196"
       transform="translate(255.49989,633.44804)"
       style="fill:#000000;fill-opacity:1">
      <path
         d="m 0,0 v -11.36 l 4.604,-4.604 V 0 Z"
         style="fill:#000000;fill-opacity:1;fill-rule:nonzero;stroke:none"
         id="path198" />
    </g>
    <g
       id="g200"
       transform="translate(259.99899,645.06814)"
       style="fill:#000000;fill-opacity:1">
      <path
         d="M 0,0 V -27.479 L 0.921,-28.4 V 0.921 Z"
         style="fill:#000000;fill-opacity:1;fill-rule:nonzero;stroke:none"
         id="path202" />
    </g>
    <g
       id="g204"
       transform="translate(262.36599,637.63214)"
       style="fill:#000000;fill-opacity:1">
      <path
         d="m 0,0 v -22.41 l 4.604,-4.604 V 0 Z"
         style="fill:#000000;fill-opacity:1;fill-rule:nonzero;stroke:none"
         id="path206" />
    </g>
    <g
       id="g208"
       transform="translate(266.84709,651.91644)"
       style="fill:#000000;fill-opacity:1">
      <path
         d="m 0,0 v -41.176 l 0.921,-0.921 V 0.921 Z"
         style="fill:#000000;fill-opacity:1;fill-rule:nonzero;stroke:none"
         id="path210" />
    </g>
    <g
       id="g212"
       transform="translate(269.23209,647.20184)"
       style="fill:#000000;fill-opacity:1">
      <path
         d="M 0,0 V -38.846 L 4.604,-43.45 V 0 Z"
         style="fill:#000000;fill-opacity:1;fill-rule:nonzero;stroke:none"
         id="path214" />
    </g>
    <g
       id="g216"
       transform="translate(273.69429,658.76384)"
       style="fill:#000000;fill-opacity:1">
      <path
         d="m 0,0 v -54.871 l 0.921,-0.92 V 0.921 Z"
         style="fill:#000000;fill-opacity:1;fill-rule:nonzero;stroke:none"
         id="path218" />
    </g>
    <g
       id="g220"
       transform="translate(276.09999,658.55624)"
       style="fill:#000000;fill-opacity:1">
      <path
         d="m 0,0 v -57.069 l 4.603,-4.602 V 0 Z"
         style="fill:#000000;fill-opacity:1;fill-rule:nonzero;stroke:none"
         id="path222" />
    </g>
    <g
       id="g224"
       transform="translate(280.54239,665.61204)"
       style="fill:#000000;fill-opacity:1">
      <path
         d="m 0,0 v -68.567 l 0.921,-0.921 V 0.921 Z"
         style="fill:#000000;fill-opacity:1;fill-rule:nonzero;stroke:none"
         id="path226" />
    </g>
    <g
       id="g228"
       transform="translate(282.96609,641.96564)"
       style="fill:#000000;fill-opacity:1">
      <path
         d="m 0,0 v -47.344 l 4.604,-4.604 V 0 Z"
         style="fill:#000000;fill-opacity:1;fill-rule:nonzero;stroke:none"
         id="path230" />
    </g>
    <g
       id="g232"
       transform="translate(287.39049,672.46024)"
       style="fill:#000000;fill-opacity:1">
      <path
         d="m 0,0 v -82.263 l 0.92,-0.92 V 0.92 Z"
         style="fill:#000000;fill-opacity:1;fill-rule:nonzero;stroke:none"
         id="path234" />
    </g>
    <g
       id="g236"
       transform="translate(289.83399,626.02574)"
       style="fill:#000000;fill-opacity:1">
      <path
         d="m 0,0 v -38.272 l 1.059,-1.06 3.545,3.545 V 0 Z"
         style="fill:#000000;fill-opacity:1;fill-rule:nonzero;stroke:none"
         id="path238" />
    </g>
    <g
       id="g240"
       transform="translate(294.23769,590.03844)"
       style="fill:#000000;fill-opacity:1">
      <path
         d="M 0,0 0.921,0.921 V 81.66 L 0,82.58 Z"
         style="fill:#000000;fill-opacity:1;fill-rule:nonzero;stroke:none"
         id="path242" />
    </g>
    <g
       id="g244"
       transform="translate(296.70009,608.23994)"
       style="fill:#000000;fill-opacity:1">
      <path
         d="m 0,0 v -15.739 l 4.604,4.604 V 0 Z"
         style="fill:#000000;fill-opacity:1;fill-rule:nonzero;stroke:none"
         id="path246" />
    </g>
    <g
       id="g248"
       transform="translate(301.08579,596.88664)"
       style="fill:#000000;fill-opacity:1">
      <path
         d="M 0,0 0.921,0.921 V 67.963 L 0,68.884 Z"
         style="fill:#000000;fill-opacity:1;fill-rule:nonzero;stroke:none"
         id="path250" />
    </g>
    <g
       id="g252"
       transform="translate(303.56709,617.73944)"
       style="fill:#000000;fill-opacity:1">
      <path
         d="m 0,0 v -18.371 l 4.604,4.603 V 0 Z"
         style="fill:#000000;fill-opacity:1;fill-rule:nonzero;stroke:none"
         id="path254" />
    </g>
    <g
       id="g256"
       transform="translate(307.93299,603.73394)"
       style="fill:#000000;fill-opacity:1">
      <path
         d="M 0,0 0.921,0.921 V 54.268 L 0,55.189 Z"
         style="fill:#000000;fill-opacity:1;fill-rule:nonzero;stroke:none"
         id="path258" />
    </g>
    <g
       id="g260"
       transform="translate(310.43319,629.46284)"
       style="fill:#000000;fill-opacity:1">
      <path
         d="m 0,0 v -23.229 l 4.604,4.604 V 0 Z"
         style="fill:#000000;fill-opacity:1;fill-rule:nonzero;stroke:none"
         id="path262" />
    </g>
    <g
       id="g264"
       transform="translate(314.78109,610.58224)"
       style="fill:#000000;fill-opacity:1">
      <path
         d="M 0,0 0.921,0.921 V 40.572 L 0,41.493 Z"
         style="fill:#000000;fill-opacity:1;fill-rule:nonzero;stroke:none"
         id="path266" />
    </g>
    <g
       id="g268"
       transform="translate(317.30109,632.01344)"
       style="fill:#000000;fill-opacity:1">
      <path
         d="m 0,0 v -18.911 l 4.604,4.603 V 0 Z"
         style="fill:#000000;fill-opacity:1;fill-rule:nonzero;stroke:none"
         id="path270" />
    </g>
    <g
       id="g272"
       transform="translate(321.62829,617.42954)"
       style="fill:#000000;fill-opacity:1">
      <path
         d="M 0,0 0.921,0.921 V 26.877 L 0,27.798 Z"
         style="fill:#000000;fill-opacity:1;fill-rule:nonzero;stroke:none"
         id="path274" />
    </g>
    <g
       id="g276"
       transform="translate(324.16809,631.32854)"
       style="fill:#000000;fill-opacity:1">
      <path
         d="m 0,0 v -11.359 l 4.604,4.603 V 0 Z"
         style="fill:#000000;fill-opacity:1;fill-rule:nonzero;stroke:none"
         id="path278" />
    </g>
    <g
       id="g280"
       transform="translate(328.47639,624.27774)"
       style="fill:#000000;fill-opacity:1">
      <path
         d="m 0,0 0.921,0.921 v 12.26 L 0,14.102 Z"
         style="fill:#000000;fill-opacity:1;fill-rule:nonzero;stroke:none"
         id="path282" />
    </g>
    <g
       id="g284"
       transform="translate(331.03419,631.32854)"
       style="fill:#000000;fill-opacity:1">
      <path
         d="M 0,0 V -4.493 L 4.493,0 Z"
         style="fill:#000000;fill-opacity:1;fill-rule:nonzero;stroke:none"
         id="path286" />
    </g>
    <g
       id="g288"
       transform="translate(335.32449,631.12604)"
       style="fill:#000000;fill-opacity:1">
      <path
         d="M 0,0 0.202,0.203 0,0.405 Z"
         style="fill:#000000;fill-opacity:1;fill-rule:nonzero;stroke:none"
         id="path290" />
    </g>
  </g>
</svg>
